<svg width="45" height="43" viewBox="0 0 45 43" fill="none" xmlns="http://www.w3.org/2000/svg">
<path d="M4.88573 15.7165C2.21253 14.1735 2.21253 11.6717 4.88573 10.1287L17.5929 2.79387C20.2661 1.25084 24.6002 1.25084 27.2734 2.79387L39.9805 10.1287C42.6537 11.6717 42.6537 14.1735 39.9805 15.7165L27.2734 23.0513C24.6002 24.5944 20.2661 24.5944 17.5929 23.0513L4.88573 15.7165Z" fill="white"/>
<path fill-rule="evenodd" clip-rule="evenodd" d="M18.8029 3.49234L6.0958 10.8272C4.09089 11.9845 4.09089 13.8608 6.09579 15.018L18.8029 22.3529C20.8078 23.5101 24.0584 23.5101 26.0633 22.3529L38.7705 15.018C40.7754 13.8608 40.7754 11.9845 38.7705 10.8272L26.0633 3.49234C24.0584 2.33507 20.8078 2.33507 18.8029 3.49234ZM4.88573 10.1287C2.21253 11.6717 2.21253 14.1735 4.88573 15.7165L17.5929 23.0513C20.2661 24.5944 24.6002 24.5944 27.2734 23.0513L39.9805 15.7165C42.6537 14.1735 42.6537 11.6717 39.9805 10.1287L27.2734 2.79387C24.6002 1.25084 20.2661 1.25084 17.5929 2.79387L4.88573 10.1287Z" fill="#2E2E2E"/>
<path d="M22.8023 42.9944C24.0564 42.9944 25.4422 42.7319 27.0506 41.8034L35.5022 36.9241C39.3503 34.7025 42.4699 29.2999 42.4701 24.857L42.4705 15.0991C42.4706 10.6562 39.3513 8.85553 35.5032 11.0771L27.0516 15.9564C25.2731 16.9832 23.6501 18.6895 22.4189 20.6666C21.2077 18.7928 19.6454 17.1834 17.9399 16.1988L9.4883 11.3195C5.64023 9.09791 2.52089 10.8986 2.52106 15.3415L2.52143 25.0994C2.52159 29.5423 5.6412 34.9449 9.48927 37.1665L17.9409 42.0458C19.8217 43.1316 20.9586 42.9944 22.8023 42.9944Z" fill="#2E2E2E"/>
<path d="M6.67663 18.3438C6.66625 16.5016 7.95517 15.7479 9.5555 16.6603L17.1628 20.9974C18.7631 21.9097 20.0688 24.1427 20.0792 25.9848L20.1285 34.7414C20.1389 36.5835 18.85 37.3372 17.2497 36.4249L9.64242 32.0878C8.04208 31.1754 6.73634 28.9425 6.72596 27.1003L6.67663 18.3438Z" fill="#626262"/>
<path fill-rule="evenodd" clip-rule="evenodd" d="M17.1675 21.8312L9.5602 17.4942C8.35995 16.8099 7.39326 17.3752 7.40105 18.7568L7.45038 27.5133C7.45816 28.8949 8.43747 30.5697 9.63772 31.2539L17.245 35.591C18.4452 36.2753 19.4119 35.71 19.4041 34.3284L19.3548 25.5718C19.347 24.1902 18.3677 22.5155 17.1675 21.8312ZM9.5555 16.6603C7.95517 15.7479 6.66625 16.5016 6.67663 18.3438L6.72596 27.1003C6.73634 28.9425 8.04208 31.1754 9.64242 32.0878L17.2497 36.4249C18.85 37.3372 20.1389 36.5835 20.1285 34.7414L20.0792 25.9848C20.0688 24.1427 18.7631 21.9097 17.1628 20.9974L9.5555 16.6603Z" fill="#626262"/>
<path d="M38.1487 17.6646C38.1727 15.8226 36.8893 15.0595 35.2823 15.96L27.6433 20.2408C26.0363 21.1414 24.7141 23.3647 24.6901 25.2067L24.5762 33.9627C24.5523 35.8047 25.8356 36.5678 27.4426 35.6673L35.0817 31.3865C36.6887 30.4859 38.0108 28.2626 38.0348 26.4206L38.1487 17.6646Z" fill="#C4C4C4"/>
<path fill-rule="evenodd" clip-rule="evenodd" d="M27.6324 21.0747L35.2715 16.7938C36.4767 16.1184 37.4392 16.6908 37.4213 18.0723L37.3074 26.8283C37.2894 28.2098 36.2978 29.8772 35.0925 30.5526L27.4535 34.8335C26.2482 35.5089 25.2857 34.9365 25.3037 33.555L25.4176 24.799C25.4355 23.4175 26.4272 21.7501 27.6324 21.0747ZM35.2823 15.96C36.8893 15.0595 38.1727 15.8226 38.1487 17.6646L38.0348 26.4206C38.0108 28.2626 36.6887 30.4859 35.0817 31.3865L27.4426 35.6673C25.8356 36.5678 24.5523 35.8047 24.5762 33.9627L24.6901 25.2067C24.7141 23.3647 26.0363 21.1414 27.6433 20.2408L35.2823 15.96Z" fill="#C4C4C4"/>
</svg>
