<svg width="100" height="100" viewBox="0 0 100 100" fill="none" xmlns="http://www.w3.org/2000/svg">
<path d="M32.7686 70.2532L37.6774 52.8861H30.7444V29.7468H52.5051C61.8166 29.7468 69.2557 36.5823 69.2557 44.9873C69.2557 49.5949 67.029 53.7468 63.436 56.5316H67.9906V70.2532H32.7686ZM45.0153 46.1519C45.0153 48.7848 47.1408 50.9114 49.7217 50.9114C52.3026 50.9114 54.4787 48.7848 54.4787 46.1519C54.4787 43.519 52.3026 41.3924 49.7217 41.3924C47.1408 41.3924 45.0153 43.519 45.0153 46.1519Z" fill="#383532"/>
<path fill-rule="evenodd" clip-rule="evenodd" d="M26.4965 75L31.4053 57.6329H26V25H52.505C64.0167 25 74 33.5592 74 44.9873C74 47.3815 73.5516 49.6699 72.7333 51.7848H72.7348V75H26.4965ZM67.9905 56.5316H63.436C65.1274 55.2206 66.5161 53.6067 67.5122 51.7848C68.632 49.7367 69.2557 47.4258 69.2557 44.9873C69.2557 36.5823 61.8166 29.7468 52.505 29.7468H30.7443V52.8861H37.6774L32.7686 70.2532H67.9905V56.5316ZM49.7217 50.9114C47.1407 50.9114 45.0153 48.7848 45.0153 46.1519C45.0153 43.519 47.1407 41.3924 49.7217 41.3924C52.3026 41.3924 54.4787 43.519 54.4787 46.1519C54.4787 48.7848 52.3026 50.9114 49.7217 50.9114Z" fill="white"/>
</svg>
