<svg xmlns="http://www.w3.org/2000/svg" xmlns:xlink="http://www.w3.org/1999/xlink" xmlns:lucid="lucid" width="1353.75" height="635"><g transform="translate(-181.25 -62.5)" lucid:page-tab-id="8amG_L3ZhwHP"><path d="M201.25 88.5a6 6 0 0 1 6-6H794a6 6 0 0 1 6 6v583a6 6 0 0 1-6 6H207.25a6 6 0 0 1-6-6zM916.25 88.5a6 6 0 0 1 6-6H1509a6 6 0 0 1 6 6v583a6 6 0 0 1-6 6H922.25a6 6 0 0 1-6-6z" fill="#fff"/><path d="M266.25 259.5a6 6 0 0 1 6-6h458a6 6 0 0 1 6 6v48a6 6 0 0 1-6 6h-458a6 6 0 0 1-6-6z" stroke="#5e5e5e" stroke-width="3" fill="#fff"/><use xlink:href="#a" transform="matrix(1,0,0,1,276.25,259.48958333333337) translate(0 31.703993055555557)"/><use xlink:href="#b" transform="matrix(1,0,0,1,276.25,259.48958333333337) translate(86.15451388888889 31.703993055555557)"/><path d="M266.25 384.75a6 6 0 0 1 6-6h458a6 6 0 0 1 6 6v48a6 6 0 0 1-6 6h-458a6 6 0 0 1-6-6z" stroke="#5e5e5e" stroke-width="3" fill="#fff"/><use xlink:href="#c" transform="matrix(1,0,0,1,276.25,384.75000000000006) translate(0 31.703993055555557)"/><path d="M256.25 124.75a6 6 0 0 1 6-6h428a6 6 0 0 1 6 6v72.48a6 6 0 0 1-6 6h-428a6 6 0 0 1-6-6z" stroke="#000" stroke-opacity="0" stroke-width="3" fill="#fff" fill-opacity="0"/><use xlink:href="#d" transform="matrix(1,0,0,1,261.25,123.74999999999999) translate(6.171875 45.56640625)"/><use xlink:href="#e" transform="matrix(1,0,0,1,261.25,123.74999999999999) translate(126.85438368055554 45.56640625)"/><use xlink:href="#f" transform="matrix(1,0,0,1,261.25,123.74999999999999) translate(295.7454427083333 45.56640625)"/><path d="M266.25 219.5a6 6 0 0 1 6-6h428a6 6 0 0 1 6 6v28a6 6 0 0 1-6 6h-428a6 6 0 0 1-6-6z" stroke="#000" stroke-opacity="0" stroke-width="3" fill="#fff" fill-opacity="0"/><use xlink:href="#g" transform="matrix(1,0,0,1,271.25,218.48958333333331) translate(0 18.105468749999993)"/><path d="M266.25 344.75a6 6 0 0 1 6-6h428a6 6 0 0 1 6 6v28a6 6 0 0 1-6 6h-428a6 6 0 0 1-6-6z" stroke="#000" stroke-opacity="0" stroke-width="3" fill="#fff" fill-opacity="0"/><use xlink:href="#h" transform="matrix(1,0,0,1,271.25,343.75) translate(0 18.105468749999993)"/><path d="M271.25 470a6 6 0 0 1 6-6h263a6 6 0 0 1 6 6v28a6 6 0 0 1-6 6h-263a6 6 0 0 1-6-6z" fill="none"/><path d="M271.25 474h20v20h-20z" stroke="#5e5e5e" stroke-width="3" fill="#99d2f2"/><use xlink:href="#i" transform="matrix(1,0,0,1,303.25,464.0104166666665) translate(0 27.703993055555557)"/><use xlink:href="#j" transform="matrix(1,0,0,1,303.25,464.0104166666665) translate(77.47395833333333 27.703993055555557)"/><path d="M281.25 537.5c-8.28 0-15 6.72-15 15v20c0 8.28 6.72 15 15 15H510c8.28 0 15-6.72 15-15v-20c0-8.28-6.72-15-15-15z" stroke="#5e5e5e" stroke-width="3" fill="#fff"/><use xlink:href="#k" transform="matrix(1,0,0,1,276.25,542.5) translate(78.80989583333334 27.703993055555557)"/><use xlink:href="#l" transform="matrix(1,0,0,1,276.25,542.5) translate(139.79079861111111 27.703993055555557)"/><path d="M981.25 259.5a6 6 0 0 1 6-6h458a6 6 0 0 1 6 6v48a6 6 0 0 1-6 6h-458a6 6 0 0 1-6-6z" stroke="#5e5e5e" stroke-width="3" fill="#fff"/><use xlink:href="#a" transform="matrix(1,0,0,1,991.25,259.48958333333337) translate(0 31.703993055555557)"/><use xlink:href="#b" transform="matrix(1,0,0,1,991.25,259.48958333333337) translate(86.15451388888889 31.703993055555557)"/><path d="M981.25 384.75a6 6 0 0 1 6-6h458a6 6 0 0 1 6 6v48a6 6 0 0 1-6 6h-458a6 6 0 0 1-6-6z" stroke="#5e5e5e" stroke-width="3" fill="#fff"/><use xlink:href="#m" transform="matrix(1,0,0,1,991.25,384.75000000000006) translate(0 31.703993055555557)"/><path d="M971.25 124.75a6 6 0 0 1 6-6h428a6 6 0 0 1 6 6v72.48a6 6 0 0 1-6 6h-428a6 6 0 0 1-6-6z" stroke="#000" stroke-opacity="0" stroke-width="3" fill="#fff" fill-opacity="0"/><use xlink:href="#d" transform="matrix(1,0,0,1,976.25,123.74999999999999) translate(6.171875 45.56640625)"/><use xlink:href="#e" transform="matrix(1,0,0,1,976.25,123.74999999999999) translate(126.85438368055554 45.56640625)"/><use xlink:href="#f" transform="matrix(1,0,0,1,976.25,123.74999999999999) translate(295.7454427083333 45.56640625)"/><path d="M981.25 219.5a6 6 0 0 1 6-6h428a6 6 0 0 1 6 6v28a6 6 0 0 1-6 6h-428a6 6 0 0 1-6-6z" stroke="#000" stroke-opacity="0" stroke-width="3" fill="#fff" fill-opacity="0"/><use xlink:href="#g" transform="matrix(1,0,0,1,986.25,218.48958333333331) translate(0 18.105468749999993)"/><path d="M981.25 344.75a6 6 0 0 1 6-6h428a6 6 0 0 1 6 6v28a6 6 0 0 1-6 6h-428a6 6 0 0 1-6-6z" stroke="#000" stroke-opacity="0" stroke-width="3" fill="#fff" fill-opacity="0"/><use xlink:href="#h" transform="matrix(1,0,0,1,986.25,343.75) translate(0 18.105468749999993)"/><path d="M986.25 470a6 6 0 0 1 6-6h263a6 6 0 0 1 6 6v28a6 6 0 0 1-6 6h-263a6 6 0 0 1-6-6z" fill="none"/><path d="M986.25 474h20v20h-20z" stroke="#5e5e5e" stroke-width="3" fill="#99d2f2"/><path d="M990.25 482l4 6 8-8" stroke="#5e5e5e" stroke-width="3" fill="none"/><g><use xlink:href="#i" transform="matrix(1,0,0,1,1018.25,464.0104166666665) translate(0 27.703993055555557)"/><use xlink:href="#j" transform="matrix(1,0,0,1,1018.25,464.0104166666665) translate(77.47395833333333 27.703993055555557)"/></g><path d="M996.25 537.5c-8.28 0-15 6.72-15 15v20c0 8.28 6.72 15 15 15H1225c8.28 0 15-6.72 15-15v-20c0-8.28-6.72-15-15-15z" stroke="#5e5e5e" stroke-width="3" fill="#fff"/><g><use xlink:href="#k" transform="matrix(1,0,0,1,991.25,542.5) translate(78.80989583333334 27.703993055555557)"/><use xlink:href="#l" transform="matrix(1,0,0,1,991.25,542.5) translate(139.79079861111111 27.703993055555557)"/></g><path d="M538.67 482.67H864a6 6 0 0 0 6-6v-56.75a6 6 0 0 1 6-6h85.25M539.67 467.67v30" stroke="#5e5e5e" stroke-width="2" fill="none"/><path d="M976.5 413.92l-14.25 4.63v-9.27z" stroke="#5e5e5e" stroke-width="2" fill="#5e5e5e"/><defs><path fill="#333" d="M1162-1549c61 0 91 35 91 106v1181c0 10 11 29 33 57 3 29 10 53 10 87 0 70-34 105-101 105-33 0-72-56-149-139-255-276-538-531-816-792h-14l5 58c0 362 19 646 19 854 0 40-32 64-96 72C42 30 45-51 58-147l-5-43c-4-637-12-956-24-956-16 0-29-46-29-139 0-84 28-125 62-125 99 0 149 26 149 77 0 61 13 94 39 101 536 530 808 797 816 797h9v-922l-14-125c0-37 33-67 101-67" id="n"/><path fill="#333" d="M0-1411c19-46 47-72 91-67 64 7 101 40 96 86l-14 139c2 392 5 792 5 1176 0 41-29 66-87 77C34-7 5-35 5-82H0l5-81c-2-415 5-840-5-1248" id="o"/><path fill="#333" d="M374-1277c417-270 543-242 1028-72 22 21 33 50 33 87 0 73-34 118-101 134-463-122-800-83-1060 245-62 79-82 177-82 278-2 243 148 351 432 351 257 0 509-76 744-245 37-26 64-48 96-48 79 0 110 45 110 115 0 77-55 130-148 187-115 70-251 151-428 197C854-10 742 0 667 0 332 0 123-127 48-384 13-505 0-597 0-658c0-213 107-446 374-619" id="p"/><path fill="#333" d="M1334-1526c69-2 100 45 101 140h5c0 60-34 100-101 120L475-806v10c90 50 477 242 1162 576 16 15 24 39 24 72-21 102-59 153-115 153C1094-220 132-688 254-623c2 184 4 367 5 552 0 64-34 91-101 91-39 0-66-21-81-62 11-191 2-401 5-600-23-41-34-83-34-125C16-836 0-886 0-916c0-26 27-44 82-53-8-147-10-310-10-456 0-35 32-59 96-72 43 0 71 30 86 91l-4 20 4 393h10c697-355 1053-533 1070-533" id="q"/><path fill="#333" d="M1402-1391c55-3 96 28 96 96 0 46-60 79-168 129-318 148-472 242-476 250 12 37-13 62-33 96l9 758c-19 55-49 82-91 82-61 0-91-36-91-86 0-250 1-501-5-744h-9c-43 29-74 43-92 43-51-20-76-54-76-101l19-62c-215-107-367-176-456-207-19-19-29-40-29-62 0-57 29-110 86-159 19-2 29-5 29-9 12 0 230 96 653 288h14" id="r"/><g id="a"><use transform="matrix(0.010850694444444444,0,0,0.010850694444444444,0,0)" xlink:href="#n"/><use transform="matrix(0.010850694444444444,0,0,0.010850694444444444,15.733506944444445,0)" xlink:href="#o"/><use transform="matrix(0.010850694444444444,0,0,0.010850694444444444,20.399305555555557,0)" xlink:href="#p"/><use transform="matrix(0.010850694444444444,0,0,0.010850694444444444,39.17100694444444,0)" xlink:href="#q"/><use transform="matrix(0.010850694444444444,0,0,0.010850694444444444,59.02777777777778,0)" xlink:href="#r"/></g><path fill="#333" d="M192-1522c32 0 62 26 91 77 302-46 504-73 591-72 195 0 389 60 580 187 89 59 150 170 188 327l19 149c0 292-223 534-667 729-128 56-397 85-720 82-61 62-100 54-168-5-42-23-63-63-63-120 0-45 21-89 63-134l-5-879c-67-75-98-108-96-149H0c0-46 32-75 96-86 14-71 46-106 96-106zm86 365c-1 282 0 563 5 840 322 4 630-22 701-86 248-91 405-208 470-351 24-53 20-84 20-148 0-157-86-260-260-303-331-81-598-42-936 48" id="s"/><path fill="#333" d="M1037-1463c205 0 377 79 499 249 78 108 110 222 110 331 0 272-189 554-604 773C643 101 268 93 72-283c-175-336-55-591 216-868 135-138 326-229 557-288zM187-556c0 172 194 312 442 312 165 0 394-85 662-288 117-89 163-195 163-288 0-143-31-221-134-288-91-60-193-96-312-96-221 0-466 89-691 312-114 113-130 198-130 336" id="t"/><path fill="#333" d="M106-1504c88-41 67-36 163 0 299-1 595 5 888 5 45 0 100 79 115 177-17 58-60 86-130 87l-878 14c5 91 6 186 5 283h744c96-2 153 56 153 154 0 70-41 105-124 105H274v394c297 2 595 3 892 5 41 0 76 51 106 153 0 49-35 95-110 96L293-16c-21 61-54 91-101 91-52 0-87-43-106-130C32-137 5-185 5-199c0-43 32-73 96-91l-5-33v-375C32-756 0-807 0-851c0-46 30-75 91-87v-293c-80-78-159-245 15-273" id="u"/><g id="b"><use transform="matrix(0.010850694444444444,0,0,0.010850694444444444,0,0)" xlink:href="#s"/><use transform="matrix(0.010850694444444444,0,0,0.010850694444444444,19.856770833333332,0)" xlink:href="#t"/><use transform="matrix(0.010850694444444444,0,0,0.010850694444444444,38.302951388888886,0)" xlink:href="#u"/></g><path fill="#333" d="M379-1253c67 14 105 37 101 67l-19 158c78-31 130-53 149-53 49 0 80 23 91 68 0 41-46 86-139 134 1 6 33 25 96 58 66 68 63 129-58 144l-158-63c-9 151-30 226-63 226-10 13-26 19-48 19-34 0-58-34-72-101 5-39 6-84 5-129-11 0-63 29-158 86H96C32-666 0-710 0-773c0-29 51-63 154-101v-5L10-951 0-994c18-83 53-125 106-125 69 45 125 76 168 91 3-5 10-5 9-14l-5-149c0-27 34-48 101-62" id="v"/><g id="c"><use transform="matrix(0.010850694444444444,0,0,0.010850694444444444,0,0)" xlink:href="#v"/><use transform="matrix(0.010850694444444444,0,0,0.010850694444444444,9.223090277777777,0)" xlink:href="#v"/><use transform="matrix(0.010850694444444444,0,0,0.010850694444444444,18.446180555555554,0)" xlink:href="#v"/><use transform="matrix(0.010850694444444444,0,0,0.010850694444444444,27.66927083333333,0)" xlink:href="#v"/><use transform="matrix(0.010850694444444444,0,0,0.010850694444444444,36.89236111111111,0)" xlink:href="#v"/><use transform="matrix(0.010850694444444444,0,0,0.010850694444444444,46.115451388888886,0)" xlink:href="#v"/><use transform="matrix(0.010850694444444444,0,0,0.010850694444444444,55.338541666666664,0)" xlink:href="#v"/><use transform="matrix(0.010850694444444444,0,0,0.010850694444444444,64.56163194444444,0)" xlink:href="#v"/><use transform="matrix(0.010850694444444444,0,0,0.010850694444444444,73.78472222222221,0)" xlink:href="#v"/><use transform="matrix(0.010850694444444444,0,0,0.010850694444444444,83.00781249999999,0)" xlink:href="#v"/><use transform="matrix(0.010850694444444444,0,0,0.010850694444444444,92.23090277777776,0)" xlink:href="#v"/></g><path fill="#333" d="M518-1521c51 0 80 30 87 91h297c88 0 173 55 173 173 0 36-29 60-86 72H610c4 749 9 1123 14 1123 0 40-33 68-96 77-92-19-101-67-82-149-6-349-2-708-14-1051H274c-151 0-226-10-226-29-63-78-83-216 58-216h326c9-61 38-91 86-91" id="w"/><path fill="#333" d="M1142-1464c80 0 120 56 120 168 0 61-61 91-182 91-210 0-357 59-446 96-119 50-255 181-408 389-23 51-34 102-34 154 0 137 71 230 216 264 325 76 605 24 912-96l-5-216c-36 0-150 62-384 62-41 0-73-27-96-82 51-144 112-216 183-216 193 0 288-36 288-43 0-52 30-86 91-86 35 0 63 22 86 67 114-12 149 46 149 168 0 51-48 86-144 106 3 59 6 118 5 182 23-1 45-3 67-5 62-5 82 68 82 163 0 66-32 108-96 125-26 7-39 12-39 19 6 87-10 154-91 154-51 0-80-35-86-106L965-24C846-9 780-9 667-10c-275 0-439-63-513-177C58-335 0-493 0-672c0-245 175-489 547-686 162-86 368-106 595-106" id="x"/><path fill="#333" d="M38-1511c-1-44 38-81 106-81 89 0 89 79 77 163l5 58 19 1089h648c150 0 225 13 225 39 16 2 26 50 29 144-9 51-43 76-101 76-266-1-536 3-796-4-52 90-140 80-183-15C22-71 0-118 0-181c0-42 24-77 72-106l-5-19-14-1109" id="y"/><g id="d"><use transform="matrix(0.011935763888888888,0,0,0.011935763888888888,0,0)" xlink:href="#w"/><use transform="matrix(0.011935763888888888,0,0,0.011935763888888888,14.931640624999998,0)" xlink:href="#t"/><use transform="matrix(0.011935763888888888,0,0,0.011935763888888888,35.22243923611111,0)" xlink:href="#x"/><use transform="matrix(0.011935763888888888,0,0,0.011935763888888888,56.945529513888886,0)" xlink:href="#x"/><use transform="matrix(0.011935763888888888,0,0,0.011935763888888888,78.66861979166666,0)" xlink:href="#y"/><use transform="matrix(0.011935763888888888,0,0,0.011935763888888888,92.99153645833333,0)" xlink:href="#u"/></g><path fill="#333" d="M1046-1569c196 0 387 91 552 288 33 39 39 82 39 115 0 87-82 197-245 331-77 63-199 77-336 77-143 0-407-18-792-53 4 248 9 496 14 744 0 38-32 77-96 77-41 0-69-26-86-77l5-77-10-643c0-37-14-71-43-101l-5-43c0-93 14-139 43-139-5-48-4-101-4-154-27-58-82-91-82-172 0-29 26-56 77-82 0-45 31-82 96-82 25 0 52 21 81 63 285-34 549-72 792-72zm-787 336v182c386 35 671 53 855 53 162 0 267-42 316-125 9-101-40-136-158-168-407-18-496-10-1013 58" id="z"/><path fill="#333" d="M0-103c-2-13 43-88 115-182v-5c-17-23-28-52-33-86 31-110 75-153 182-144 365-536 547-819 547-850-18-74 24-122 111-163 77-37 120 25 158 130-1 34-10 60-14 91 198 483 308 744 331 782 145 25 179 132 91 235 23 91 51 165 86 221-5 76-44 115-100 115-67 0-105-45-116-134l-72-168c-313-10-635-3-945 5-16 1-58 80-154 216C129 43 20 9 5-103H0zm504-427v10h643l24-5v-10l-249-614h-10c-39 47-175 254-408 619" id="A"/><path fill="#333" d="M312-618C163-599 30-756 29-935c0-219 157-400 470-543l96-19c109 0 231 56 341 187 72 86 37 160-62 216-56 32-106-10-116-86l15-43c-53-29-111-43-173-43-120 0-243 77-370 230-19 46-26 78-24 125 0 18 26 29 77 33l499-76c235-29 376 43 442 249l14 91c0 130-59 283-206 432-271 275-657 282-926-4C26-271 0-344 0-378c13-61 40-92 82-92 33 0 78 37 134 111 131 97 267 145 418 144 123 0 262-89 393-283 53-79 32-148-53-202-153-4-265 31-662 82" id="B"/><path fill="#333" d="M1296-1521c57 9 86 34 86 77h5c-4 21-6 45-5 72l24 691c0 334-107 560-331 653C888 50 786 7 667-153h-5C577-51 494 0 413 0l-39 10C244 10 142-86 53-268c-23-48-43-277-43-696L0-1339c17-48 49-72 96-72 58 0 86 37 86 82h5l-5 24 10 753c0 141 51 240 154 298 133 12 208-51 211-216l9-514-14-388c28-45 60-68 96-68 57 13 86 36 86 68l5 873c13 27 22 67 29 120 41 83 77 120 134 120 117 0 216-85 288-259 22-52 29-113 29-178 0-256-19-504-19-744 0-47 32-74 96-81" id="C"/><path fill="#333" d="M1037-1519c186 0 353 66 489 211 52 56 72 129 72 206 0 183-139 313-417 389l-48 5-360-24v5l816 427c16 17 29 56 38 115-11 73-43 110-96 110-14 0-425-203-1233-609-5 1-17-4-15 5l5 667c0 35-27 67-82 67-49 0-83-21-100-62 8-252 3-517 0-773-64-19-96-67-96-144-17-79 11-126 96-139v-101c-35-19-59-53-72-101-58-86-47-156 81-173 0-19 26-36 77-53l77 34c370-41 626-62 768-62zm-754 480c-58 10 714 103 835 96 167-9 268-56 293-188-40-93-131-139-273-139-182 0-467 27-855 82v149" id="D"/><path fill="#333" d="M192-1522c32 0 62 26 91 77 302-46 504-73 591-72 195 0 389 60 580 187 89 59 150 170 188 327l19 149c0 292-223 534-667 729-128 56-397 85-720 82-61 62-100 54-168-5-42-23-63-63-63-120 0-45 21-89 63-134l-5-879c-67-75-98-108-96-149H0c0-46 32-75 96-86 14-71 46-106 96-106zm86 365c-1 282 0 563 5 840 322 4 630-22 701-86 248-91 405-208 470-351 24-53 20-84 20-148 0-157-86-260-260-303-331-81-598-42-936 48" id="E"/><g id="e"><use transform="matrix(0.011935763888888888,0,0,0.011935763888888888,0,0)" xlink:href="#z"/><use transform="matrix(0.011935763888888888,0,0,0.011935763888888888,21.484375,0)" xlink:href="#A"/><use transform="matrix(0.011935763888888888,0,0,0.011935763888888888,42.013888888888886,0)" xlink:href="#B"/><use transform="matrix(0.011935763888888888,0,0,0.011935763888888888,58.72395833333333,0)" xlink:href="#B"/><use transform="matrix(0.011935763888888888,0,0,0.011935763888888888,75.43402777777777,0)" xlink:href="#C"/><use transform="matrix(0.011935763888888888,0,0,0.011935763888888888,94.53125,0)" xlink:href="#t"/><use transform="matrix(0.011935763888888888,0,0,0.011935763888888888,114.8220486111111,0)" xlink:href="#D"/><use transform="matrix(0.011935763888888888,0,0,0.011935763888888888,136.30642361111111,0)" xlink:href="#E"/></g><path fill="#333" d="M1440-1338c73 21 110 72 110 153 0 27-48 86-129 188L778-191v14c35 59 52 98 52 116 0 58-37 86-86 86-33 0-64-21-91-62-22 5-38 17-58 24-57 0-105-54-105-164 0-20 14-49 43-86-114-232-280-533-499-902-65-68-38-159 76-159 41 0 73 40 96 120 184 309 331 570 442 783h5c8 0 163-194 465-581 156-199 249-310 279-331" id="F"/><path fill="#333" d="M911-1480c283 0 467 83 523 259 36 113-6 156-76 298-2 24 36 36 110 72 110 53 163 139 163 249l5 44c0 141-119 291-355 451-84 57-384 86-903 86H244c1 69-24 106-77 105-41 0-68-32-81-95-26 6-49-58-48-125 0-35 16-83 48-144-2-133-3-265-5-398-7 0-17-2-19 4-41-14-62-52-62-115 0-71 25-127 76-168-1-72-3-144-5-216-61-55-91-103-91-144 0-45 34-70 101-77 14-25 38-38 72-38l57 29c265-39 498-77 701-77zm-686 360v154h163c508 0 783-35 826-106 17 0 32-26 43-77 0-48-82-72-245-72-270 0-503 16-768 67-13 9-19 21-19 34zm5 432c5 134 0 277 9 408 541 0 851-16 903-48 221-73 331-153 331-240 0-137-147-206-442-206-472 0-738 65-801 86" id="G"/><path fill="#333" d="M518-1521c51 0 80 30 87 91h297c88 0 173 55 173 173 0 36-29 60-86 72H610c4 749 9 1123 14 1123 0 40-33 68-96 77-92-19-101-67-82-149-6-349-2-708-14-1051H274c-151 0-226-10-226-29-63-78-83-216 58-216h326c9-61 38-91 86-91" id="H"/><g id="f"><use transform="matrix(0.011935763888888888,0,0,0.011935763888888888,0,0)" xlink:href="#F"/><use transform="matrix(0.011935763888888888,0,0,0.011935763888888888,20.648871527777775,0)" xlink:href="#o"/><use transform="matrix(0.011935763888888888,0,0,0.011935763888888888,25.78125,0)" xlink:href="#B"/><use transform="matrix(0.011935763888888888,0,0,0.011935763888888888,42.49131944444444,0)" xlink:href="#o"/><use transform="matrix(0.011935763888888888,0,0,0.011935763888888888,47.623697916666664,0)" xlink:href="#G"/><use transform="matrix(0.011935763888888888,0,0,0.011935763888888888,69.46614583333333,0)" xlink:href="#o"/><use transform="matrix(0.011935763888888888,0,0,0.011935763888888888,74.59852430555556,0)" xlink:href="#y"/><use transform="matrix(0.011935763888888888,0,0,0.011935763888888888,88.92144097222223,0)" xlink:href="#o"/><use transform="matrix(0.011935763888888888,0,0,0.011935763888888888,94.05381944444446,0)" xlink:href="#H"/><use transform="matrix(0.011935763888888888,0,0,0.011935763888888888,108.98546006944446,0)" xlink:href="#r"/></g><path fill="#333" d="M926-1525c100 5 85 80 87 172l19 840c48 30 58 53 58 111 0 57-18 107-53 149 1 49 5 96 5 144 0 43-32 74-96 81-52 6-83-47-82-125h-10C637-26 540 25 408 25 233 25 120-61 67-234 32-351 14-434 14-484l-4-753-10-77c0-55 34-82 101-82 40 0 69 26 86 77l-5 34c2 232 5 462 5 696 0 197 45 318 139 355 21 8 49 5 77 5 31 0 183-72 456-216l-5-72c-6-545-24-853-24-927 0-44 32-71 96-81" id="I"/><path fill="#333" d="M1162-1549c61 0 91 35 91 106v1181c0 10 11 29 33 57 3 29 10 53 10 87 0 70-34 105-101 105-33 0-72-56-149-139-255-276-538-531-816-792h-14l5 58c0 362 19 646 19 854 0 40-32 64-96 72C42 30 45-51 58-147l-5-43c-4-637-12-956-24-956-16 0-29-46-29-139 0-84 28-125 62-125 99 0 149 26 149 77 0 61 13 94 39 101 536 530 808 797 816 797h9v-922l-14-125c0-37 33-67 101-67" id="J"/><path fill="#333" d="M1507-1522c43 0 68 35 77 106 37 0 72 39 72 120 0 47-22 87-67 120l19 1099c0 35-30 60-91 77-89-13-86-70-87-158l-14-912c-2-4-7-6-14-5l-336 197c-19 102-60 153-125 153-31-11-58-24-91-33l-63 28c-36 0-90-51-163-153-224-116-328-174-346-173l20 974c0 51-32 82-96 82-51 0-81-32-82-96l-19-1056C34-1227 0-1291 0-1344c25-51 53-77 86-77 21-54 53-81 96-81 65 0 98 34 96 72l-4 100c269 142 453 235 552 279 77-35 272-136 585-303-17-89 6-168 96-168" id="K"/><g id="g"><use transform="matrix(0.009765624999999997,0,0,0.009765624999999997,0,0)" xlink:href="#I"/><use transform="matrix(0.009765624999999997,0,0,0.009765624999999997,12.011718749999996,0)" xlink:href="#B"/><use transform="matrix(0.009765624999999997,0,0,0.009765624999999997,25.68359374999999,0)" xlink:href="#u"/><use transform="matrix(0.009765624999999997,0,0,0.009765624999999997,39.550781249999986,0)" xlink:href="#D"/><use transform="matrix(0.009765624999999997,0,0,0.009765624999999997,57.12890624999998,0)" xlink:href="#J"/><use transform="matrix(0.009765624999999997,0,0,0.009765624999999997,71.28906249999997,0)" xlink:href="#A"/><use transform="matrix(0.009765624999999997,0,0,0.009765624999999997,88.08593749999997,0)" xlink:href="#K"/><use transform="matrix(0.009765624999999997,0,0,0.009765624999999997,105.85937499999999,0)" xlink:href="#u"/></g><g id="h"><use transform="matrix(0.009765624999999997,0,0,0.009765624999999997,0,0)" xlink:href="#z"/><use transform="matrix(0.009765624999999997,0,0,0.009765624999999997,17.578124999999993,0)" xlink:href="#A"/><use transform="matrix(0.009765624999999997,0,0,0.009765624999999997,34.374999999999986,0)" xlink:href="#B"/><use transform="matrix(0.009765624999999997,0,0,0.009765624999999997,48.046874999999986,0)" xlink:href="#B"/><use transform="matrix(0.009765624999999997,0,0,0.009765624999999997,61.71874999999997,0)" xlink:href="#C"/><use transform="matrix(0.009765624999999997,0,0,0.009765624999999997,77.34374999999997,0)" xlink:href="#t"/><use transform="matrix(0.009765624999999997,0,0,0.009765624999999997,93.94531249999997,0)" xlink:href="#D"/><use transform="matrix(0.009765624999999997,0,0,0.009765624999999997,111.52343749999997,0)" xlink:href="#E"/></g><path fill="#333" d="M312-618C163-599 30-756 29-935c0-219 157-400 470-543l96-19c109 0 231 56 341 187 72 86 37 160-62 216-56 32-106-10-116-86l15-43c-53-29-111-43-173-43-120 0-243 77-370 230-19 46-26 78-24 125 0 18 26 29 77 33l499-76c235-29 376 43 442 249l14 91c0 130-59 283-206 432-271 275-657 282-926-4C26-271 0-344 0-378c13-61 40-92 82-92 33 0 78 37 134 111 131 97 267 145 418 144 123 0 262-89 393-283 53-79 32-148-53-202-153-4-265 31-662 82" id="L"/><path fill="#333" d="M1210-1486c99 13 86 72 86 163 0 211 5 420 5 633 48 31 72 59 72 82 0 97-34 144-72 144-1 143 3 282 5 422 0 46-31 74-92 81-89 10-81-88-81-172 0-98-6-199-5-302l-845 5-14 4v293l5 5c-11 67-39 100-96 96-55-4-82-32-82-77h-5c12-97-1-213 0-317-61-11-91-41-91-91 0-67 30-123 91-168-7-228-5-464-9-696 9-45 41-67 96-67 43 0 71 21 86 62l-5 63 5 629c286 2 570 5 859 4 3-239 0-486 0-724 0-39 29-63 87-72" id="M"/><g id="i"><use transform="matrix(0.010850694444444444,0,0,0.010850694444444444,0,0)" xlink:href="#L"/><use transform="matrix(0.010850694444444444,0,0,0.010850694444444444,15.190972222222221,0)" xlink:href="#M"/><use transform="matrix(0.010850694444444444,0,0,0.010850694444444444,31.901041666666664,0)" xlink:href="#t"/><use transform="matrix(0.010850694444444444,0,0,0.010850694444444444,50.34722222222221,0)" xlink:href="#C"/></g><g id="j"><use transform="matrix(0.010850694444444444,0,0,0.010850694444444444,0,0)" xlink:href="#z"/><use transform="matrix(0.010850694444444444,0,0,0.010850694444444444,19.53125,0)" xlink:href="#A"/><use transform="matrix(0.010850694444444444,0,0,0.010850694444444444,38.19444444444444,0)" xlink:href="#B"/><use transform="matrix(0.010850694444444444,0,0,0.010850694444444444,53.385416666666664,0)" xlink:href="#B"/><use transform="matrix(0.010850694444444444,0,0,0.010850694444444444,68.57638888888889,0)" xlink:href="#C"/><use transform="matrix(0.010850694444444444,0,0,0.010850694444444444,85.9375,0)" xlink:href="#t"/><use transform="matrix(0.010850694444444444,0,0,0.010850694444444444,104.38368055555556,0)" xlink:href="#D"/><use transform="matrix(0.010850694444444444,0,0,0.010850694444444444,123.91493055555556,0)" xlink:href="#E"/></g><path fill="#333" d="M38-1511c-1-44 38-81 106-81 89 0 89 79 77 163l5 58 19 1089h648c150 0 225 13 225 39 16 2 26 50 29 144-9 51-43 76-101 76-266-1-536 3-796-4-52 90-140 80-183-15C22-71 0-118 0-181c0-42 24-77 72-106l-5-19-14-1109" id="N"/><g id="k"><use transform="matrix(0.010850694444444444,0,0,0.010850694444444444,0,0)" xlink:href="#N"/><use transform="matrix(0.010850694444444444,0,0,0.010850694444444444,13.020833333333332,0)" xlink:href="#t"/><use transform="matrix(0.010850694444444444,0,0,0.010850694444444444,31.46701388888889,0)" xlink:href="#x"/></g><g id="l"><use transform="matrix(0.010850694444444444,0,0,0.010850694444444444,0,0)" xlink:href="#o"/><use transform="matrix(0.010850694444444444,0,0,0.010850694444444444,4.665798611111111,0)" xlink:href="#J"/></g><path fill="#333" d="M1027-1444c327-48 537 87 677 365 8 48 14 46 48 38 110 23 106 144 10 178-19 0-29 30-29 91 0 77-45 185-139 298-187 224-375 358-533 413C881 2 743 25 653 25c-202 0-369-94-480-293-33-59-41-95-48-96l-53 15C23-365-1-408 0-479c0-33 34-57 101-72-5-237 107-441 355-653 148-126 343-206 571-240zM283-599h10c210-55 623-181 1238-379v-5c-99-141-243-211-432-211-203 0-429 85-653 283-117 103-163 216-163 312zm39 173v9c93 133 211 183 393 183 185 0 427-92 696-307 99-79 135-175 135-255" id="O"/><path fill="#333" d="M1046-1569c196 0 387 91 552 288 33 39 39 82 39 115 0 87-82 197-245 331-77 63-199 77-336 77-143 0-407-18-792-53 4 248 9 496 14 744 0 38-32 77-96 77-41 0-69-26-86-77l5-77-10-643c0-37-14-71-43-101l-5-43c0-93 14-139 43-139-5-48-4-101-4-154-27-58-82-91-82-172 0-29 26-56 77-82 0-45 31-82 96-82 25 0 52 21 81 63 285-34 549-72 792-72zm-787 336v182c386 35 671 53 855 53 162 0 267-42 316-125 9-101-40-136-158-168-407-18-496-10-1013 58" id="P"/><path fill="#333" d="M216-1328c248-96 451-94 619 67 48 46 67 104 67 164 0 66-30 149-91 249v5c99 21 179 55 221 115 109 155 72 272-24 447-53 97-169 175-341 235-175 61-341 91-499 91C65 45 14 16 14-41c-6 0-9-18-9-53H0c11-71 42-114 91-106l91 15c145 0 358-61 639-183 75-94 96-111 96-197 0-60-54-100-163-120H648c-134 0-219 18-254 53-81-1-131-42-125-101 8-77 45-115 96-115 7-10 26 0 38 0 202-50 303-106 303-168 19-36 20-53 19-96 10-41-88-72-178-72-121 0-249 45-384 135-69 16-110-22-110-101 0-87 57-137 163-178" id="Q"/><path fill="#333" d="M182-1516c59 0 87 37 87 82h509c58-6 110 70 110 158 0 56-40 91-120 91H274l4 274c322-31 516-49 605-48 147 0 264 69 351 206 15 43 19 72 19 115 0 150-102 318-331 466C703-31 550 18 418 15c-3 5-7 5-10 0C220 20 99-68 19-249c23-57 58-86 106-86 33 0 65 26 96 77 36 33 116 49 230 48 149 0 339-100 557-312 43-42 58-83 58-111 0-49-33-81-96-81-222 0-451 21-687 62 6 78-31 130-86 130-48 0-80-37-96-111-29 0-58-59-87-177 0-37 31-66 92-87-10-94-3-205-5-307l-91-106c-27-66 6-110 86-129 14-51 43-77 86-77" id="R"/><path fill="#333" d="M758-1537c274 0 461 150 562 451l24 187c0 207-70 391-211 552-36 13-65 19-87 19-64 0-112-78-144-235h-4c-211 163-442 226-586-14-18-56-24-87-24-130 0-137 85-263 269-350 123-58 208-63 331-10l72-9c64 0 91 27 96 81l29 331h14c46-100 58-169 58-278 0-173-83-300-259-336-275-56-452 47-610 269-66 93-91 204-91 321 0 159 63 257 182 312 73 34 106 87 106 140 0 49-43 86-130 86-158 0-273-162-345-485L0-726c0-217 89-440 298-638 133-126 296-173 460-173zM470-764c-32 68-14 137 77 144h58c183-64 259-103 259-207 0-42-48-77-134-77-93 0-180 47-260 140" id="S"/><path fill="#333" d="M274-1546c57 0 102 19 134 58-38 76-112 763-130 1018-54 54-189 39-225-24 17 0 51-226 101-677l33-341c16-17 45-34 87-34zM120-245c63 0 120 42 120 130 0 67-40 105-120 115C38-19-5-54 0-115c7-87 50-130 120-130" id="T"/><g id="m"><use transform="matrix(0.010850694444444444,0,0,0.010850694444444444,0,0)" xlink:href="#O"/><use transform="matrix(0.010850694444444444,0,0,0.010850694444444444,21.158854166666664,0)" xlink:href="#P"/><use transform="matrix(0.010850694444444444,0,0,0.010850694444444444,40.690104166666664,0)" xlink:href="#Q"/><use transform="matrix(0.010850694444444444,0,0,0.010850694444444444,54.25347222222222,0)" xlink:href="#J"/><use transform="matrix(0.010850694444444444,0,0,0.010850694444444444,69.98697916666667,0)" xlink:href="#B"/><use transform="matrix(0.010850694444444444,0,0,0.010850694444444444,85.17795138888889,0)" xlink:href="#u"/><use transform="matrix(0.010850694444444444,0,0,0.010850694444444444,100.5859375,0)" xlink:href="#R"/><use transform="matrix(0.010850694444444444,0,0,0.010850694444444444,115.77690972222224,0)" xlink:href="#S"/><use transform="matrix(0.010850694444444444,0,0,0.010850694444444444,132.59548611111111,0)" xlink:href="#K"/><use transform="matrix(0.010850694444444444,0,0,0.010850694444444444,152.34375,0)" xlink:href="#u"/><use transform="matrix(0.010850694444444444,0,0,0.010850694444444444,167.75173611111111,0)" xlink:href="#T"/></g></defs></g></svg>