<svg xmlns="http://www.w3.org/2000/svg" xmlns:xlink="http://www.w3.org/1999/xlink" xmlns:lucid="lucid" width="1760" height="1207.83"><g transform="translate(-20 -20)" lucid:page-tab-id="LcIDyrhHLv8R"><path d="M199.75 179.75c0 10.9-8.84 19.75-19.75 19.75-10.9 0-19.75-8.84-19.75-19.75 0-10.9 8.84-19.75 19.75-19.75 10.9 0 19.75 8.84 19.75 19.75z" stroke="#5e5e5e" stroke-width="3" fill="#fff"/><path d="M180 199.5v49.3a20.7 20.7 0 0 0 3.2 11.07L220 318m-40-63.2L140 318m0-98.75h80" stroke="#5e5e5e" stroke-width="3" fill="none"/><path d="M140 166a6 6 0 0 1 6-6h68a6 6 0 0 1 6 6v168a6 6 0 0 1-6 6h-68a6 6 0 0 1-6-6z" fill="none"/><use xlink:href="#a" transform="matrix(1,0,0,1,60,318) translate(88.26171875 20.1171875)"/><path d="M40 46a6 6 0 0 1 6-6h828a6 6 0 0 1 6 6v77.44a6 6 0 0 1-6 6H46a6 6 0 0 1-6-6z" stroke="#000" stroke-opacity="0" stroke-width="3" fill="#fff" fill-opacity="0"/><use xlink:href="#b" transform="matrix(1,0,0,1,45,45) translate(0 52.187499999999986)"/><use xlink:href="#c" transform="matrix(1,0,0,1,45,45) translate(175.5381944444444 52.187499999999986)"/><use xlink:href="#d" transform="matrix(1,0,0,1,45,45) translate(421.1979166666665 52.187499999999986)"/><path d="M559.68 219v2l-104.1-.2v-2zm-233.77-.44v2l-104.9-.2v-2z" stroke="#5e5e5e" stroke-width=".05" fill="#5e5e5e"/><path d="M221.03 218.36v2H220v-2z" fill="#5e5e5e"/><path d="M221.05 218.34v2.05l-1.08-.02v-2.05zm-1.03 2h.98v-1.95l-.97-.02zM561.5 220l-18.7 11-1-1.72 15.77-9.3-15.74-9.34 1.02-1.72z" stroke="#5e5e5e" stroke-width=".05" fill="#5e5e5e"/><use xlink:href="#e" transform="matrix(1,0,0,1,325.90625,209.7489785945973) translate(0.0049999999999954525 16.09375)"/><use xlink:href="#f" transform="matrix(1,0,0,1,325.90625,209.7489785945973) translate(91.84527777777778 16.09375)"/><path d="M680 210c0 27.6-22.4 50-50 50s-50-22.4-50-50 22.4-50 50-50 50 22.4 50 50z" stroke="#5e5e5e" stroke-width="3" fill="#99d2f2"/><path d="M560 160v100m0-50h20" stroke="#5e5e5e" stroke-width="3" fill="none"/><use xlink:href="#g" transform="matrix(1,0,0,1,540,260) translate(54.35004340277778 20.1171875)"/><path d="M1140 219.67c0 27.6-22.4 50-50 50s-50-22.4-50-50 22.4-50 50-50 50 22.4 50 50z" stroke="#5e5e5e" stroke-width="3" fill="#c7e8ac"/><path d="M1100 163.67l-10 6 10 7.2" stroke="#5e5e5e" stroke-width="3" fill="none"/><use xlink:href="#h" transform="matrix(1,0,0,1,1000,269.6695704637807) translate(50.172526041666664 20.1171875)"/><use xlink:href="#i" transform="matrix(1,0,0,1,1000,269.6695704637807) translate(23.485243055555557 44.943576388888886)"/><path d="M820.03 215.54H682.28v-2h137.75zm216.9 0H846.77v-2h190.18z" stroke="#5e5e5e" stroke-width=".05" fill="#5e5e5e"/><path d="M682.3 215.54h-1.1l.04-.34.1-1.66h.96z" fill="#5e5e5e"/><path d="M682.33 215.56h-1.17l.06-.36.08-1.7h1.03zm-.98-2l-.08 1.65-.05.3h1.06v-1.94zM1038.75 214.54l-18.67 11.04-1-1.72 15.75-9.32-15.76-9.32 1-1.72z" stroke="#5e5e5e" stroke-width=".05" fill="#5e5e5e"/><use xlink:href="#j" transform="matrix(1,0,0,1,820.0257788700254,204.60833406250353) translate(0.005000000000000782 16.09375)"/><path d="M680 430c0 27.6-22.4 50-50 50s-50-22.4-50-50 22.4-50 50-50 50 22.4 50 50z" stroke="#5e5e5e" stroke-width="3" fill="#99d2f2"/><path d="M560 380v100m0-50h20" stroke="#5e5e5e" stroke-width="3" fill="none"/><use xlink:href="#k" transform="matrix(1,0,0,1,540,480) translate(23.257378472222214 20.1171875)"/><use xlink:href="#l" transform="matrix(1,0,0,1,540,480) translate(23.485243055555557 44.943576388888886)"/><path d="M661.45 388.06l-.68-1.88 161.95-58.33h5.9zM1046.5 249.4L883.76 308h-5.9l167.95-60.5z" stroke="#5e5e5e" stroke-width=".05" fill="#5e5e5e"/><path d="M1046.63 247.46l1.07 1.5-1.23.44-.68-1.9.7-.25z" fill="#5e5e5e"/><path d="M1046.65 247.45l1.1 1.52-1.3.46-.7-1.93.78-.28zm-.83.08l.66 1.83 1.18-.42-1.05-1.47-.1-.2zM674.76 372.3l-11.66 14.1 17.98 3.43-.37 1.97-21.3-4.07 13.82-16.7z" stroke="#5e5e5e" stroke-width=".05" fill="#5e5e5e"/><use xlink:href="#m" transform="matrix(1,0,0,1,808.6723167017315,307.98946101771884) translate(0 16.09375)"/><use xlink:href="#n" transform="matrix(1,0,0,1,808.6723167017315,307.98946101771884) translate(51.30208333333333 16.09375)"/><path d="M1140 430c0 27.6-22.4 50-50 50s-50-22.4-50-50 22.4-50 50-50 50 22.4 50 50z" stroke="#5e5e5e" stroke-width="3" fill="#c7e8ac"/><path d="M1100 374l-10 6 10 7.2" stroke="#5e5e5e" stroke-width="3" fill="none"/><use xlink:href="#h" transform="matrix(1,0,0,1,1000,480) translate(50.172526041666664 20.1171875)"/><use xlink:href="#o" transform="matrix(1,0,0,1,1000,480) translate(18.114149305555557 44.943576388888886)"/><path d="M1036.9 433.54v2l-151.45-.17v-2zm-202.32-.22v2l-152.3-.17.02-2z" stroke="#5e5e5e" stroke-width=".05" fill="#5e5e5e"/><path d="M682.32 433.15v2h-1.08l.1-2z" fill="#5e5e5e"/><path d="M682.35 433.13v2.05h-1.13l.1-2.05zm-1.08 2h1.02v-1.95h-.93zM1038.73 434.54l-18.68 11.02-1.02-1.72 15.77-9.3-15.75-9.34 1.02-1.72z" stroke="#5e5e5e" stroke-width=".05" fill="#5e5e5e"/><use xlink:href="#p" transform="matrix(1,0,0,1,834.5788957683371,424.41423627876577) translate(0.004999999999999005 16.09375)"/><path d="M660 670c0 27.6-22.4 50-50 50s-50-22.4-50-50 22.4-50 50-50 50 22.4 50 50z" stroke="#5e5e5e" stroke-width="3" fill="#99d2f2"/><path d="M540 620v100m0-50h20" stroke="#5e5e5e" stroke-width="3" fill="none"/><use xlink:href="#k" transform="matrix(1,0,0,1,520,720) translate(23.257378472222214 20.1171875)"/><use xlink:href="#q" transform="matrix(1,0,0,1,520,720) translate(18.114149305555557 44.943576388888886)"/><path d="M657 645.1l-.82-1.82 173.88-77.07H835zm397.42-176.15l-174.62 77.4h-4.93l178.74-79.23z" stroke="#5e5e5e" stroke-width=".05" fill="#5e5e5e"/><path d="M1055.73 468.37l-1.33.6-.8-1.84.54-.24z" fill="#5e5e5e"/><path d="M1055.77 468.38l-1.38.6-.84-1.86.58-.26zm-2.15-1.24l.8 1.8 1.26-.58-1.55-1.44zM669.15 628.43l-10.63 14.9 18.18 2.14-.23 2-21.54-2.54 12.6-17.66z" stroke="#5e5e5e" stroke-width=".05" fill="#5e5e5e"/><use xlink:href="#m" transform="matrix(1,0,0,1,810.3550633029799,546.3487813727476) translate(0 16.09375)"/><use xlink:href="#r" transform="matrix(1,0,0,1,810.3550633029799,546.3487813727476) translate(51.30208333333333 16.09375)"/><path d="M1140 670c0 27.6-22.4 50-50 50s-50-22.4-50-50 22.4-50 50-50 50 22.4 50 50z" stroke="#5e5e5e" stroke-width="3" fill="#c7e8ac"/><path d="M1100 614l-10 6 10 7.2" stroke="#5e5e5e" stroke-width="3" fill="none"/><use xlink:href="#s" transform="matrix(1,0,0,1,1000,720) translate(40.027126736111114 20.1171875)"/><path d="M824.57 675.54h-162.3v-2h162.3zm212.34 0H875.45v-2h161.47z" stroke="#5e5e5e" stroke-width=".05" fill="#5e5e5e"/><path d="M662.3 675.54h-1.1l.04-.34.1-1.66h.96z" fill="#5e5e5e"/><path d="M662.33 675.56h-1.17l.06-.36.08-1.7h1.03zm-.98-2l-.08 1.65-.05.3h1.06v-1.94zM1038.73 674.54l-18.67 11.04-1.02-1.72 15.76-9.32-15.76-9.32 1.02-1.72z" stroke="#5e5e5e" stroke-width=".05" fill="#5e5e5e"/><use xlink:href="#t" transform="matrix(1,0,0,1,824.56921006739,664.6083340625036) translate(0.004999999999999005 16.09375)"/><path d="M1440 690c0 27.6-22.4 50-50 50s-50-22.4-50-50 22.4-50 50-50 50 22.4 50 50z" stroke="#5e5e5e" stroke-width="3" fill="#ffbbb1"/><path d="M1400 634l-10 6 10 7.2" stroke="#5e5e5e" stroke-width="3" fill="none"/><use xlink:href="#u" transform="matrix(1,0,0,1,1300,740) translate(40.027126736111114 20.1171875)"/><use xlink:href="#v" transform="matrix(1,0,0,1,1300,740) translate(31.780598958333336 44.943576388888886)"/><path d="M1360.58 731.84l28.47 9.35" stroke="#5e5e5e" stroke-width="2" fill="none"/><path d="M1357.2 729.67l3.3 2.5-.2.63-3.84-1.26.63-1.9zM1393.16 741.5l-.62 1.9-3.83-1.27.24-.68 1.05.05 2.9-.1z" stroke="#5e5e5e" stroke-width=".05" fill="#5e5e5e"/><path d="M1760 890c0 27.6-22.4 50-50 50s-50-22.4-50-50 22.4-50 50-50 50 22.4 50 50z" stroke="#5e5e5e" stroke-width="3" fill="#c7e8ac"/><path d="M1720 834l-10 6 10 7.2" stroke="#5e5e5e" stroke-width="3" fill="none"/><use xlink:href="#w" transform="matrix(1,0,0,1,1620,940) translate(61.6796875 20.1171875)"/><path d="M1140 910c0 27.6-22.4 50-50 50s-50-22.4-50-50 22.4-50 50-50 50 22.4 50 50z" stroke="#5e5e5e" stroke-width="3" fill="#c7e8ac"/><path d="M1100 854l-10 6 10 7.2" stroke="#5e5e5e" stroke-width="3" fill="none"/><use xlink:href="#x" transform="matrix(1,0,0,1,1000,960) translate(35.85503472222222 20.1171875)"/><path d="M1092.07 858.07l-1.1-1.66 106.63-71.14h3.6zM1338.3 693.8L1231 765.4h-3.6l109.82-73.27z" stroke="#5e5e5e" stroke-width=".05" fill="#5e5e5e"/><path d="M1338.63 693.6l-.34.2-1.12-1.65 1.36-.9z" fill="#5e5e5e"/><path d="M1338.65 693.6l-.37.25-1.14-1.7 1.43-.96zm-1.44-1.45l1.1 1.63.3-.2-.08-2.3zM1101.2 839.57l-7.93 16.5 18.28-1 .1 2-21.65 1.18 9.4-19.55z" stroke="#5e5e5e" stroke-width=".05" fill="#5e5e5e"/><use xlink:href="#y" transform="matrix(1,0,0,1,1162.859816311631,765.400075712754) translate(0.005000000000002558 16.09375)"/><path d="M1665.87 860.1l-1.06 1.68-100.3-62.67h3.78zm-129.37-80.85h-3.78l-98.28-61.4 1.06-1.7z" stroke="#5e5e5e" stroke-width=".05" fill="#5e5e5e"/><path d="M1435.52 716.16l-1.06 1.7-.86-.55 1.04-1.7z" fill="#5e5e5e"/><path d="M1435.56 716.15l-1.1 1.74-.9-.58 1.08-1.75zm-1.93 1.15l.82.52 1.04-1.66-.85-.52zM1666.9 861.9l-21.7-.53.05-2 18.3.45-8.42-16.26 1.77-.92z" stroke="#5e5e5e" stroke-width=".05" fill="#5e5e5e"/><use xlink:href="#z" transform="matrix(1,0,0,1,1482.0570245783197,779.2487931224899) translate(0.0049999999999954525 16.09375)"/><path d="M1440 1110c0 27.6-22.4 50-50 50s-50-22.4-50-50 22.4-50 50-50 50 22.4 50 50z" stroke="#5e5e5e" stroke-width="3" fill="#c7e8ac"/><path d="M1400 1054l-10 6 10 7.2" stroke="#5e5e5e" stroke-width="3" fill="none"/><use xlink:href="#A" transform="matrix(1,0,0,1,1300,1160) translate(25.92122395833333 20.1171875)"/><use xlink:href="#B" transform="matrix(1,0,0,1,1300,1160) translate(136.06662326388889 20.1171875)"/><use xlink:href="#C" transform="matrix(1,0,0,1,1300,1160) translate(35.849609375 44.943576388888886)"/><g filter="url(#D)"><path d="M1380 650c0 16.57-13.43 30-30 30s-30-13.43-30-30 13.43-30 30-30 30 13.43 30 30z" stroke="#5e5e5e" stroke-width="3" fill="#ff8f80"/><use xlink:href="#E" transform="matrix(1,0,0,1,1325,625) translate(17.94704861111111 32.6171875)"/></g><g filter="url(#D)"><path d="M1160 650c0 16.57-13.43 30-30 30s-30-13.43-30-30 13.43-30 30-30 30 13.43 30 30z" stroke="#5e5e5e" stroke-width="3" fill="#ffdba9"/><use xlink:href="#F" transform="matrix(1,0,0,1,1105,625) translate(17.296006944444443 32.6171875)"/></g><g filter="url(#D)"><path d="M1160 394.83c0 16.57-13.43 30-30 30s-30-13.43-30-30c0-16.56 13.43-30 30-30s30 13.44 30 30z" stroke="#5e5e5e" stroke-width="3" fill="#ffdba9"/><use xlink:href="#F" transform="matrix(1,0,0,1,1105,369.83478523189035) translate(17.296006944444443 32.6171875)"/></g><g filter="url(#D)"><path d="M1160 190c0 16.57-13.43 30-30 30s-30-13.43-30-30 13.43-30 30-30 30 13.43 30 30z" stroke="#5e5e5e" stroke-width="3" fill="#ffdba9"/><use xlink:href="#F" transform="matrix(1,0,0,1,1105,165) translate(17.296006944444443 32.6171875)"/></g><path d="M660 910c0 27.6-22.4 50-50 50s-50-22.4-50-50 22.4-50 50-50 50 22.4 50 50z" stroke="#5e5e5e" stroke-width="3" fill="#99d2f2"/><path d="M540 860v100m0-50h20" stroke="#5e5e5e" stroke-width="3" fill="none"/><use xlink:href="#G" transform="matrix(1,0,0,1,520,960) translate(-19.803602430555557 20.1171875)"/><use xlink:href="#q" transform="matrix(1,0,0,1,520,960) translate(18.114149305555557 44.943576388888886)"/><path d="M1038.32 675.9L654.2 880.5l-.94-1.77 384.12-204.6z" stroke="#5e5e5e" stroke-width=".05" fill="#5e5e5e"/><path d="M1039.2 675.42l-.9.48-.94-1.76.9-.48zM665.12 863l-9.53 15.62 18.28.82-.1 2-21.66-.97 11.3-18.52z" stroke="#5e5e5e" stroke-width=".05" fill="#5e5e5e"/><path d="M1162.25 653.08h155.45" stroke="#5e5e5e" stroke-width="2" fill="none"/><path d="M1162.28 654.08h-1.1l.15-2h.95zM1318.58 652.3l.28 1.78h-1.18v-2h.9zM595.1 578.6l1.06.26 1.02.42.94.57.83.7.72.85.57.94.42 1 .26 1.08.08 1.06v32.22h-2v-32.15l-.07-.82-.18-.76-.3-.72-.4-.67-.52-.6-.6-.5-.66-.42-.73-.3-.76-.18-.82-.06H436.04l-.82.06-.76.18-.73.3-.67.4-.6.52-.5.6-.4.67-.3.72-.2.76-.06.82v520.82l.06.82.2.75.3.73.4.67.5.6.6.5.67.4.73.3.76.2.82.06h901.54v2H435.96l-1.06-.07-1.06-.26-1.02-.42-.94-.57-.83-.72-.72-.83-.57-.94-.42-1.02-.26-1.07-.08-1.05V585.48l.08-1.06.26-1.07.42-1 .57-.95.72-.84.83-.7.94-.58 1.02-.42 1.06-.26 1.06-.08h158.08z" stroke="#5e5e5e" stroke-width=".05" fill="#5e5e5e"/><path d="M1338.62 1113.4h-1.06v-2h1z" fill="#5e5e5e"/><path d="M1338.64 1113.44h-1.1v-2.05h1.03zm-1.06-2v1.95h1l-.05-1.96zM611.04 600.85L600 619.52l-11.04-18.67 1.72-1.02L600 615.6l9.32-15.77z" stroke="#5e5e5e" stroke-width=".05" fill="#5e5e5e"/><path d="M1134.12 938.38l212.03 141.3" stroke="#5e5e5e" stroke-width="2" fill="none"/><path d="M1134.7 937.56l-1.12 1.67-.82-.55 1.05-1.7z" stroke="#5e5e5e" stroke-width=".05" fill="#5e5e5e"/><path d="M1326.05 1078.53l19.97 1.08-8.67-18M1666.22 918.93L1433.32 1079" stroke="#5e5e5e" stroke-width="2" fill="none"/><path d="M1666.63 917.8l1 1.38-.86.6-1.14-1.65.86-.6z" stroke="#5e5e5e" stroke-width=".05" fill="#5e5e5e"/><path d="M1441.86 1060.8l-8.42 18.13 19.95-1.36" stroke="#5e5e5e" stroke-width="2" fill="none"/><defs><path fill="#333" d="M926-1525c100 5 85 80 87 172l19 840c48 30 58 53 58 111 0 57-18 107-53 149 1 49 5 96 5 144 0 43-32 74-96 81-52 6-83-47-82-125h-10C637-26 540 25 408 25 233 25 120-61 67-234 32-351 14-434 14-484l-4-753-10-77c0-55 34-82 101-82 40 0 69 26 86 77l-5 34c2 232 5 462 5 696 0 197 45 318 139 355 21 8 49 5 77 5 31 0 183-72 456-216l-5-72c-6-545-24-853-24-927 0-44 32-71 96-81" id="H"/><path fill="#333" d="M312-618C163-599 30-756 29-935c0-219 157-400 470-543l96-19c109 0 231 56 341 187 72 86 37 160-62 216-56 32-106-10-116-86l15-43c-53-29-111-43-173-43-120 0-243 77-370 230-19 46-26 78-24 125 0 18 26 29 77 33l499-76c235-29 376 43 442 249l14 91c0 130-59 283-206 432-271 275-657 282-926-4C26-271 0-344 0-378c13-61 40-92 82-92 33 0 78 37 134 111 131 97 267 145 418 144 123 0 262-89 393-283 53-79 32-148-53-202-153-4-265 31-662 82" id="I"/><path fill="#333" d="M106-1504c88-41 67-36 163 0 299-1 595 5 888 5 45 0 100 79 115 177-17 58-60 86-130 87l-878 14c5 91 6 186 5 283h744c96-2 153 56 153 154 0 70-41 105-124 105H274v394c297 2 595 3 892 5 41 0 76 51 106 153 0 49-35 95-110 96L293-16c-21 61-54 91-101 91-52 0-87-43-106-130C32-137 5-185 5-199c0-43 32-73 96-91l-5-33v-375C32-756 0-807 0-851c0-46 30-75 91-87v-293c-80-78-159-245 15-273" id="J"/><path fill="#333" d="M1037-1519c186 0 353 66 489 211 52 56 72 129 72 206 0 183-139 313-417 389l-48 5-360-24v5l816 427c16 17 29 56 38 115-11 73-43 110-96 110-14 0-425-203-1233-609-5 1-17-4-15 5l5 667c0 35-27 67-82 67-49 0-83-21-100-62 8-252 3-517 0-773-64-19-96-67-96-144-17-79 11-126 96-139v-101c-35-19-59-53-72-101-58-86-47-156 81-173 0-19 26-36 77-53l77 34c370-41 626-62 768-62zm-754 480c-58 10 714 103 835 96 167-9 268-56 293-188-40-93-131-139-273-139-182 0-467 27-855 82v149" id="K"/><g id="a"><use transform="matrix(0.010850694444444444,0,0,0.010850694444444444,0,0)" xlink:href="#H"/><use transform="matrix(0.010850694444444444,0,0,0.010850694444444444,13.346354166666666,0)" xlink:href="#I"/><use transform="matrix(0.010850694444444444,0,0,0.010850694444444444,28.53732638888889,0)" xlink:href="#J"/><use transform="matrix(0.010850694444444444,0,0,0.010850694444444444,43.9453125,0)" xlink:href="#K"/></g><path fill="#333" d="M518-1521c51 0 80 30 87 91h297c88 0 173 55 173 173 0 36-29 60-86 72H610c4 749 9 1123 14 1123 0 40-33 68-96 77-92-19-101-67-82-149-6-349-2-708-14-1051H274c-151 0-226-10-226-29-63-78-83-216 58-216h326c9-61 38-91 86-91" id="L"/><path fill="#333" d="M1037-1463c205 0 377 79 499 249 78 108 110 222 110 331 0 272-189 554-604 773C643 101 268 93 72-283c-175-336-55-591 216-868 135-138 326-229 557-288zM187-556c0 172 194 312 442 312 165 0 394-85 662-288 117-89 163-195 163-288 0-143-31-221-134-288-91-60-193-96-312-96-221 0-466 89-691 312-114 113-130 198-130 336" id="M"/><path fill="#333" d="M1142-1464c80 0 120 56 120 168 0 61-61 91-182 91-210 0-357 59-446 96-119 50-255 181-408 389-23 51-34 102-34 154 0 137 71 230 216 264 325 76 605 24 912-96l-5-216c-36 0-150 62-384 62-41 0-73-27-96-82 51-144 112-216 183-216 193 0 288-36 288-43 0-52 30-86 91-86 35 0 63 22 86 67 114-12 149 46 149 168 0 51-48 86-144 106 3 59 6 118 5 182 23-1 45-3 67-5 62-5 82 68 82 163 0 66-32 108-96 125-26 7-39 12-39 19 6 87-10 154-91 154-51 0-80-35-86-106L965-24C846-9 780-9 667-10c-275 0-439-63-513-177C58-335 0-493 0-672c0-245 175-489 547-686 162-86 368-106 595-106" id="N"/><path fill="#333" d="M38-1511c-1-44 38-81 106-81 89 0 89 79 77 163l5 58 19 1089h648c150 0 225 13 225 39 16 2 26 50 29 144-9 51-43 76-101 76-266-1-536 3-796-4-52 90-140 80-183-15C22-71 0-118 0-181c0-42 24-77 72-106l-5-19-14-1109" id="O"/><g id="b"><use transform="matrix(0.017361111111111105,0,0,0.017361111111111105,0,0)" xlink:href="#L"/><use transform="matrix(0.017361111111111105,0,0,0.017361111111111105,21.718749999999993,0)" xlink:href="#M"/><use transform="matrix(0.017361111111111105,0,0,0.017361111111111105,51.23263888888887,0)" xlink:href="#N"/><use transform="matrix(0.017361111111111105,0,0,0.017361111111111105,82.82986111111109,0)" xlink:href="#N"/><use transform="matrix(0.017361111111111105,0,0,0.017361111111111105,114.42708333333329,0)" xlink:href="#O"/><use transform="matrix(0.017361111111111105,0,0,0.017361111111111105,135.26041666666663,0)" xlink:href="#J"/></g><path fill="#333" d="M1046-1569c196 0 387 91 552 288 33 39 39 82 39 115 0 87-82 197-245 331-77 63-199 77-336 77-143 0-407-18-792-53 4 248 9 496 14 744 0 38-32 77-96 77-41 0-69-26-86-77l5-77-10-643c0-37-14-71-43-101l-5-43c0-93 14-139 43-139-5-48-4-101-4-154-27-58-82-91-82-172 0-29 26-56 77-82 0-45 31-82 96-82 25 0 52 21 81 63 285-34 549-72 792-72zm-787 336v182c386 35 671 53 855 53 162 0 267-42 316-125 9-101-40-136-158-168-407-18-496-10-1013 58" id="P"/><path fill="#333" d="M0-103c-2-13 43-88 115-182v-5c-17-23-28-52-33-86 31-110 75-153 182-144 365-536 547-819 547-850-18-74 24-122 111-163 77-37 120 25 158 130-1 34-10 60-14 91 198 483 308 744 331 782 145 25 179 132 91 235 23 91 51 165 86 221-5 76-44 115-100 115-67 0-105-45-116-134l-72-168c-313-10-635-3-945 5-16 1-58 80-154 216C129 43 20 9 5-103H0zm504-427v10h643l24-5v-10l-249-614h-10c-39 47-175 254-408 619" id="Q"/><path fill="#333" d="M1296-1521c57 9 86 34 86 77h5c-4 21-6 45-5 72l24 691c0 334-107 560-331 653C888 50 786 7 667-153h-5C577-51 494 0 413 0l-39 10C244 10 142-86 53-268c-23-48-43-277-43-696L0-1339c17-48 49-72 96-72 58 0 86 37 86 82h5l-5 24 10 753c0 141 51 240 154 298 133 12 208-51 211-216l9-514-14-388c28-45 60-68 96-68 57 13 86 36 86 68l5 873c13 27 22 67 29 120 41 83 77 120 134 120 117 0 216-85 288-259 22-52 29-113 29-178 0-256-19-504-19-744 0-47 32-74 96-81" id="R"/><path fill="#333" d="M192-1522c32 0 62 26 91 77 302-46 504-73 591-72 195 0 389 60 580 187 89 59 150 170 188 327l19 149c0 292-223 534-667 729-128 56-397 85-720 82-61 62-100 54-168-5-42-23-63-63-63-120 0-45 21-89 63-134l-5-879c-67-75-98-108-96-149H0c0-46 32-75 96-86 14-71 46-106 96-106zm86 365c-1 282 0 563 5 840 322 4 630-22 701-86 248-91 405-208 470-351 24-53 20-84 20-148 0-157-86-260-260-303-331-81-598-42-936 48" id="S"/><g id="c"><use transform="matrix(0.017361111111111105,0,0,0.017361111111111105,0,0)" xlink:href="#P"/><use transform="matrix(0.017361111111111105,0,0,0.017361111111111105,31.24999999999999,0)" xlink:href="#Q"/><use transform="matrix(0.017361111111111105,0,0,0.017361111111111105,61.111111111111086,0)" xlink:href="#I"/><use transform="matrix(0.017361111111111105,0,0,0.017361111111111105,85.41666666666664,0)" xlink:href="#I"/><use transform="matrix(0.017361111111111105,0,0,0.017361111111111105,109.72222222222217,0)" xlink:href="#R"/><use transform="matrix(0.017361111111111105,0,0,0.017361111111111105,137.49999999999994,0)" xlink:href="#M"/><use transform="matrix(0.017361111111111105,0,0,0.017361111111111105,167.01388888888883,0)" xlink:href="#K"/><use transform="matrix(0.017361111111111105,0,0,0.017361111111111105,198.26388888888883,0)" xlink:href="#S"/></g><path fill="#333" d="M1440-1338c73 21 110 72 110 153 0 27-48 86-129 188L778-191v14c35 59 52 98 52 116 0 58-37 86-86 86-33 0-64-21-91-62-22 5-38 17-58 24-57 0-105-54-105-164 0-20 14-49 43-86-114-232-280-533-499-902-65-68-38-159 76-159 41 0 73 40 96 120 184 309 331 570 442 783h5c8 0 163-194 465-581 156-199 249-310 279-331" id="T"/><path fill="#333" d="M0-1411c19-46 47-72 91-67 64 7 101 40 96 86l-14 139c2 392 5 792 5 1176 0 41-29 66-87 77C34-7 5-35 5-82H0l5-81c-2-415 5-840-5-1248" id="U"/><path fill="#333" d="M911-1480c283 0 467 83 523 259 36 113-6 156-76 298-2 24 36 36 110 72 110 53 163 139 163 249l5 44c0 141-119 291-355 451-84 57-384 86-903 86H244c1 69-24 106-77 105-41 0-68-32-81-95-26 6-49-58-48-125 0-35 16-83 48-144-2-133-3-265-5-398-7 0-17-2-19 4-41-14-62-52-62-115 0-71 25-127 76-168-1-72-3-144-5-216-61-55-91-103-91-144 0-45 34-70 101-77 14-25 38-38 72-38l57 29c265-39 498-77 701-77zm-686 360v154h163c508 0 783-35 826-106 17 0 32-26 43-77 0-48-82-72-245-72-270 0-503 16-768 67-13 9-19 21-19 34zm5 432c5 134 0 277 9 408 541 0 851-16 903-48 221-73 331-153 331-240 0-137-147-206-442-206-472 0-738 65-801 86" id="V"/><path fill="#333" d="M518-1521c51 0 80 30 87 91h297c88 0 173 55 173 173 0 36-29 60-86 72H610c4 749 9 1123 14 1123 0 40-33 68-96 77-92-19-101-67-82-149-6-349-2-708-14-1051H274c-151 0-226-10-226-29-63-78-83-216 58-216h326c9-61 38-91 86-91" id="W"/><path fill="#333" d="M1402-1391c55-3 96 28 96 96 0 46-60 79-168 129-318 148-472 242-476 250 12 37-13 62-33 96l9 758c-19 55-49 82-91 82-61 0-91-36-91-86 0-250 1-501-5-744h-9c-43 29-74 43-92 43-51-20-76-54-76-101l19-62c-215-107-367-176-456-207-19-19-29-40-29-62 0-57 29-110 86-159 19-2 29-5 29-9 12 0 230 96 653 288h14" id="X"/><g id="d"><use transform="matrix(0.017361111111111105,0,0,0.017361111111111105,0,0)" xlink:href="#T"/><use transform="matrix(0.017361111111111105,0,0,0.017361111111111105,30.03472222222221,0)" xlink:href="#U"/><use transform="matrix(0.017361111111111105,0,0,0.017361111111111105,37.499999999999986,0)" xlink:href="#I"/><use transform="matrix(0.017361111111111105,0,0,0.017361111111111105,61.80555555555553,0)" xlink:href="#U"/><use transform="matrix(0.017361111111111105,0,0,0.017361111111111105,69.2708333333333,0)" xlink:href="#V"/><use transform="matrix(0.017361111111111105,0,0,0.017361111111111105,101.04166666666663,0)" xlink:href="#U"/><use transform="matrix(0.017361111111111105,0,0,0.017361111111111105,108.5069444444444,0)" xlink:href="#O"/><use transform="matrix(0.017361111111111105,0,0,0.017361111111111105,129.34027777777771,0)" xlink:href="#U"/><use transform="matrix(0.017361111111111105,0,0,0.017361111111111105,136.8055555555555,0)" xlink:href="#W"/><use transform="matrix(0.017361111111111105,0,0,0.017361111111111105,158.5243055555555,0)" xlink:href="#X"/></g><path fill="#0c7cba" d="M998-1710c115-32 180 43 231 183 14 39 0 80-5 120l302 710c151 58 210 178 125 322 5 41 30 104 77 187 19 100-35 163-139 206l-43 9c-112-23-168-69-168-138l-68-168c-283-12-579 0-864 4C346-105 271-20 221-20 93-20 29-62 0-203c0-35 34-96 101-182-49-141 1-215 129-298 67-7 101-25 101-52 317-471 475-719 475-744 0-107 61-194 192-231zM725-707v15h413c-86-228-146-360-164-389-12 9-95 133-249 374" id="Y"/><path fill="#0c7cba" d="M379-1380c436-302 628-287 1138-96 116 99 97 252-29 345-14 10-36 18-67 24-440-117-761-109-1013 212-52 66-62 149-62 230 0 149 66 242 201 264 48 8 93 10 144 10 275 0 536-95 783-284 96-34 170 2 235 82 11 14 24 43 24 86 0 114-67 192-183 264-137 85-286 164-465 207C931 2 821 21 754 21c-217 0-407-47-543-172C54-295 0-487 0-723c0-226 109-470 379-657" id="Z"/><path fill="#0c7cba" d="M1258-435c72 0 163 120 172 240 5 70-69 161-172 163L427-17c-45 63-96 95-153 95-79 0-136-53-173-158 0-11-26-58-77-139-35-92-1-137 77-206v-298c0-7-25-41-67-105-17-26-26-59-34-96 0-57 32-108 96-154v-182c0-9-27-38-58-101-73-149-37-235 116-298l105-33 115 33h788c119 0 194 38 225 115 19 23 48 66 48 135 0 73-46 127-139 163 0 9-290 17-869 24v130h682c130 0 216 81 216 240 0 81-45 137-135 168-245 9-506 2-758 4v240c276 1 551 5 826 5" id="aa"/><path fill="#0c7cba" d="M682-1657c135 0 273 78 412 235 66 124 33 200-67 298 0 6 10 9 29 9 89 18 169 57 230 125 77 88 111 190 111 298 0 174-84 372-293 542C821 81 473 85 192-160 55-280 0-391 0-462c0-114 77-168 168-168 55 0 117 45 187 134 109 80 229 120 360 120 97 0 209-85 336-254 4-14 6-29 5-48-16-26-26-29-58-29-56 0-253 82-604 82-165 0-280-91-346-274-4-47-15-87-14-139 0-233 171-432 513-595zm-312 614h24c291-43 436-68 436-77v-4c-45-37-67-82-67-135-7-6-33-14-77-14-91 0-190 59-297 177-13 23-19 41-19 53" id="ab"/><g id="e"><use transform="matrix(0.008680555555555556,0,0,0.008680555555555556,0,0)" xlink:href="#Y"/><use transform="matrix(0.008680555555555556,0,0,0.008680555555555556,15.364583333333334,0)" xlink:href="#Z"/><use transform="matrix(0.008680555555555556,0,0,0.008680555555555556,30.815972222222218,0)" xlink:href="#Z"/><use transform="matrix(0.008680555555555556,0,0,0.008680555555555556,46.267361111111114,0)" xlink:href="#aa"/><use transform="matrix(0.008680555555555556,0,0,0.008680555555555556,59.027777777777786,0)" xlink:href="#ab"/><use transform="matrix(0.008680555555555556,0,0,0.008680555555555556,71.52777777777779,0)" xlink:href="#ab"/></g><path fill="#0c7cba" d="M446-1603c106-128 202-128 308 0h254c107 0 183 80 230 240 0 85-57 139-172 163l-5-5H768c4 590 14 944 14 1061 0 51-37 102-120 134-95 36-164-15-211-110-16-33 0-75 0-115 0-311-5-637-9-955l-5-15h-63c-189 0-283-13-283-38-61-61-91-126-91-197 0-75 48-130 144-163h302" id="ac"/><path fill="#0c7cba" d="M1344 34c-134 47-238-82-206-249-8-67-4-147-5-221l-701 5-5 5c-1 79 2 156 5 230 4 84-64 159-168 168-77 7-151-59-168-148 9-86 1-179 0-269-64-40-96-88-96-144 0-94 37-154 67-183 16-8 24-21 24-38 1-210-3-416-5-624-2-3-5-4-4-10 0-65 35-120 110-148 94-35 185 4 221 91 2 19 5 29 9 29-8 202 1 417 0 624 235 1 469 4 706 4 9-213 0-442 0-657 0-49 30-99 101-130 99-43 180 4 221 106 22 55-4 142 9 206v504c109 94 83 224 0 327 2 121 5 241 5 364 0 78-40 131-120 158" id="ad"/><g id="f"><use transform="matrix(0.008680555555555556,0,0,0.008680555555555556,0,0)" xlink:href="#ac"/><use transform="matrix(0.008680555555555556,0,0,0.008680555555555556,11.284722222222223,0)" xlink:href="#ad"/><use transform="matrix(0.008680555555555556,0,0,0.008680555555555556,25.086805555555557,0)" xlink:href="#aa"/></g><path fill="#333" d="M173-1512c62-4 90 22 120 86l677-9c50 0 79 30 86 91h5c-8 23-4 56-5 86 0 77-45 115-134 116l-591 9-53 5v264h672c80 0 120 30 120 91h5c0 115-34 172-101 173l-643 14-48 5c1 155-3 305-5 456 14 75 3 125-86 125-48 0-82-28-82-86l-4-490C39-576 5-608 5-672c0-29 34-92 101-187-2-80-5-158-5-240 0-19-22-35-67-48-25-25-34-44-34-77 0-20 21-58 62-115 0-81 37-138 111-173" id="ae"/><path fill="#333" d="M1507-1522c43 0 68 35 77 106 37 0 72 39 72 120 0 47-22 87-67 120l19 1099c0 35-30 60-91 77-89-13-86-70-87-158l-14-912c-2-4-7-6-14-5l-336 197c-19 102-60 153-125 153-31-11-58-24-91-33l-63 28c-36 0-90-51-163-153-224-116-328-174-346-173l20 974c0 51-32 82-96 82-51 0-81-32-82-96l-19-1056C34-1227 0-1291 0-1344c25-51 53-77 86-77 21-54 53-81 96-81 65 0 98 34 96 72l-4 100c269 142 453 235 552 279 77-35 272-136 585-303-17-89 6-168 96-168" id="af"/><g id="g"><use transform="matrix(0.010850694444444444,0,0,0.010850694444444444,0,0)" xlink:href="#ae"/><use transform="matrix(0.010850694444444444,0,0,0.010850694444444444,13.57421875,0)" xlink:href="#M"/><use transform="matrix(0.010850694444444444,0,0,0.010850694444444444,32.02039930555556,0)" xlink:href="#K"/><use transform="matrix(0.010850694444444444,0,0,0.010850694444444444,51.55164930555556,0)" xlink:href="#af"/></g><path fill="#333" d="M106-1504c88-41 67-36 163 0 299-1 595 5 888 5 45 0 100 79 115 177-17 58-60 86-130 87l-878 14c5 91 6 186 5 283h744c96-2 153 56 153 154 0 70-41 105-124 105H274v394c297 2 595 3 892 5 41 0 76 51 106 153 0 49-35 95-110 96L293-16c-21 61-54 91-101 91-52 0-87-43-106-130C32-137 5-185 5-199c0-43 32-73 96-91l-5-33v-375C32-756 0-807 0-851c0-46 30-75 91-87v-293c-80-78-159-245 15-273" id="ag"/><path fill="#333" d="M1162-1549c61 0 91 35 91 106v1181c0 10 11 29 33 57 3 29 10 53 10 87 0 70-34 105-101 105-33 0-72-56-149-139-255-276-538-531-816-792h-14l5 58c0 362 19 646 19 854 0 40-32 64-96 72C42 30 45-51 58-147l-5-43c-4-637-12-956-24-956-16 0-29-46-29-139 0-84 28-125 62-125 99 0 149 26 149 77 0 61 13 94 39 101 536 530 808 797 816 797h9v-922l-14-125c0-37 33-67 101-67" id="ah"/><g id="h"><use transform="matrix(0.010850694444444444,0,0,0.010850694444444444,0,0)" xlink:href="#ag"/><use transform="matrix(0.010850694444444444,0,0,0.010850694444444444,15.40798611111111,0)" xlink:href="#ah"/><use transform="matrix(0.010850694444444444,0,0,0.010850694444444444,31.14149305555556,0)" xlink:href="#W"/><use transform="matrix(0.010850694444444444,0,0,0.010850694444444444,44.71571180555556,0)" xlink:href="#J"/><use transform="matrix(0.010850694444444444,0,0,0.010850694444444444,60.12369791666667,0)" xlink:href="#K"/></g><g id="i"><use transform="matrix(0.010850694444444444,0,0,0.010850694444444444,0,0)" xlink:href="#H"/><use transform="matrix(0.010850694444444444,0,0,0.010850694444444444,13.346354166666666,0)" xlink:href="#I"/><use transform="matrix(0.010850694444444444,0,0,0.010850694444444444,28.53732638888889,0)" xlink:href="#J"/><use transform="matrix(0.010850694444444444,0,0,0.010850694444444444,43.9453125,0)" xlink:href="#K"/><use transform="matrix(0.010850694444444444,0,0,0.010850694444444444,63.4765625,0)" xlink:href="#ah"/><use transform="matrix(0.010850694444444444,0,0,0.010850694444444444,79.21006944444444,0)" xlink:href="#Q"/><use transform="matrix(0.010850694444444444,0,0,0.010850694444444444,97.87326388888889,0)" xlink:href="#af"/><use transform="matrix(0.010850694444444444,0,0,0.010850694444444444,117.62152777777777,0)" xlink:href="#J"/></g><path fill="#0c7cba" d="M446-1603c106-128 202-128 308 0h254c107 0 183 80 230 240 0 85-57 139-172 163l-5-5H768c4 590 14 944 14 1061 0 51-37 102-120 134-95 36-164-15-211-110-16-33 0-75 0-115 0-311-5-637-9-955l-5-15h-63c-189 0-283-13-283-38-61-61-91-126-91-197 0-75 48-130 144-163h302" id="ai"/><path fill="#0c7cba" d="M1118-1610c239 0 437 99 576 307 76 114 106 234 106 350 0 312-211 623-672 855C725 104 362 88 120-252 33-373 0-509 0-646c0-227 107-461 350-667 247-210 513-297 768-297zM442-900c-77 104-101 159-101 269 0 118 86 200 259 235 34 7 68 5 106 5 137 0 344-73 595-255 111-80 153-170 153-235v-77c0-113-101-191-302-235l-72-5c-201 0-414 99-638 298" id="aj"/><g id="j"><use transform="matrix(0.008680555555555556,0,0,0.008680555555555556,0,0)" xlink:href="#ai"/><use transform="matrix(0.008680555555555556,0,0,0.008680555555555556,11.284722222222223,0)" xlink:href="#aj"/></g><path fill="#333" d="M101-1420c25-2 69 58 182 159l519 465 600-475c75-18 108 28 168 120 4 64-51 95-154 178L989-628c84 91 252 248 504 471 18 0 32 22 43 67-19 64-51 96-96 96-23 0-67-42-144-115-287-272-441-403-451-403L163 25C72 46 29 3 29-119c0-48 38-82 96-129l533-432v-10L5-1290c-18-75 13-122 96-130" id="ak"/><path fill="#333" d="M1046-1569c196 0 387 91 552 288 33 39 39 82 39 115 0 87-82 197-245 331-77 63-199 77-336 77-143 0-407-18-792-53 4 248 9 496 14 744 0 38-32 77-96 77-41 0-69-26-86-77l5-77-10-643c0-37-14-71-43-101l-5-43c0-93 14-139 43-139-5-48-4-101-4-154-27-58-82-91-82-172 0-29 26-56 77-82 0-45 31-82 96-82 25 0 52 21 81 63 285-34 549-72 792-72zm-787 336v182c386 35 671 53 855 53 162 0 267-42 316-125 9-101-40-136-158-168-407-18-496-10-1013 58" id="al"/><path fill="#333" d="M926-1525c100 5 85 80 87 172l19 840c48 30 58 53 58 111 0 57-18 107-53 149 1 49 5 96 5 144 0 43-32 74-96 81-52 6-83-47-82-125h-10C637-26 540 25 408 25 233 25 120-61 67-234 32-351 14-434 14-484l-4-753-10-77c0-55 34-82 101-82 40 0 69 26 86 77l-5 34c2 232 5 462 5 696 0 197 45 318 139 355 21 8 49 5 77 5 31 0 183-72 456-216l-5-72c-6-545-24-853-24-927 0-44 32-71 96-81" id="am"/><path fill="#333" d="M139-1202c61 0 104 35 130 106 7 85-27 123-115 139-80-17-120-53-120-110l-5-5c19-87 56-130 110-130zm-24 567c56 0 105 48 125 124-15 80-55 120-120 120C38-408-5-444 0-506c8-86 50-129 115-129" id="an"/><g id="k"><use transform="matrix(0.010850694444444444,0,0,0.010850694444444444,0,0)" xlink:href="#L"/><use transform="matrix(0.010850694444444444,0,0,0.010850694444444444,13.57421875,0)" xlink:href="#J"/><use transform="matrix(0.010850694444444444,0,0,0.010850694444444444,28.98220486111111,0)" xlink:href="#ak"/><use transform="matrix(0.010850694444444444,0,0,0.010850694444444444,46.88585069444444,0)" xlink:href="#W"/><use transform="matrix(0.010850694444444444,0,0,0.010850694444444444,60.46006944444444,0)" xlink:href="#U"/><use transform="matrix(0.010850694444444444,0,0,0.010850694444444444,65.12586805555556,0)" xlink:href="#ah"/><use transform="matrix(0.010850694444444444,0,0,0.010850694444444444,80.859375,0)" xlink:href="#al"/><use transform="matrix(0.010850694444444444,0,0,0.010850694444444444,100.390625,0)" xlink:href="#am"/><use transform="matrix(0.010850694444444444,0,0,0.010850694444444444,113.73697916666666,0)" xlink:href="#W"/><use transform="matrix(0.010850694444444444,0,0,0.010850694444444444,127.31119791666666,0)" xlink:href="#an"/></g><g id="l"><use transform="matrix(0.010850694444444444,0,0,0.010850694444444444,0,0)" xlink:href="#H"/><use transform="matrix(0.010850694444444444,0,0,0.010850694444444444,13.346354166666666,0)" xlink:href="#I"/><use transform="matrix(0.010850694444444444,0,0,0.010850694444444444,28.53732638888889,0)" xlink:href="#J"/><use transform="matrix(0.010850694444444444,0,0,0.010850694444444444,43.9453125,0)" xlink:href="#K"/><use transform="matrix(0.010850694444444444,0,0,0.010850694444444444,63.4765625,0)" xlink:href="#ah"/><use transform="matrix(0.010850694444444444,0,0,0.010850694444444444,79.21006944444444,0)" xlink:href="#Q"/><use transform="matrix(0.010850694444444444,0,0,0.010850694444444444,97.87326388888889,0)" xlink:href="#af"/><use transform="matrix(0.010850694444444444,0,0,0.010850694444444444,117.62152777777777,0)" xlink:href="#J"/></g><path fill="#0c7cba" d="M173 0C92 2 33-56 5-149c11-372 2-762 5-1142 0-85-10-149-10-192 0-69 44-128 139-154 93-26 151 27 202 120 2 26 5 39 9 39-13 57-19 112-19 163 1 391 5 788 5 1171 0 46-34 89-101 130" id="ao"/><path fill="#0c7cba" d="M0-1383c0-104 39-174 134-192 122 4 183 20 183 48 22 0 40 48 53 144l696 677h9v-729c0-38-6-81-19-130 0-79 59-131 178-154 115 18 172 76 172 173v1176c32 45 48 96 48 154 0 132-73 197-177 197-62 0-118-65-207-164-235-262-476-474-686-667h-10c7 490 14 735 20 735 4 76-68 136-173 148-81 9-145-58-173-158l5-53-15-1008c-25-29-38-95-38-197" id="ap"/><g id="m"><use transform="matrix(0.008680555555555556,0,0,0.008680555555555556,0,0)" xlink:href="#ao"/><use transform="matrix(0.008680555555555556,0,0,0.008680555555555556,3.732638888888889,0)" xlink:href="#ap"/><use transform="matrix(0.008680555555555556,0,0,0.008680555555555556,16.75347222222222,0)" xlink:href="#ac"/><use transform="matrix(0.008680555555555556,0,0,0.008680555555555556,28.038194444444443,0)" xlink:href="#aj"/></g><g id="n"><use transform="matrix(0.008680555555555556,0,0,0.008680555555555556,0,0)" xlink:href="#ac"/><use transform="matrix(0.008680555555555556,0,0,0.008680555555555556,11.284722222222223,0)" xlink:href="#ad"/><use transform="matrix(0.008680555555555556,0,0,0.008680555555555556,25.086805555555557,0)" xlink:href="#aa"/></g><g id="o"><use transform="matrix(0.010850694444444444,0,0,0.010850694444444444,0,0)" xlink:href="#P"/><use transform="matrix(0.010850694444444444,0,0,0.010850694444444444,19.53125,0)" xlink:href="#Q"/><use transform="matrix(0.010850694444444444,0,0,0.010850694444444444,38.19444444444444,0)" xlink:href="#I"/><use transform="matrix(0.010850694444444444,0,0,0.010850694444444444,53.385416666666664,0)" xlink:href="#I"/><use transform="matrix(0.010850694444444444,0,0,0.010850694444444444,68.57638888888889,0)" xlink:href="#R"/><use transform="matrix(0.010850694444444444,0,0,0.010850694444444444,85.9375,0)" xlink:href="#M"/><use transform="matrix(0.010850694444444444,0,0,0.010850694444444444,104.38368055555556,0)" xlink:href="#K"/><use transform="matrix(0.010850694444444444,0,0,0.010850694444444444,123.91493055555556,0)" xlink:href="#S"/></g><g id="p"><use transform="matrix(0.008680555555555556,0,0,0.008680555555555556,0,0)" xlink:href="#ai"/><use transform="matrix(0.008680555555555556,0,0,0.008680555555555556,11.284722222222223,0)" xlink:href="#ad"/><use transform="matrix(0.008680555555555556,0,0,0.008680555555555556,25.086805555555557,0)" xlink:href="#aa"/><use transform="matrix(0.008680555555555556,0,0,0.008680555555555556,37.84722222222223,0)" xlink:href="#ap"/></g><g id="q"><use transform="matrix(0.010850694444444444,0,0,0.010850694444444444,0,0)" xlink:href="#P"/><use transform="matrix(0.010850694444444444,0,0,0.010850694444444444,19.53125,0)" xlink:href="#Q"/><use transform="matrix(0.010850694444444444,0,0,0.010850694444444444,38.19444444444444,0)" xlink:href="#I"/><use transform="matrix(0.010850694444444444,0,0,0.010850694444444444,53.385416666666664,0)" xlink:href="#I"/><use transform="matrix(0.010850694444444444,0,0,0.010850694444444444,68.57638888888889,0)" xlink:href="#R"/><use transform="matrix(0.010850694444444444,0,0,0.010850694444444444,85.9375,0)" xlink:href="#M"/><use transform="matrix(0.010850694444444444,0,0,0.010850694444444444,104.38368055555556,0)" xlink:href="#K"/><use transform="matrix(0.010850694444444444,0,0,0.010850694444444444,123.91493055555556,0)" xlink:href="#S"/></g><g id="r"><use transform="matrix(0.008680555555555556,0,0,0.008680555555555556,0,0)" xlink:href="#ai"/><use transform="matrix(0.008680555555555556,0,0,0.008680555555555556,11.284722222222223,0)" xlink:href="#ad"/><use transform="matrix(0.008680555555555556,0,0,0.008680555555555556,25.086805555555557,0)" xlink:href="#aa"/></g><g id="s"><use transform="matrix(0.010850694444444444,0,0,0.010850694444444444,0,0)" xlink:href="#L"/><use transform="matrix(0.010850694444444444,0,0,0.010850694444444444,13.57421875,0)" xlink:href="#M"/><use transform="matrix(0.010850694444444444,0,0,0.010850694444444444,32.02039930555556,0)" xlink:href="#N"/><use transform="matrix(0.010850694444444444,0,0,0.010850694444444444,51.76866319444444,0)" xlink:href="#N"/><use transform="matrix(0.010850694444444444,0,0,0.010850694444444444,71.51692708333333,0)" xlink:href="#O"/><use transform="matrix(0.010850694444444444,0,0,0.010850694444444444,84.53776041666666,0)" xlink:href="#J"/></g><g id="t"><use transform="matrix(0.008680555555555556,0,0,0.008680555555555556,0,0)" xlink:href="#ac"/><use transform="matrix(0.008680555555555556,0,0,0.008680555555555556,11.284722222222223,0)" xlink:href="#ad"/><use transform="matrix(0.008680555555555556,0,0,0.008680555555555556,25.086805555555557,0)" xlink:href="#aa"/><use transform="matrix(0.008680555555555556,0,0,0.008680555555555556,37.84722222222223,0)" xlink:href="#ap"/></g><g id="u"><use transform="matrix(0.010850694444444444,0,0,0.010850694444444444,0,0)" xlink:href="#L"/><use transform="matrix(0.010850694444444444,0,0,0.010850694444444444,13.57421875,0)" xlink:href="#M"/><use transform="matrix(0.010850694444444444,0,0,0.010850694444444444,32.02039930555556,0)" xlink:href="#N"/><use transform="matrix(0.010850694444444444,0,0,0.010850694444444444,51.76866319444444,0)" xlink:href="#N"/><use transform="matrix(0.010850694444444444,0,0,0.010850694444444444,71.51692708333333,0)" xlink:href="#O"/><use transform="matrix(0.010850694444444444,0,0,0.010850694444444444,84.53776041666666,0)" xlink:href="#J"/></g><g id="v"><use transform="matrix(0.010850694444444444,0,0,0.010850694444444444,0,0)" xlink:href="#T"/><use transform="matrix(0.010850694444444444,0,0,0.010850694444444444,18.77170138888889,0)" xlink:href="#U"/><use transform="matrix(0.010850694444444444,0,0,0.010850694444444444,23.4375,0)" xlink:href="#I"/><use transform="matrix(0.010850694444444444,0,0,0.010850694444444444,38.62847222222222,0)" xlink:href="#U"/><use transform="matrix(0.010850694444444444,0,0,0.010850694444444444,43.29427083333333,0)" xlink:href="#V"/><use transform="matrix(0.010850694444444444,0,0,0.010850694444444444,63.15104166666666,0)" xlink:href="#U"/><use transform="matrix(0.010850694444444444,0,0,0.010850694444444444,67.81684027777777,0)" xlink:href="#O"/><use transform="matrix(0.010850694444444444,0,0,0.010850694444444444,80.8376736111111,0)" xlink:href="#U"/><use transform="matrix(0.010850694444444444,0,0,0.010850694444444444,85.50347222222221,0)" xlink:href="#W"/><use transform="matrix(0.010850694444444444,0,0,0.010850694444444444,99.07769097222221,0)" xlink:href="#X"/></g><path fill="#333" d="M1210-1486c99 13 86 72 86 163 0 211 5 420 5 633 48 31 72 59 72 82 0 97-34 144-72 144-1 143 3 282 5 422 0 46-31 74-92 81-89 10-81-88-81-172 0-98-6-199-5-302l-845 5-14 4v293l5 5c-11 67-39 100-96 96-55-4-82-32-82-77h-5c12-97-1-213 0-317-61-11-91-41-91-91 0-67 30-123 91-168-7-228-5-464-9-696 9-45 41-67 96-67 43 0 71 21 86 62l-5 63 5 629c286 2 570 5 859 4 3-239 0-486 0-724 0-39 29-63 87-72" id="aq"/><g id="w"><use transform="matrix(0.010850694444444444,0,0,0.010850694444444444,0,0)" xlink:href="#aq"/><use transform="matrix(0.010850694444444444,0,0,0.010850694444444444,16.710069444444443,0)" xlink:href="#U"/><use transform="matrix(0.010850694444444444,0,0,0.010850694444444444,21.375868055555554,0)" xlink:href="#S"/><use transform="matrix(0.010850694444444444,0,0,0.010850694444444444,41.232638888888886,0)" xlink:href="#J"/></g><path fill="#333" d="M192-1522c32 0 62 26 91 77 302-46 504-73 591-72 195 0 389 60 580 187 89 59 150 170 188 327l19 149c0 292-223 534-667 729-128 56-397 85-720 82-61 62-100 54-168-5-42-23-63-63-63-120 0-45 21-89 63-134l-5-879c-67-75-98-108-96-149H0c0-46 32-75 96-86 14-71 46-106 96-106zm86 365c-1 282 0 563 5 840 322 4 630-22 701-86 248-91 405-208 470-351 24-53 20-84 20-148 0-157-86-260-260-303-331-81-598-42-936 48" id="ar"/><g id="x"><use transform="matrix(0.010850694444444444,0,0,0.010850694444444444,0,0)" xlink:href="#ar"/><use transform="matrix(0.010850694444444444,0,0,0.010850694444444444,19.856770833333332,0)" xlink:href="#U"/><use transform="matrix(0.010850694444444444,0,0,0.010850694444444444,24.522569444444443,0)" xlink:href="#I"/><use transform="matrix(0.010850694444444444,0,0,0.010850694444444444,39.713541666666664,0)" xlink:href="#al"/><use transform="matrix(0.010850694444444444,0,0,0.010850694444444444,59.244791666666664,0)" xlink:href="#O"/><use transform="matrix(0.010850694444444444,0,0,0.010850694444444444,72.265625,0)" xlink:href="#Q"/><use transform="matrix(0.010850694444444444,0,0,0.010850694444444444,90.92881944444444,0)" xlink:href="#X"/></g><path fill="#333" d="M379-1380c436-302 628-287 1138-96 116 99 97 252-29 345-14 10-36 18-67 24-440-117-761-109-1013 212-52 66-62 149-62 230 0 149 66 242 201 264 48 8 93 10 144 10 275 0 536-95 783-284 96-34 170 2 235 82 11 14 24 43 24 86 0 114-67 192-183 264-137 85-286 164-465 207C931 2 821 21 754 21c-217 0-407-47-543-172C54-295 0-487 0-723c0-226 109-470 379-657" id="as"/><path fill="#333" d="M1344 34c-134 47-238-82-206-249-8-67-4-147-5-221l-701 5-5 5c-1 79 2 156 5 230 4 84-64 159-168 168-77 7-151-59-168-148 9-86 1-179 0-269-64-40-96-88-96-144 0-94 37-154 67-183 16-8 24-21 24-38 1-210-3-416-5-624-2-3-5-4-4-10 0-65 35-120 110-148 94-35 185 4 221 91 2 19 5 29 9 29-8 202 1 417 0 624 235 1 469 4 706 4 9-213 0-442 0-657 0-49 30-99 101-130 99-43 180 4 221 106 22 55-4 142 9 206v504c109 94 83 224 0 327 2 121 5 241 5 364 0 78-40 131-120 158" id="at"/><path fill="#333" d="M1258-435c72 0 163 120 172 240 5 70-69 161-172 163L427-17c-45 63-96 95-153 95-79 0-136-53-173-158 0-11-26-58-77-139-35-92-1-137 77-206v-298c0-7-25-41-67-105-17-26-26-59-34-96 0-57 32-108 96-154v-182c0-9-27-38-58-101-73-149-37-235 116-298l105-33 115 33h788c119 0 194 38 225 115 19 23 48 66 48 135 0 73-46 127-139 163 0 9-290 17-869 24v130h682c130 0 216 81 216 240 0 81-45 137-135 168-245 9-506 2-758 4v240c276 1 551 5 826 5" id="au"/><path fill="#333" d="M379-1380c436-302 628-287 1138-96 116 99 97 252-29 345-14 10-36 18-67 24-440-117-761-109-1013 212-52 66-62 149-62 230 0 149 66 242 201 264 48 8 93 10 144 10 275 0 536-95 783-284 96-34 170 2 235 82 11 14 24 43 24 86 0 114-67 192-183 264-137 85-286 164-465 207C931 2 821 21 754 21c-217 0-407-47-543-172C54-295 0-487 0-723c0-226 109-470 379-657" id="av"/><path fill="#333" d="M1378-1686c127-37 220 57 220 212 0 95-56 142-148 192L725-889c268 142 612 301 1017 504 60 30 82 85 82 139 0 104-53 183-158 236l-44 4c-26 0-98-46-230-110L418-586h-5c8 141 4 293 5 441 0 90-54 158-164 158-87 0-144-43-172-129 7-172 3-355 4-533 0-38-11-91-33-158 0-30-18-70-39-125-33-87-10-122 68-192 0-136 2-274-5-403 31-87 79-130 144-130 98-24 168 48 192 154-10 91 1 196 0 293h5" id="aw"/><path fill="#333" d="M110-1538c60-134 191-152 298-48 266-42 450-63 552-63 223 0 444 69 648 226 91 71 150 185 182 326 20 87 24 148 24 183 0 347-255 636-777 830-153 57-388 65-653 63-42 31-79 47-110 47-65 0-136-48-212-143-36-123-23-173 44-279l-5-801c-41-68-101-83-101-192 0-65 37-115 110-149zm322 384c0 237-1 474 5 705 323 0 529-28 605-86 133-45 234-102 307-168 83-75 125-135 125-182 0-141-20-235-125-274-297-109-585-76-917 5" id="ax"/><g id="y"><use transform="matrix(0.008680555555555556,0,0,0.008680555555555556,0,0)" xlink:href="#as"/><use transform="matrix(0.008680555555555556,0,0,0.008680555555555556,15.45138888888889,0)" xlink:href="#at"/><use transform="matrix(0.008680555555555556,0,0,0.008680555555555556,29.253472222222218,0)" xlink:href="#au"/><use transform="matrix(0.008680555555555556,0,0,0.008680555555555556,42.013888888888886,0)" xlink:href="#av"/><use transform="matrix(0.008680555555555556,0,0,0.008680555555555556,57.46527777777777,0)" xlink:href="#aw"/><use transform="matrix(0.008680555555555556,0,0,0.008680555555555556,73.78472222222221,0)" xlink:href="#au"/><use transform="matrix(0.008680555555555556,0,0,0.008680555555555556,86.54513888888889,0)" xlink:href="#ax"/></g><path fill="#333" d="M1008-1677c150 22 187 109 163 259l5 48c5 505 13 758 24 758 85 86 57 208-5 322l5 120c0 65-46 115-139 149-79 5-119-19-173-82h-5L643 21c-3-2-3-6-9-5L504 36C277 36 127-80 62-314c-21-73-40-147-43-221-9-249-3-499-5-749 0-37-5-71-14-101 27-105 79-158 158-158l15-5c72 0 126 38 163 115 2 23 5 34 10 34l-5 43c2 227 5 453 5 682 0 173 30 272 91 297h33c36 0 166-62 389-187-6-555-24-883-24-960 0-65 46-114 139-149" id="ay"/><path fill="#333" d="M0-1383c0-104 39-174 134-192 122 4 183 20 183 48 22 0 40 48 53 144l696 677h9v-729c0-38-6-81-19-130 0-79 59-131 178-154 115 18 172 76 172 173v1176c32 45 48 96 48 154 0 132-73 197-177 197-62 0-118-65-207-164-235-262-476-474-686-667h-10c7 490 14 735 20 735 4 76-68 136-173 148-81 9-145-58-173-158l5-53-15-1008c-25-29-38-95-38-197" id="az"/><path fill="#333" d="M888-1009c89 0 160 43 187 130 0 62-48 112-144 149-64 9-325 28-782 57-3 2-4 5-10 5-73 0-119-54-139-163 23-105 67-160 130-158l134 4" id="aA"/><g id="z"><use transform="matrix(0.008680555555555556,0,0,0.008680555555555556,0,0)" xlink:href="#ay"/><use transform="matrix(0.008680555555555556,0,0,0.008680555555555556,11.024305555555555,0)" xlink:href="#az"/><use transform="matrix(0.008680555555555556,0,0,0.008680555555555556,24.04513888888889,0)" xlink:href="#aA"/><use transform="matrix(0.008680555555555556,0,0,0.008680555555555556,34.02777777777778,0)" xlink:href="#av"/><use transform="matrix(0.008680555555555556,0,0,0.008680555555555556,49.47916666666667,0)" xlink:href="#at"/><use transform="matrix(0.008680555555555556,0,0,0.008680555555555556,63.281250000000014,0)" xlink:href="#au"/><use transform="matrix(0.008680555555555556,0,0,0.008680555555555556,76.04166666666667,0)" xlink:href="#av"/><use transform="matrix(0.008680555555555556,0,0,0.008680555555555556,91.49305555555556,0)" xlink:href="#aw"/><use transform="matrix(0.008680555555555556,0,0,0.008680555555555556,107.8125,0)" xlink:href="#au"/><use transform="matrix(0.008680555555555556,0,0,0.008680555555555556,120.57291666666667,0)" xlink:href="#ax"/></g><g id="A"><use transform="matrix(0.010850694444444444,0,0,0.010850694444444444,0,0)" xlink:href="#H"/><use transform="matrix(0.010850694444444444,0,0,0.010850694444444444,13.346354166666666,0)" xlink:href="#al"/><use transform="matrix(0.010850694444444444,0,0,0.010850694444444444,32.877604166666664,0)" xlink:href="#S"/><use transform="matrix(0.010850694444444444,0,0,0.010850694444444444,52.734375,0)" xlink:href="#Q"/><use transform="matrix(0.010850694444444444,0,0,0.010850694444444444,71.39756944444444,0)" xlink:href="#W"/><use transform="matrix(0.010850694444444444,0,0,0.010850694444444444,84.97178819444444,0)" xlink:href="#J"/></g><path fill="#333" d="M0-1411c19-46 47-72 91-67 64 7 101 40 96 86l-14 139c2 392 5 792 5 1176 0 41-29 66-87 77C34-7 5-35 5-82H0l5-81c-2-415 5-840-5-1248" id="aB"/><g id="B"><use transform="matrix(0.010850694444444444,0,0,0.010850694444444444,0,0)" xlink:href="#H"/><use transform="matrix(0.010850694444444444,0,0,0.010850694444444444,13.346354166666666,0)" xlink:href="#aB"/></g><g id="C"><use transform="matrix(0.010850694444444444,0,0,0.010850694444444444,0,0)" xlink:href="#J"/><use transform="matrix(0.010850694444444444,0,0,0.010850694444444444,15.40798611111111,0)" xlink:href="#O"/><use transform="matrix(0.010850694444444444,0,0,0.010850694444444444,28.428819444444443,0)" xlink:href="#J"/><use transform="matrix(0.010850694444444444,0,0,0.010850694444444444,43.83680555555556,0)" xlink:href="#af"/><use transform="matrix(0.010850694444444444,0,0,0.010850694444444444,63.58506944444444,0)" xlink:href="#J"/><use transform="matrix(0.010850694444444444,0,0,0.010850694444444444,78.99305555555556,0)" xlink:href="#ah"/><use transform="matrix(0.010850694444444444,0,0,0.010850694444444444,94.7265625,0)" xlink:href="#W"/></g><path fill="#333" d="M996-1246c-171-63-262 51-256 216h210l-40 188H700L450 427H171L421-842H262l34-188h159c6-313 245-512 580-393" id="aC"/><use transform="matrix(0.010850694444444444,0,0,0.010850694444444444,0,0)" xlink:href="#aC" id="E"/><filter id="D" filterUnits="objectBoundingBox" x="-.17" y="-.07" width="1.33" height="1.33"><feOffset result="offOut" in="SourceAlpha" dy="6"/><feGaussianBlur result="blurOut" in="offOut" stdDeviation="5"/><feColorMatrix result="colorOut" in="blurOut" values="0 0 0 0 0 0 0 0 0 0 0 0 0 0 0 0 0 0 0.5019607843137255 0"/><feBlend in="SourceGraphic" in2="colorOut"/></filter><use transform="matrix(0.010850694444444444,0,0,0.010850694444444444,0,0)" xlink:href="#J" id="F"/><path fill="#333" d="M374-1277c417-270 543-242 1028-72 22 21 33 50 33 87 0 73-34 118-101 134-463-122-800-83-1060 245-62 79-82 177-82 278-2 243 148 351 432 351 257 0 509-76 744-245 37-26 64-48 96-48 79 0 110 45 110 115 0 77-55 130-148 187-115 70-251 151-428 197C854-10 742 0 667 0 332 0 123-127 48-384 13-505 0-597 0-658c0-213 107-446 374-619" id="aD"/><path fill="#333" d="M1210-1486c99 13 86 72 86 163 0 211 5 420 5 633 48 31 72 59 72 82 0 97-34 144-72 144-1 143 3 282 5 422 0 46-31 74-92 81-89 10-81-88-81-172 0-98-6-199-5-302l-845 5-14 4v293l5 5c-11 67-39 100-96 96-55-4-82-32-82-77h-5c12-97-1-213 0-317-61-11-91-41-91-91 0-67 30-123 91-168-7-228-5-464-9-696 9-45 41-67 96-67 43 0 71 21 86 62l-5 63 5 629c286 2 570 5 859 4 3-239 0-486 0-724 0-39 29-63 87-72" id="aE"/><path fill="#333" d="M374-1277c417-270 543-242 1028-72 22 21 33 50 33 87 0 73-34 118-101 134-463-122-800-83-1060 245-62 79-82 177-82 278-2 243 148 351 432 351 257 0 509-76 744-245 37-26 64-48 96-48 79 0 110 45 110 115 0 77-55 130-148 187-115 70-251 151-428 197C854-10 742 0 667 0 332 0 123-127 48-384 13-505 0-597 0-658c0-213 107-446 374-619" id="aF"/><path fill="#333" d="M1334-1526c69-2 100 45 101 140h5c0 60-34 100-101 120L475-806v10c90 50 477 242 1162 576 16 15 24 39 24 72-21 102-59 153-115 153C1094-220 132-688 254-623c2 184 4 367 5 552 0 64-34 91-101 91-39 0-66-21-81-62 11-191 2-401 5-600-23-41-34-83-34-125C16-836 0-886 0-916c0-26 27-44 82-53-8-147-10-310-10-456 0-35 32-59 96-72 43 0 71 30 86 91l-4 20 4 393h10c697-355 1053-533 1070-533" id="aG"/><path fill="#333" d="M312-618C163-599 30-756 29-935c0-219 157-400 470-543l96-19c109 0 231 56 341 187 72 86 37 160-62 216-56 32-106-10-116-86l15-43c-53-29-111-43-173-43-120 0-243 77-370 230-19 46-26 78-24 125 0 18 26 29 77 33l499-76c235-29 376 43 442 249l14 91c0 130-59 283-206 432-271 275-657 282-926-4C26-271 0-344 0-378c13-61 40-92 82-92 33 0 78 37 134 111 131 97 267 145 418 144 123 0 262-89 393-283 53-79 32-148-53-202-153-4-265 31-662 82" id="aH"/><g id="G"><use transform="matrix(0.010850694444444444,0,0,0.010850694444444444,0,0)" xlink:href="#aD"/><use transform="matrix(0.010850694444444444,0,0,0.010850694444444444,18.77170138888889,0)" xlink:href="#aE"/><use transform="matrix(0.010850694444444444,0,0,0.010850694444444444,35.48177083333333,0)" xlink:href="#J"/><use transform="matrix(0.010850694444444444,0,0,0.010850694444444444,50.88975694444444,0)" xlink:href="#aF"/><use transform="matrix(0.010850694444444444,0,0,0.010850694444444444,69.66145833333333,0)" xlink:href="#aG"/><use transform="matrix(0.010850694444444444,0,0,0.010850694444444444,89.51822916666666,0)" xlink:href="#V"/><use transform="matrix(0.010850694444444444,0,0,0.010850694444444444,109.37499999999997,0)" xlink:href="#M"/><use transform="matrix(0.010850694444444444,0,0,0.010850694444444444,127.82118055555556,0)" xlink:href="#ak"/><use transform="matrix(0.010850694444444444,0,0,0.010850694444444444,145.72482638888889,0)" xlink:href="#an"/><use transform="matrix(0.010850694444444444,0,0,0.010850694444444444,151.89887152777777,0)" xlink:href="#aH"/><use transform="matrix(0.010850694444444444,0,0,0.010850694444444444,167.08984375,0)" xlink:href="#aE"/><use transform="matrix(0.010850694444444444,0,0,0.010850694444444444,183.79991319444443,0)" xlink:href="#M"/><use transform="matrix(0.010850694444444444,0,0,0.010850694444444444,202.24609375,0)" xlink:href="#R"/></g></defs></g></svg>