<svg xmlns="http://www.w3.org/2000/svg" xmlns:xlink="http://www.w3.org/1999/xlink" xmlns:lucid="lucid" width="1790" height="1262.08"><g transform="translate(-20 -20)" lucid:page-tab-id="b4FHpkozdkLx"><path d="M340 211.16a6 6 0 0 1 6-6h1248a6 6 0 0 1 6 6V474a6 6 0 0 1-6 6H346a6 6 0 0 1-6-6z" fill="#e5e5e5"/><path d="M341.5 211.16c0 .83-.67 1.5-1.5 1.5s-1.5-.67-1.5-1.5c0-.82.67-1.5 1.5-1.5s1.5.68 1.5 1.5zm6-6c0 .83-.67 1.5-1.5 1.5s-1.5-.67-1.5-1.5c0-.82.67-1.5 1.5-1.5s1.5.68 1.5 1.5zm12 0c0 .83-.67 1.5-1.5 1.5s-1.5-.67-1.5-1.5c0-.82.67-1.5 1.5-1.5s1.5.68 1.5 1.5zm12 0c0 .83-.67 1.5-1.5 1.5s-1.5-.67-1.5-1.5c0-.82.67-1.5 1.5-1.5s1.5.68 1.5 1.5zm12 0c0 .83-.67 1.5-1.5 1.5s-1.5-.67-1.5-1.5c0-.82.67-1.5 1.5-1.5s1.5.68 1.5 1.5zm12 0c0 .83-.67 1.5-1.5 1.5s-1.5-.67-1.5-1.5c0-.82.67-1.5 1.5-1.5s1.5.68 1.5 1.5zm12 0c0 .83-.67 1.5-1.5 1.5s-1.5-.67-1.5-1.5c0-.82.67-1.5 1.5-1.5s1.5.68 1.5 1.5zm12 0c0 .83-.67 1.5-1.5 1.5s-1.5-.67-1.5-1.5c0-.82.67-1.5 1.5-1.5s1.5.68 1.5 1.5zm12 0c0 .83-.67 1.5-1.5 1.5s-1.5-.67-1.5-1.5c0-.82.67-1.5 1.5-1.5s1.5.68 1.5 1.5zm12 0c0 .83-.67 1.5-1.5 1.5s-1.5-.67-1.5-1.5c0-.82.67-1.5 1.5-1.5s1.5.68 1.5 1.5zm12 0c0 .83-.67 1.5-1.5 1.5s-1.5-.67-1.5-1.5c0-.82.67-1.5 1.5-1.5s1.5.68 1.5 1.5zm12 0c0 .83-.67 1.5-1.5 1.5s-1.5-.67-1.5-1.5c0-.82.67-1.5 1.5-1.5s1.5.68 1.5 1.5zm12 0c0 .83-.67 1.5-1.5 1.5s-1.5-.67-1.5-1.5c0-.82.67-1.5 1.5-1.5s1.5.68 1.5 1.5zm12 0c0 .83-.67 1.5-1.5 1.5s-1.5-.67-1.5-1.5c0-.82.67-1.5 1.5-1.5s1.5.68 1.5 1.5zm12 0c0 .83-.67 1.5-1.5 1.5s-1.5-.67-1.5-1.5c0-.82.67-1.5 1.5-1.5s1.5.68 1.5 1.5zm12 0c0 .83-.67 1.5-1.5 1.5s-1.5-.67-1.5-1.5c0-.82.67-1.5 1.5-1.5s1.5.68 1.5 1.5zm12 0c0 .83-.67 1.5-1.5 1.5s-1.5-.67-1.5-1.5c0-.82.67-1.5 1.5-1.5s1.5.68 1.5 1.5zm12 0c0 .83-.67 1.5-1.5 1.5s-1.5-.67-1.5-1.5c0-.82.67-1.5 1.5-1.5s1.5.68 1.5 1.5zm12 0c0 .83-.67 1.5-1.5 1.5s-1.5-.67-1.5-1.5c0-.82.67-1.5 1.5-1.5s1.5.68 1.5 1.5zm12 0c0 .83-.67 1.5-1.5 1.5s-1.5-.67-1.5-1.5c0-.82.67-1.5 1.5-1.5s1.5.68 1.5 1.5zm12 0c0 .83-.67 1.5-1.5 1.5s-1.5-.67-1.5-1.5c0-.82.67-1.5 1.5-1.5s1.5.68 1.5 1.5zm12 0c0 .83-.67 1.5-1.5 1.5s-1.5-.67-1.5-1.5c0-.82.67-1.5 1.5-1.5s1.5.68 1.5 1.5zm12 0c0 .83-.67 1.5-1.5 1.5s-1.5-.67-1.5-1.5c0-.82.67-1.5 1.5-1.5s1.5.68 1.5 1.5zm12 0c0 .83-.67 1.5-1.5 1.5s-1.5-.67-1.5-1.5c0-.82.67-1.5 1.5-1.5s1.5.68 1.5 1.5zm12 0c0 .83-.67 1.5-1.5 1.5s-1.5-.67-1.5-1.5c0-.82.67-1.5 1.5-1.5s1.5.68 1.5 1.5zm12 0c0 .83-.67 1.5-1.5 1.5s-1.5-.67-1.5-1.5c0-.82.67-1.5 1.5-1.5s1.5.68 1.5 1.5zm12 0c0 .83-.67 1.5-1.5 1.5s-1.5-.67-1.5-1.5c0-.82.67-1.5 1.5-1.5s1.5.68 1.5 1.5zm12 0c0 .83-.67 1.5-1.5 1.5s-1.5-.67-1.5-1.5c0-.82.67-1.5 1.5-1.5s1.5.68 1.5 1.5zm12 0c0 .83-.67 1.5-1.5 1.5s-1.5-.67-1.5-1.5c0-.82.67-1.5 1.5-1.5s1.5.68 1.5 1.5zm12 0c0 .83-.67 1.5-1.5 1.5s-1.5-.67-1.5-1.5c0-.82.67-1.5 1.5-1.5s1.5.68 1.5 1.5zm12 0c0 .83-.67 1.5-1.5 1.5s-1.5-.67-1.5-1.5c0-.82.67-1.5 1.5-1.5s1.5.68 1.5 1.5zm12 0c0 .83-.67 1.5-1.5 1.5s-1.5-.67-1.5-1.5c0-.82.67-1.5 1.5-1.5s1.5.68 1.5 1.5zm12 0c0 .83-.67 1.5-1.5 1.5s-1.5-.67-1.5-1.5c0-.82.67-1.5 1.5-1.5s1.5.68 1.5 1.5zm12 0c0 .83-.67 1.5-1.5 1.5s-1.5-.67-1.5-1.5c0-.82.67-1.5 1.5-1.5s1.5.68 1.5 1.5zm12 0c0 .83-.67 1.5-1.5 1.5s-1.5-.67-1.5-1.5c0-.82.67-1.5 1.5-1.5s1.5.68 1.5 1.5zm12 0c0 .83-.67 1.5-1.5 1.5s-1.5-.67-1.5-1.5c0-.82.67-1.5 1.5-1.5s1.5.68 1.5 1.5zm12 0c0 .83-.67 1.5-1.5 1.5s-1.5-.67-1.5-1.5c0-.82.67-1.5 1.5-1.5s1.5.68 1.5 1.5zm12 0c0 .83-.67 1.5-1.5 1.5s-1.5-.67-1.5-1.5c0-.82.67-1.5 1.5-1.5s1.5.68 1.5 1.5zm12 0c0 .83-.67 1.5-1.5 1.5s-1.5-.67-1.5-1.5c0-.82.67-1.5 1.5-1.5s1.5.68 1.5 1.5zm12 0c0 .83-.67 1.5-1.5 1.5s-1.5-.67-1.5-1.5c0-.82.67-1.5 1.5-1.5s1.5.68 1.5 1.5zm12 0c0 .83-.67 1.5-1.5 1.5s-1.5-.67-1.5-1.5c0-.82.67-1.5 1.5-1.5s1.5.68 1.5 1.5zm12 0c0 .83-.67 1.5-1.5 1.5s-1.5-.67-1.5-1.5c0-.82.67-1.5 1.5-1.5s1.5.68 1.5 1.5zm12 0c0 .83-.67 1.5-1.5 1.5s-1.5-.67-1.5-1.5c0-.82.67-1.5 1.5-1.5s1.5.68 1.5 1.5zm12 0c0 .83-.67 1.5-1.5 1.5s-1.5-.67-1.5-1.5c0-.82.67-1.5 1.5-1.5s1.5.68 1.5 1.5zm12 0c0 .83-.67 1.5-1.5 1.5s-1.5-.67-1.5-1.5c0-.82.67-1.5 1.5-1.5s1.5.68 1.5 1.5zm12 0c0 .83-.67 1.5-1.5 1.5s-1.5-.67-1.5-1.5c0-.82.67-1.5 1.5-1.5s1.5.68 1.5 1.5zm12 0c0 .83-.67 1.5-1.5 1.5s-1.5-.67-1.5-1.5c0-.82.67-1.5 1.5-1.5s1.5.68 1.5 1.5zm12 0c0 .83-.67 1.5-1.5 1.5s-1.5-.67-1.5-1.5c0-.82.67-1.5 1.5-1.5s1.5.68 1.5 1.5zm12 0c0 .83-.67 1.5-1.5 1.5s-1.5-.67-1.5-1.5c0-.82.67-1.5 1.5-1.5s1.5.68 1.5 1.5zm12 0c0 .83-.67 1.5-1.5 1.5s-1.5-.67-1.5-1.5c0-.82.67-1.5 1.5-1.5s1.5.68 1.5 1.5zm12 0c0 .83-.67 1.5-1.5 1.5s-1.5-.67-1.5-1.5c0-.82.67-1.5 1.5-1.5s1.5.68 1.5 1.5zm12 0c0 .83-.67 1.5-1.5 1.5s-1.5-.67-1.5-1.5c0-.82.67-1.5 1.5-1.5s1.5.68 1.5 1.5zm12 0c0 .83-.67 1.5-1.5 1.5s-1.5-.67-1.5-1.5c0-.82.67-1.5 1.5-1.5s1.5.68 1.5 1.5zm12 0c0 .83-.67 1.5-1.5 1.5s-1.5-.67-1.5-1.5c0-.82.67-1.5 1.5-1.5s1.5.68 1.5 1.5zm12 0c0 .83-.67 1.5-1.5 1.5s-1.5-.67-1.5-1.5c0-.82.67-1.5 1.5-1.5s1.5.68 1.5 1.5zm12 0c0 .83-.67 1.5-1.5 1.5s-1.5-.67-1.5-1.5c0-.82.67-1.5 1.5-1.5s1.5.68 1.5 1.5zm12 0c0 .83-.67 1.5-1.5 1.5s-1.5-.67-1.5-1.5c0-.82.67-1.5 1.5-1.5s1.5.68 1.5 1.5zm12 0c0 .83-.67 1.5-1.5 1.5s-1.5-.67-1.5-1.5c0-.82.67-1.5 1.5-1.5s1.5.68 1.5 1.5zm12 0c0 .83-.67 1.5-1.5 1.5s-1.5-.67-1.5-1.5c0-.82.67-1.5 1.5-1.5s1.5.68 1.5 1.5zm12 0c0 .83-.67 1.5-1.5 1.5s-1.5-.67-1.5-1.5c0-.82.67-1.5 1.5-1.5s1.5.68 1.5 1.5zm12 0c0 .83-.67 1.5-1.5 1.5s-1.5-.67-1.5-1.5c0-.82.67-1.5 1.5-1.5s1.5.68 1.5 1.5zm12 0c0 .83-.67 1.5-1.5 1.5s-1.5-.67-1.5-1.5c0-.82.67-1.5 1.5-1.5s1.5.68 1.5 1.5zm12 0c0 .83-.67 1.5-1.5 1.5s-1.5-.67-1.5-1.5c0-.82.67-1.5 1.5-1.5s1.5.68 1.5 1.5zm12 0c0 .83-.67 1.5-1.5 1.5s-1.5-.67-1.5-1.5c0-.82.67-1.5 1.5-1.5s1.5.68 1.5 1.5zm12 0c0 .83-.67 1.5-1.5 1.5s-1.5-.67-1.5-1.5c0-.82.67-1.5 1.5-1.5s1.5.68 1.5 1.5zm12 0c0 .83-.67 1.5-1.5 1.5s-1.5-.67-1.5-1.5c0-.82.67-1.5 1.5-1.5s1.5.68 1.5 1.5zm12 0c0 .83-.67 1.5-1.5 1.5s-1.5-.67-1.5-1.5c0-.82.67-1.5 1.5-1.5s1.5.68 1.5 1.5zm12 0c0 .83-.67 1.5-1.5 1.5s-1.5-.67-1.5-1.5c0-.82.67-1.5 1.5-1.5s1.5.68 1.5 1.5zm12 0c0 .83-.67 1.5-1.5 1.5s-1.5-.67-1.5-1.5c0-.82.67-1.5 1.5-1.5s1.5.68 1.5 1.5zm12 0c0 .83-.67 1.5-1.5 1.5s-1.5-.67-1.5-1.5c0-.82.67-1.5 1.5-1.5s1.5.68 1.5 1.5zm12 0c0 .83-.67 1.5-1.5 1.5s-1.5-.67-1.5-1.5c0-.82.67-1.5 1.5-1.5s1.5.68 1.5 1.5zm12 0c0 .83-.67 1.5-1.5 1.5s-1.5-.67-1.5-1.5c0-.82.67-1.5 1.5-1.5s1.5.68 1.5 1.5zm12 0c0 .83-.67 1.5-1.5 1.5s-1.5-.67-1.5-1.5c0-.82.67-1.5 1.5-1.5s1.5.68 1.5 1.5zm12 0c0 .83-.67 1.5-1.5 1.5s-1.5-.67-1.5-1.5c0-.82.67-1.5 1.5-1.5s1.5.68 1.5 1.5zm12 0c0 .83-.67 1.5-1.5 1.5s-1.5-.67-1.5-1.5c0-.82.67-1.5 1.5-1.5s1.5.68 1.5 1.5zm12 0c0 .83-.67 1.5-1.5 1.5s-1.5-.67-1.5-1.5c0-.82.67-1.5 1.5-1.5s1.5.68 1.5 1.5zm12 0c0 .83-.67 1.5-1.5 1.5s-1.5-.67-1.5-1.5c0-.82.67-1.5 1.5-1.5s1.5.68 1.5 1.5zm12 0c0 .83-.67 1.5-1.5 1.5s-1.5-.67-1.5-1.5c0-.82.67-1.5 1.5-1.5s1.5.68 1.5 1.5zm12 0c0 .83-.67 1.5-1.5 1.5s-1.5-.67-1.5-1.5c0-.82.67-1.5 1.5-1.5s1.5.68 1.5 1.5zm12 0c0 .83-.67 1.5-1.5 1.5s-1.5-.67-1.5-1.5c0-.82.67-1.5 1.5-1.5s1.5.68 1.5 1.5zm12 0c0 .83-.67 1.5-1.5 1.5s-1.5-.67-1.5-1.5c0-.82.67-1.5 1.5-1.5s1.5.68 1.5 1.5zm12 0c0 .83-.67 1.5-1.5 1.5s-1.5-.67-1.5-1.5c0-.82.67-1.5 1.5-1.5s1.5.68 1.5 1.5zm12 0c0 .83-.67 1.5-1.5 1.5s-1.5-.67-1.5-1.5c0-.82.67-1.5 1.5-1.5s1.5.68 1.5 1.5zm12 0c0 .83-.67 1.5-1.5 1.5s-1.5-.67-1.5-1.5c0-.82.67-1.5 1.5-1.5s1.5.68 1.5 1.5zm12 0c0 .83-.67 1.5-1.5 1.5s-1.5-.67-1.5-1.5c0-.82.67-1.5 1.5-1.5s1.5.68 1.5 1.5zm12 0c0 .83-.67 1.5-1.5 1.5s-1.5-.67-1.5-1.5c0-.82.67-1.5 1.5-1.5s1.5.68 1.5 1.5zm12 0c0 .83-.67 1.5-1.5 1.5s-1.5-.67-1.5-1.5c0-.82.67-1.5 1.5-1.5s1.5.68 1.5 1.5zm12 0c0 .83-.67 1.5-1.5 1.5s-1.5-.67-1.5-1.5c0-.82.67-1.5 1.5-1.5s1.5.68 1.5 1.5zm12 0c0 .83-.67 1.5-1.5 1.5s-1.5-.67-1.5-1.5c0-.82.67-1.5 1.5-1.5s1.5.68 1.5 1.5zm12 0c0 .83-.67 1.5-1.5 1.5s-1.5-.67-1.5-1.5c0-.82.67-1.5 1.5-1.5s1.5.68 1.5 1.5zm12 0c0 .83-.67 1.5-1.5 1.5s-1.5-.67-1.5-1.5c0-.82.67-1.5 1.5-1.5s1.5.68 1.5 1.5zm12 0c0 .83-.67 1.5-1.5 1.5s-1.5-.67-1.5-1.5c0-.82.67-1.5 1.5-1.5s1.5.68 1.5 1.5zm12 0c0 .83-.67 1.5-1.5 1.5s-1.5-.67-1.5-1.5c0-.82.67-1.5 1.5-1.5s1.5.68 1.5 1.5zm12 0c0 .83-.67 1.5-1.5 1.5s-1.5-.67-1.5-1.5c0-.82.67-1.5 1.5-1.5s1.5.68 1.5 1.5zm12 0c0 .83-.67 1.5-1.5 1.5s-1.5-.67-1.5-1.5c0-.82.67-1.5 1.5-1.5s1.5.68 1.5 1.5zm12 0c0 .83-.67 1.5-1.5 1.5s-1.5-.67-1.5-1.5c0-.82.67-1.5 1.5-1.5s1.5.68 1.5 1.5zm12 0c0 .83-.67 1.5-1.5 1.5s-1.5-.67-1.5-1.5c0-.82.67-1.5 1.5-1.5s1.5.68 1.5 1.5zm12 0c0 .83-.67 1.5-1.5 1.5s-1.5-.67-1.5-1.5c0-.82.67-1.5 1.5-1.5s1.5.68 1.5 1.5zm12 0c0 .83-.67 1.5-1.5 1.5s-1.5-.67-1.5-1.5c0-.82.67-1.5 1.5-1.5s1.5.68 1.5 1.5zm12 0c0 .83-.67 1.5-1.5 1.5s-1.5-.67-1.5-1.5c0-.82.67-1.5 1.5-1.5s1.5.68 1.5 1.5zm12 0c0 .83-.67 1.5-1.5 1.5s-1.5-.67-1.5-1.5c0-.82.67-1.5 1.5-1.5s1.5.68 1.5 1.5zm12 0c0 .83-.67 1.5-1.5 1.5s-1.5-.67-1.5-1.5c0-.82.67-1.5 1.5-1.5s1.5.68 1.5 1.5zm12 0c0 .83-.67 1.5-1.5 1.5s-1.5-.67-1.5-1.5c0-.82.67-1.5 1.5-1.5s1.5.68 1.5 1.5zm12 0c0 .83-.67 1.5-1.5 1.5s-1.5-.67-1.5-1.5c0-.82.67-1.5 1.5-1.5s1.5.68 1.5 1.5zm12 0c0 .83-.67 1.5-1.5 1.5s-1.5-.67-1.5-1.5c0-.82.67-1.5 1.5-1.5s1.5.68 1.5 1.5zm12 0c0 .83-.67 1.5-1.5 1.5s-1.5-.67-1.5-1.5c0-.82.67-1.5 1.5-1.5s1.5.68 1.5 1.5zm6 6c0 .83-.67 1.5-1.5 1.5s-1.5-.67-1.5-1.5c0-.82.67-1.5 1.5-1.5s1.5.68 1.5 1.5zm0 11.95c0 .84-.67 1.5-1.5 1.5s-1.5-.66-1.5-1.5c0-.82.67-1.5 1.5-1.5s1.5.68 1.5 1.5zm0 11.96c0 .83-.67 1.5-1.5 1.5s-1.5-.67-1.5-1.5.67-1.5 1.5-1.5 1.5.67 1.5 1.5zm0 11.95c0 .84-.67 1.5-1.5 1.5s-1.5-.66-1.5-1.5c0-.82.67-1.5 1.5-1.5s1.5.68 1.5 1.5zm0 11.95c0 .83-.67 1.5-1.5 1.5s-1.5-.67-1.5-1.5c0-.82.67-1.5 1.5-1.5s1.5.68 1.5 1.5zm0 11.95c0 .83-.67 1.5-1.5 1.5s-1.5-.67-1.5-1.5.67-1.5 1.5-1.5 1.5.67 1.5 1.5zm0 11.95c0 .83-.67 1.5-1.5 1.5s-1.5-.67-1.5-1.5.67-1.5 1.5-1.5 1.5.67 1.5 1.5zm0 11.94c0 .82-.67 1.5-1.5 1.5s-1.5-.68-1.5-1.5c0-.83.67-1.5 1.5-1.5s1.5.67 1.5 1.5zm0 11.94c0 .83-.67 1.5-1.5 1.5s-1.5-.67-1.5-1.5.67-1.5 1.5-1.5 1.5.67 1.5 1.5zm0 11.95c0 .82-.67 1.5-1.5 1.5s-1.5-.68-1.5-1.5c0-.84.67-1.5 1.5-1.5s1.5.66 1.5 1.5zm0 11.94c0 .82-.67 1.5-1.5 1.5s-1.5-.68-1.5-1.5c0-.83.67-1.5 1.5-1.5s1.5.67 1.5 1.5zm0 11.94c0 .83-.67 1.5-1.5 1.5s-1.5-.67-1.5-1.5.67-1.5 1.5-1.5 1.5.67 1.5 1.5zm0 11.95c0 .83-.67 1.5-1.5 1.5s-1.5-.67-1.5-1.5.67-1.5 1.5-1.5 1.5.67 1.5 1.5zm0 11.95c0 .82-.67 1.5-1.5 1.5s-1.5-.68-1.5-1.5c0-.83.67-1.5 1.5-1.5s1.5.67 1.5 1.5zm0 11.94c0 .83-.67 1.5-1.5 1.5s-1.5-.67-1.5-1.5c0-.82.67-1.5 1.5-1.5s1.5.68 1.5 1.5zm0 11.95c0 .83-.67 1.5-1.5 1.5s-1.5-.67-1.5-1.5.67-1.5 1.5-1.5 1.5.67 1.5 1.5zm0 11.95c0 .83-.67 1.5-1.5 1.5s-1.5-.67-1.5-1.5.67-1.5 1.5-1.5 1.5.67 1.5 1.5zm0 11.94c0 .83-.67 1.5-1.5 1.5s-1.5-.67-1.5-1.5c0-.82.67-1.5 1.5-1.5s1.5.68 1.5 1.5zm0 11.95c0 .84-.67 1.5-1.5 1.5s-1.5-.66-1.5-1.5c0-.82.67-1.5 1.5-1.5s1.5.68 1.5 1.5zm0 11.96c0 .83-.67 1.5-1.5 1.5s-1.5-.67-1.5-1.5.67-1.5 1.5-1.5 1.5.67 1.5 1.5zm0 11.95c0 .83-.67 1.5-1.5 1.5s-1.5-.67-1.5-1.5c0-.82.67-1.5 1.5-1.5s1.5.68 1.5 1.5zm0 11.95c0 .83-.67 1.5-1.5 1.5s-1.5-.67-1.5-1.5c0-.82.67-1.5 1.5-1.5s1.5.68 1.5 1.5zm0 11.95c0 .83-.67 1.5-1.5 1.5s-1.5-.67-1.5-1.5.67-1.5 1.5-1.5 1.5.67 1.5 1.5zm-6 6c0 .83-.67 1.5-1.5 1.5s-1.5-.67-1.5-1.5.67-1.5 1.5-1.5 1.5.67 1.5 1.5zm-12 0c0 .83-.67 1.5-1.5 1.5s-1.5-.67-1.5-1.5.67-1.5 1.5-1.5 1.5.67 1.5 1.5zm-12 0c0 .83-.67 1.5-1.5 1.5s-1.5-.67-1.5-1.5.67-1.5 1.5-1.5 1.5.67 1.5 1.5zm-12 0c0 .83-.67 1.5-1.5 1.5s-1.5-.67-1.5-1.5.67-1.5 1.5-1.5 1.5.67 1.5 1.5zm-12 0c0 .83-.67 1.5-1.5 1.5s-1.5-.67-1.5-1.5.67-1.5 1.5-1.5 1.5.67 1.5 1.5zm-12 0c0 .83-.67 1.5-1.5 1.5s-1.5-.67-1.5-1.5.67-1.5 1.5-1.5 1.5.67 1.5 1.5zm-12 0c0 .83-.67 1.5-1.5 1.5s-1.5-.67-1.5-1.5.67-1.5 1.5-1.5 1.5.67 1.5 1.5zm-12 0c0 .83-.67 1.5-1.5 1.5s-1.5-.67-1.5-1.5.67-1.5 1.5-1.5 1.5.67 1.5 1.5zm-12 0c0 .83-.67 1.5-1.5 1.5s-1.5-.67-1.5-1.5.67-1.5 1.5-1.5 1.5.67 1.5 1.5zm-12 0c0 .83-.67 1.5-1.5 1.5s-1.5-.67-1.5-1.5.67-1.5 1.5-1.5 1.5.67 1.5 1.5zm-12 0c0 .83-.67 1.5-1.5 1.5s-1.5-.67-1.5-1.5.67-1.5 1.5-1.5 1.5.67 1.5 1.5zm-12 0c0 .83-.67 1.5-1.5 1.5s-1.5-.67-1.5-1.5.67-1.5 1.5-1.5 1.5.67 1.5 1.5zm-12 0c0 .83-.67 1.5-1.5 1.5s-1.5-.67-1.5-1.5.67-1.5 1.5-1.5 1.5.67 1.5 1.5zm-12 0c0 .83-.67 1.5-1.5 1.5s-1.5-.67-1.5-1.5.67-1.5 1.5-1.5 1.5.67 1.5 1.5zm-12 0c0 .83-.67 1.5-1.5 1.5s-1.5-.67-1.5-1.5.67-1.5 1.5-1.5 1.5.67 1.5 1.5zm-12 0c0 .83-.67 1.5-1.5 1.5s-1.5-.67-1.5-1.5.67-1.5 1.5-1.5 1.5.67 1.5 1.5zm-12 0c0 .83-.67 1.5-1.5 1.5s-1.5-.67-1.5-1.5.67-1.5 1.5-1.5 1.5.67 1.5 1.5zm-12 0c0 .83-.67 1.5-1.5 1.5s-1.5-.67-1.5-1.5.67-1.5 1.5-1.5 1.5.67 1.5 1.5zm-12 0c0 .83-.67 1.5-1.5 1.5s-1.5-.67-1.5-1.5.67-1.5 1.5-1.5 1.5.67 1.5 1.5zm-12 0c0 .83-.67 1.5-1.5 1.5s-1.5-.67-1.5-1.5.67-1.5 1.5-1.5 1.5.67 1.5 1.5zm-12 0c0 .83-.67 1.5-1.5 1.5s-1.5-.67-1.5-1.5.67-1.5 1.5-1.5 1.5.67 1.5 1.5zm-12 0c0 .83-.67 1.5-1.5 1.5s-1.5-.67-1.5-1.5.67-1.5 1.5-1.5 1.5.67 1.5 1.5zm-12 0c0 .83-.67 1.5-1.5 1.5s-1.5-.67-1.5-1.5.67-1.5 1.5-1.5 1.5.67 1.5 1.5zm-12 0c0 .83-.67 1.5-1.5 1.5s-1.5-.67-1.5-1.5.67-1.5 1.5-1.5 1.5.67 1.5 1.5zm-12 0c0 .83-.67 1.5-1.5 1.5s-1.5-.67-1.5-1.5.67-1.5 1.5-1.5 1.5.67 1.5 1.5zm-12 0c0 .83-.67 1.5-1.5 1.5s-1.5-.67-1.5-1.5.67-1.5 1.5-1.5 1.5.67 1.5 1.5zm-12 0c0 .83-.67 1.5-1.5 1.5s-1.5-.67-1.5-1.5.67-1.5 1.5-1.5 1.5.67 1.5 1.5zm-12 0c0 .83-.67 1.5-1.5 1.5s-1.5-.67-1.5-1.5.67-1.5 1.5-1.5 1.5.67 1.5 1.5zm-12 0c0 .83-.67 1.5-1.5 1.5s-1.5-.67-1.5-1.5.67-1.5 1.5-1.5 1.5.67 1.5 1.5zm-12 0c0 .83-.67 1.5-1.5 1.5s-1.5-.67-1.5-1.5.67-1.5 1.5-1.5 1.5.67 1.5 1.5zm-12 0c0 .83-.67 1.5-1.5 1.5s-1.5-.67-1.5-1.5.67-1.5 1.5-1.5 1.5.67 1.5 1.5zm-12 0c0 .83-.67 1.5-1.5 1.5s-1.5-.67-1.5-1.5.67-1.5 1.5-1.5 1.5.67 1.5 1.5zm-12 0c0 .83-.67 1.5-1.5 1.5s-1.5-.67-1.5-1.5.67-1.5 1.5-1.5 1.5.67 1.5 1.5zm-12 0c0 .83-.67 1.5-1.5 1.5s-1.5-.67-1.5-1.5.67-1.5 1.5-1.5 1.5.67 1.5 1.5zm-12 0c0 .83-.67 1.5-1.5 1.5s-1.5-.67-1.5-1.5.67-1.5 1.5-1.5 1.5.67 1.5 1.5zm-12 0c0 .83-.67 1.5-1.5 1.5s-1.5-.67-1.5-1.5.67-1.5 1.5-1.5 1.5.67 1.5 1.5zm-12 0c0 .83-.67 1.5-1.5 1.5s-1.5-.67-1.5-1.5.67-1.5 1.5-1.5 1.5.67 1.5 1.5zm-12 0c0 .83-.67 1.5-1.5 1.5s-1.5-.67-1.5-1.5.67-1.5 1.5-1.5 1.5.67 1.5 1.5zm-12 0c0 .83-.67 1.5-1.5 1.5s-1.5-.67-1.5-1.5.67-1.5 1.5-1.5 1.5.67 1.5 1.5zm-12 0c0 .83-.67 1.5-1.5 1.5s-1.5-.67-1.5-1.5.67-1.5 1.5-1.5 1.5.67 1.5 1.5zm-12 0c0 .83-.67 1.5-1.5 1.5s-1.5-.67-1.5-1.5.67-1.5 1.5-1.5 1.5.67 1.5 1.5zm-12 0c0 .83-.67 1.5-1.5 1.5s-1.5-.67-1.5-1.5.67-1.5 1.5-1.5 1.5.67 1.5 1.5zm-12 0c0 .83-.67 1.5-1.5 1.5s-1.5-.67-1.5-1.5.67-1.5 1.5-1.5 1.5.67 1.5 1.5zm-12 0c0 .83-.67 1.5-1.5 1.5s-1.5-.67-1.5-1.5.67-1.5 1.5-1.5 1.5.67 1.5 1.5zm-12 0c0 .83-.67 1.5-1.5 1.5s-1.5-.67-1.5-1.5.67-1.5 1.5-1.5 1.5.67 1.5 1.5zm-12 0c0 .83-.67 1.5-1.5 1.5s-1.5-.67-1.5-1.5.67-1.5 1.5-1.5 1.5.67 1.5 1.5zm-12 0c0 .83-.67 1.5-1.5 1.5s-1.5-.67-1.5-1.5.67-1.5 1.5-1.5 1.5.67 1.5 1.5zm-12 0c0 .83-.67 1.5-1.5 1.5s-1.5-.67-1.5-1.5.67-1.5 1.5-1.5 1.5.67 1.5 1.5zm-12 0c0 .83-.67 1.5-1.5 1.5s-1.5-.67-1.5-1.5.67-1.5 1.5-1.5 1.5.67 1.5 1.5zm-12 0c0 .83-.67 1.5-1.5 1.5s-1.5-.67-1.5-1.5.67-1.5 1.5-1.5 1.5.67 1.5 1.5zm-12 0c0 .83-.67 1.5-1.5 1.5s-1.5-.67-1.5-1.5.67-1.5 1.5-1.5 1.5.67 1.5 1.5zm-12 0c0 .83-.67 1.5-1.5 1.5s-1.5-.67-1.5-1.5.67-1.5 1.5-1.5 1.5.67 1.5 1.5zm-12 0c0 .83-.67 1.5-1.5 1.5s-1.5-.67-1.5-1.5.67-1.5 1.5-1.5 1.5.67 1.5 1.5zm-12 0c0 .83-.67 1.5-1.5 1.5s-1.5-.67-1.5-1.5.67-1.5 1.5-1.5 1.5.67 1.5 1.5zm-12 0c0 .83-.67 1.5-1.5 1.5s-1.5-.67-1.5-1.5.67-1.5 1.5-1.5 1.5.67 1.5 1.5zm-12 0c0 .83-.67 1.5-1.5 1.5s-1.5-.67-1.5-1.5.67-1.5 1.5-1.5 1.5.67 1.5 1.5zm-12 0c0 .83-.67 1.5-1.5 1.5s-1.5-.67-1.5-1.5.67-1.5 1.5-1.5 1.5.67 1.5 1.5zm-12 0c0 .83-.67 1.5-1.5 1.5s-1.5-.67-1.5-1.5.67-1.5 1.5-1.5 1.5.67 1.5 1.5zm-12 0c0 .83-.67 1.5-1.5 1.5s-1.5-.67-1.5-1.5.67-1.5 1.5-1.5 1.5.67 1.5 1.5zm-12 0c0 .83-.67 1.5-1.5 1.5s-1.5-.67-1.5-1.5.67-1.5 1.5-1.5 1.5.67 1.5 1.5zm-12 0c0 .83-.67 1.5-1.5 1.5s-1.5-.67-1.5-1.5.67-1.5 1.5-1.5 1.5.67 1.5 1.5zm-12 0c0 .83-.67 1.5-1.5 1.5s-1.5-.67-1.5-1.5.67-1.5 1.5-1.5 1.5.67 1.5 1.5zm-12 0c0 .83-.67 1.5-1.5 1.5s-1.5-.67-1.5-1.5.67-1.5 1.5-1.5 1.5.67 1.5 1.5zm-12 0c0 .83-.67 1.5-1.5 1.5s-1.5-.67-1.5-1.5.67-1.5 1.5-1.5 1.5.67 1.5 1.5zm-12 0c0 .83-.67 1.5-1.5 1.5s-1.5-.67-1.5-1.5.67-1.5 1.5-1.5 1.5.67 1.5 1.5zm-12 0c0 .83-.67 1.5-1.5 1.5s-1.5-.67-1.5-1.5.67-1.5 1.5-1.5 1.5.67 1.5 1.5zm-12 0c0 .83-.67 1.5-1.5 1.5s-1.5-.67-1.5-1.5.67-1.5 1.5-1.5 1.5.67 1.5 1.5zm-12 0c0 .83-.67 1.5-1.5 1.5s-1.5-.67-1.5-1.5.67-1.5 1.5-1.5 1.5.67 1.5 1.5zm-12 0c0 .83-.67 1.5-1.5 1.5s-1.5-.67-1.5-1.5.67-1.5 1.5-1.5 1.5.67 1.5 1.5zm-12 0c0 .83-.67 1.5-1.5 1.5s-1.5-.67-1.5-1.5.67-1.5 1.5-1.5 1.5.67 1.5 1.5zm-12 0c0 .83-.67 1.5-1.5 1.5s-1.5-.67-1.5-1.5.67-1.5 1.5-1.5 1.5.67 1.5 1.5zm-12 0c0 .83-.67 1.5-1.5 1.5s-1.5-.67-1.5-1.5.67-1.5 1.5-1.5 1.5.67 1.5 1.5zm-12 0c0 .83-.67 1.5-1.5 1.5s-1.5-.67-1.5-1.5.67-1.5 1.5-1.5 1.5.67 1.5 1.5zm-12 0c0 .83-.67 1.5-1.5 1.5s-1.5-.67-1.5-1.5.67-1.5 1.5-1.5 1.5.67 1.5 1.5zm-12 0c0 .83-.67 1.5-1.5 1.5s-1.5-.67-1.5-1.5.67-1.5 1.5-1.5 1.5.67 1.5 1.5zm-12 0c0 .83-.67 1.5-1.5 1.5s-1.5-.67-1.5-1.5.67-1.5 1.5-1.5 1.5.67 1.5 1.5zm-12 0c0 .83-.67 1.5-1.5 1.5s-1.5-.67-1.5-1.5.67-1.5 1.5-1.5 1.5.67 1.5 1.5zm-12 0c0 .83-.67 1.5-1.5 1.5s-1.5-.67-1.5-1.5.67-1.5 1.5-1.5 1.5.67 1.5 1.5zm-12 0c0 .83-.67 1.5-1.5 1.5s-1.5-.67-1.5-1.5.67-1.5 1.5-1.5 1.5.67 1.5 1.5zm-12 0c0 .83-.67 1.5-1.5 1.5s-1.5-.67-1.5-1.5.67-1.5 1.5-1.5 1.5.67 1.5 1.5zm-12 0c0 .83-.67 1.5-1.5 1.5s-1.5-.67-1.5-1.5.67-1.5 1.5-1.5 1.5.67 1.5 1.5zm-12 0c0 .83-.67 1.5-1.5 1.5s-1.5-.67-1.5-1.5.67-1.5 1.5-1.5 1.5.67 1.5 1.5zm-12 0c0 .83-.67 1.5-1.5 1.5s-1.5-.67-1.5-1.5.67-1.5 1.5-1.5 1.5.67 1.5 1.5zm-12 0c0 .83-.67 1.5-1.5 1.5s-1.5-.67-1.5-1.5.67-1.5 1.5-1.5 1.5.67 1.5 1.5zm-12 0c0 .83-.67 1.5-1.5 1.5s-1.5-.67-1.5-1.5.67-1.5 1.5-1.5 1.5.67 1.5 1.5zm-12 0c0 .83-.67 1.5-1.5 1.5s-1.5-.67-1.5-1.5.67-1.5 1.5-1.5 1.5.67 1.5 1.5zm-12 0c0 .83-.67 1.5-1.5 1.5s-1.5-.67-1.5-1.5.67-1.5 1.5-1.5 1.5.67 1.5 1.5zm-12 0c0 .83-.67 1.5-1.5 1.5s-1.5-.67-1.5-1.5.67-1.5 1.5-1.5 1.5.67 1.5 1.5zm-12 0c0 .83-.67 1.5-1.5 1.5s-1.5-.67-1.5-1.5.67-1.5 1.5-1.5 1.5.67 1.5 1.5zm-12 0c0 .83-.67 1.5-1.5 1.5s-1.5-.67-1.5-1.5.67-1.5 1.5-1.5 1.5.67 1.5 1.5zm-12 0c0 .83-.67 1.5-1.5 1.5s-1.5-.67-1.5-1.5.67-1.5 1.5-1.5 1.5.67 1.5 1.5zm-12 0c0 .83-.67 1.5-1.5 1.5s-1.5-.67-1.5-1.5.67-1.5 1.5-1.5 1.5.67 1.5 1.5zm-12 0c0 .83-.67 1.5-1.5 1.5s-1.5-.67-1.5-1.5.67-1.5 1.5-1.5 1.5.67 1.5 1.5zm-12 0c0 .83-.67 1.5-1.5 1.5s-1.5-.67-1.5-1.5.67-1.5 1.5-1.5 1.5.67 1.5 1.5zm-12 0c0 .83-.67 1.5-1.5 1.5s-1.5-.67-1.5-1.5.67-1.5 1.5-1.5 1.5.67 1.5 1.5zm-12 0c0 .83-.67 1.5-1.5 1.5s-1.5-.67-1.5-1.5.67-1.5 1.5-1.5 1.5.67 1.5 1.5zm-12 0c0 .83-.67 1.5-1.5 1.5s-1.5-.67-1.5-1.5.67-1.5 1.5-1.5 1.5.67 1.5 1.5zm-12 0c0 .83-.67 1.5-1.5 1.5s-1.5-.67-1.5-1.5.67-1.5 1.5-1.5 1.5.67 1.5 1.5zm-12 0c0 .83-.67 1.5-1.5 1.5s-1.5-.67-1.5-1.5.67-1.5 1.5-1.5 1.5.67 1.5 1.5zm-12 0c0 .83-.67 1.5-1.5 1.5s-1.5-.67-1.5-1.5.67-1.5 1.5-1.5 1.5.67 1.5 1.5zm-12 0c0 .83-.67 1.5-1.5 1.5s-1.5-.67-1.5-1.5.67-1.5 1.5-1.5 1.5.67 1.5 1.5zm-12 0c0 .83-.67 1.5-1.5 1.5s-1.5-.67-1.5-1.5.67-1.5 1.5-1.5 1.5.67 1.5 1.5zm-12 0c0 .83-.67 1.5-1.5 1.5s-1.5-.67-1.5-1.5.67-1.5 1.5-1.5 1.5.67 1.5 1.5zm-12 0c0 .83-.67 1.5-1.5 1.5s-1.5-.67-1.5-1.5.67-1.5 1.5-1.5 1.5.67 1.5 1.5zm-12 0c0 .83-.67 1.5-1.5 1.5s-1.5-.67-1.5-1.5.67-1.5 1.5-1.5 1.5.67 1.5 1.5zm-6-6c0 .83-.67 1.5-1.5 1.5s-1.5-.67-1.5-1.5.67-1.5 1.5-1.5 1.5.67 1.5 1.5zm0-11.95c0 .83-.67 1.5-1.5 1.5s-1.5-.67-1.5-1.5c0-.82.67-1.5 1.5-1.5s1.5.68 1.5 1.5zm0-11.94c0 .83-.67 1.5-1.5 1.5s-1.5-.67-1.5-1.5c0-.82.67-1.5 1.5-1.5s1.5.68 1.5 1.5zm0-11.94c0 .83-.67 1.5-1.5 1.5s-1.5-.67-1.5-1.5.67-1.5 1.5-1.5 1.5.67 1.5 1.5zm0-11.95c0 .84-.67 1.5-1.5 1.5s-1.5-.66-1.5-1.5c0-.82.67-1.5 1.5-1.5s1.5.68 1.5 1.5zm0-11.94c0 .83-.67 1.5-1.5 1.5s-1.5-.67-1.5-1.5c0-.82.67-1.5 1.5-1.5s1.5.68 1.5 1.5zm0-11.94c0 .83-.67 1.5-1.5 1.5s-1.5-.67-1.5-1.5.67-1.5 1.5-1.5 1.5.67 1.5 1.5zm0-11.95c0 .83-.67 1.5-1.5 1.5s-1.5-.67-1.5-1.5.67-1.5 1.5-1.5 1.5.67 1.5 1.5zm0-11.95c0 .83-.67 1.5-1.5 1.5s-1.5-.67-1.5-1.5c0-.82.67-1.5 1.5-1.5s1.5.68 1.5 1.5zm0-11.94c0 .82-.67 1.5-1.5 1.5s-1.5-.68-1.5-1.5c0-.83.67-1.5 1.5-1.5s1.5.67 1.5 1.5zm0-11.95c0 .83-.67 1.5-1.5 1.5s-1.5-.67-1.5-1.5.67-1.5 1.5-1.5 1.5.67 1.5 1.5zm0-11.95c0 .83-.67 1.5-1.5 1.5s-1.5-.67-1.5-1.5.67-1.5 1.5-1.5 1.5.67 1.5 1.5zm0-11.94c0 .82-.67 1.5-1.5 1.5s-1.5-.68-1.5-1.5c0-.83.67-1.5 1.5-1.5s1.5.67 1.5 1.5zm0-11.95c0 .82-.67 1.5-1.5 1.5s-1.5-.68-1.5-1.5c0-.84.67-1.5 1.5-1.5s1.5.66 1.5 1.5zm0-11.96c0 .83-.67 1.5-1.5 1.5s-1.5-.67-1.5-1.5.67-1.5 1.5-1.5 1.5.67 1.5 1.5zm0-11.95c0 .82-.67 1.5-1.5 1.5s-1.5-.68-1.5-1.5c0-.83.67-1.5 1.5-1.5s1.5.67 1.5 1.5zm0-11.95c0 .83-.67 1.5-1.5 1.5s-1.5-.67-1.5-1.5.67-1.5 1.5-1.5 1.5.67 1.5 1.5zm0-11.95c0 .83-.67 1.5-1.5 1.5s-1.5-.67-1.5-1.5.67-1.5 1.5-1.5 1.5.67 1.5 1.5zm0-11.95c0 .83-.67 1.5-1.5 1.5s-1.5-.67-1.5-1.5c0-.82.67-1.5 1.5-1.5s1.5.68 1.5 1.5zm0-11.94c0 .84-.67 1.5-1.5 1.5s-1.5-.66-1.5-1.5c0-.82.67-1.5 1.5-1.5s1.5.68 1.5 1.5zm0-11.94c0 .83-.67 1.5-1.5 1.5s-1.5-.67-1.5-1.5.67-1.5 1.5-1.5 1.5.67 1.5 1.5zm0-11.95c0 .84-.67 1.5-1.5 1.5s-1.5-.66-1.5-1.5c0-.82.67-1.5 1.5-1.5s1.5.68 1.5 1.5z" fill="#5e5e5e"/><use xlink:href="#a" transform="matrix(1,0,0,1,348,213.16521476810965) translate(509.58138020833337 20.1171875)"/><use xlink:href="#b" transform="matrix(1,0,0,1,348,213.16521476810965) translate(663.1187065972223 20.1171875)"/><path d="M179.75 264.58c0 10.9-8.84 19.75-19.75 19.75-10.9 0-19.75-8.84-19.75-19.75 0-10.9 8.84-19.74 19.75-19.74 10.9 0 19.75 8.84 19.75 19.74z" stroke="#5e5e5e" stroke-width="3" fill="#fff"/><path d="M160 284.33v49.3a20.7 20.7 0 0 0 3.2 11.07l36.8 58.13m-40-63.2l-40 63.2m0-98.75h80" stroke="#5e5e5e" stroke-width="3" fill="none"/><path d="M120 250.84a6 6 0 0 1 6-6h68a6 6 0 0 1 6 6v168a6 6 0 0 1-6 6h-68a6 6 0 0 1-6-6z" fill="none"/><use xlink:href="#c" transform="matrix(1,0,0,1,40,402.83478523189035) translate(88.26171875 20.1171875)"/><path d="M40 46a6 6 0 0 1 6-6h828a6 6 0 0 1 6 6v77.44a6 6 0 0 1-6 6H46a6 6 0 0 1-6-6z" stroke="#000" stroke-opacity="0" stroke-width="3" fill="#fff" fill-opacity="0"/><use xlink:href="#d" transform="matrix(1,0,0,1,45,45) translate(0 52.187499999999986)"/><use xlink:href="#e" transform="matrix(1,0,0,1,45,45) translate(175.5381944444444 52.187499999999986)"/><use xlink:href="#f" transform="matrix(1,0,0,1,45,45) translate(421.1979166666665 52.187499999999986)"/><path d="M520 330c0 27.6-22.4 50-50 50s-50-22.4-50-50 22.4-50 50-50 50 22.4 50 50z" stroke="#5e5e5e" stroke-width="3" fill="#c1e4f7"/><path d="M400 280v100m0-50h20" stroke="#5e5e5e" stroke-width="3" fill="none"/><use xlink:href="#g" transform="matrix(1,0,0,1,380,380) translate(23.257378472222214 20.1171875)"/><use xlink:href="#h" transform="matrix(1,0,0,1,380,380) translate(23.485243055555557 44.943576388888886)"/><path d="M800 324.83c0 27.62-22.4 50-50 50s-50-22.38-50-50c0-27.6 22.4-50 50-50s50 22.4 50 50z" stroke="#5e5e5e" stroke-width="3" fill="#c1e4f7"/><path d="M680 274.83v100m0-50h20" stroke="#5e5e5e" stroke-width="3" fill="none"/><use xlink:href="#g" transform="matrix(1,0,0,1,660,374.83478523189035) translate(23.257378472222214 20.1171875)"/><use xlink:href="#i" transform="matrix(1,0,0,1,660,374.83478523189035) translate(18.114149305555557 44.943576388888886)"/><path d="M1150 810c0 27.6-22.4 50-50 50s-50-22.4-50-50 22.4-50 50-50 50 22.4 50 50z" stroke="#5e5e5e" stroke-width="3" fill="#c7e8ac"/><path d="M1110 754l-10 6 10 7.2" stroke="#5e5e5e" stroke-width="3" fill="none"/><use xlink:href="#j" transform="matrix(1,0,0,1,1010,860) translate(40.027126736111114 20.1171875)"/><use xlink:href="#k" transform="matrix(1,0,0,1,1010,860) translate(17.137586805555557 44.943576388888886)"/><path d="M800 910c0 27.6-22.4 50-50 50s-50-22.4-50-50 22.4-50 50-50 50 22.4 50 50z" stroke="#5e5e5e" stroke-width="3" fill="#ffbbb1"/><path d="M760 854l-10 6 10 7.2" stroke="#5e5e5e" stroke-width="3" fill="none"/><use xlink:href="#j" transform="matrix(1,0,0,1,660,960) translate(40.027126736111114 20.1171875)"/><use xlink:href="#l" transform="matrix(1,0,0,1,660,960) translate(31.780598958333336 44.943576388888886)"/><path d="M720.58 951.84l28.47 9.35" stroke="#5e5e5e" stroke-width="2" fill="none"/><path d="M717.2 949.67l3.3 2.5-.2.63-3.83-1.26.62-1.9zM753.16 961.5l-.62 1.9-3.83-1.27.24-.68 1.05.05 2.9-.1z" stroke="#5e5e5e" stroke-width=".05" fill="#5e5e5e"/><path d="M920 725.72c0 27.62-22.4 50-50 50s-50-22.38-50-50c0-27.6 22.4-50 50-50s50 22.4 50 50z" stroke="#5e5e5e" stroke-width="3" fill="#c7e8ac"/><path d="M880 669.72l-10 6 10 7.2" stroke="#5e5e5e" stroke-width="3" fill="none"/><use xlink:href="#m" transform="matrix(1,0,0,1,780,775.7207703236654) translate(61.6796875 20.1171875)"/><path d="M640 730c0 27.6-22.4 50-50 50s-50-22.4-50-50 22.4-50 50-50 50 22.4 50 50z" stroke="#5e5e5e" stroke-width="3" fill="#c7e8ac"/><path d="M600 674l-10 6 10 7.2" stroke="#5e5e5e" stroke-width="3" fill="none"/><use xlink:href="#n" transform="matrix(1,0,0,1,500,780) translate(35.85503472222222 20.1171875)"/><path d="M708.7 878.36l-1.7 1.07-31.63-49.84h2.37zm-43.56-68.63h-2.37l-30.5-48.07 1.67-1.07z" stroke="#5e5e5e" stroke-width=".05" fill="#5e5e5e"/><path d="M709.03 878.9l-1.3 1.7-.74-1.2 1.68-1.06z" fill="#5e5e5e"/><path d="M709.06 878.9l-1.32 1.73-.78-1.23 1.73-1.1zm-2.03.52l.7 1.13 1.27-1.66-.33-.53zM651.45 769.43l-.9 1.78-16.32-8.3.58 18.3-2 .06-.67-21.67z" stroke="#5e5e5e" stroke-width=".05" fill="#5e5e5e"/><use xlink:href="#o" transform="matrix(1,0,0,1,618.8241693374956,809.7321162767499) translate(0.005000000000002558 16.09375)"/><path d="M779.53 866.62l-1.68-1.1 24.55-37.7h2.4zm62.3-95.67l-24.1 37.02h-2.4l24.8-38.1z" stroke="#5e5e5e" stroke-width=".05" fill="#5e5e5e"/><path d="M779.54 866.6l-.54.83-1.7-1.04.57-.9z" fill="#5e5e5e"/><path d="M779.58 866.6l-.58.87-1.74-1.07.6-.93zm-2.25-.22l1.66 1.02.5-.8-1.63-1.06zM841.04 790.55l-2-.08.8-18.3-16.42 8.12-.9-1.8 19.45-9.62z" stroke="#5e5e5e" stroke-width=".05" fill="#5e5e5e"/><use xlink:href="#p" transform="matrix(1,0,0,1,741.6119951359946,807.9655016461211) translate(0.0049999999999954525 16.09375)"/><g filter="url(#q)"><path d="M840 910c0 16.57-13.43 30-30 30s-30-13.43-30-30 13.43-30 30-30 30 13.43 30 30z" stroke="#5e5e5e" stroke-width="3" fill="#ff8f80"/><use xlink:href="#r" transform="matrix(1,0,0,1,785,885) translate(17.94704861111111 32.6171875)"/></g><path d="M1030 324.83c0 27.62-22.4 50-50 50s-50-22.38-50-50c0-27.6 22.4-50 50-50s50 22.4 50 50z" stroke="#5e5e5e" stroke-width="3" fill="#c1e4f7"/><path d="M910 274.83v100m0-50h20" stroke="#5e5e5e" stroke-width="3" fill="none"/><use xlink:href="#s" transform="matrix(1,0,0,1,890,374.83478523189035) translate(-19.803602430555557 20.1171875)"/><use xlink:href="#i" transform="matrix(1,0,0,1,890,374.83478523189035) translate(18.114149305555557 44.943576388888886)"/><path d="M1500 324.83c0 27.62-22.4 50-50 50s-50-22.38-50-50c0-27.6 22.4-50 50-50s50 22.4 50 50z" stroke="#5e5e5e" stroke-width="3" fill="#c1e4f7"/><path d="M1380 274.83v100m0-50h20" stroke="#5e5e5e" stroke-width="3" fill="none"/><use xlink:href="#t" transform="matrix(1,0,0,1,1360,374.83478523189035) translate(9.156901041666671 20.1171875)"/><use xlink:href="#u" transform="matrix(1,0,0,1,1360,374.83478523189035) translate(119.62782118055556 20.1171875)"/><use xlink:href="#v" transform="matrix(1,0,0,1,1360,374.83478523189035) translate(79.80034722222223 44.943576388888886)"/><path d="M162.5 323.63H339M162.53 323.63h-4.03M338.97 323.63H340" stroke="#5e5e5e" stroke-width="2" fill="none"/><g filter="url(#q)"><path d="M1180 790c0 16.57-13.43 30-30 30s-30-13.43-30-30 13.43-30 30-30 30 13.43 30 30z" stroke="#5e5e5e" stroke-width="3" fill="#a3d977"/><use xlink:href="#w" transform="matrix(1,0,0,1,1125,765) translate(16.590711805555557 32.6171875)"/></g><path d="M1048.86 821.25l-215.1 66.5-.6-1.9 215.1-66.5z" stroke="#5e5e5e" stroke-width=".05" fill="#5e5e5e"/><path d="M1049.73 820.98l-.9.28-.6-1.9 1.07-.34z" fill="#5e5e5e"/><path d="M1049.77 821l-.95.3-.6-1.97 1.1-.34zm-1.5-1.64l.58 1.87.86-.27-.42-1.9zM847.8 872.6l-12.32 13.57 17.8 4.25-.45 1.95-21.1-5.03 14.57-16.07z" stroke="#5e5e5e" stroke-width=".05" fill="#5e5e5e"/><g filter="url(#q)"><path d="M1060 310c0 16.57-13.43 30-30 30s-30-13.43-30-30 13.43-30 30-30 30 13.43 30 30z" stroke="#5e5e5e" stroke-width="3" fill="#99d2f2"/><use xlink:href="#x" transform="matrix(1,0,0,1,1005,285) translate(17.67578125 32.6171875)"/></g><path d="M876.6 909.08l1.06.26 1.02.42.94.57.83.72.72.83.57.94.42 1.02.26 1.06.08 1.06v128l.07.82.18.76.3.73.4.67.52.6.6.5.66.4.73.3.76.2.82.06h99.43v2h-99.5l-1.07-.08-1.06-.26-1.02-.42-.94-.57-.83-.72-.7-.83-.6-.94-.4-1.02-.27-1.06-.08-1.06v-128l-.06-.82-.2-.76-.3-.73-.4-.67-.5-.6-.6-.5-.67-.4-.73-.3-.76-.2-.82-.06h-9.48v-2h9.56zm398.5-120l1.06.26 1.02.42.94.57.83.72.72.83.57.94.42 1.02.26 1.06.08 1.06v248.08l-.08 1.06-.26 1.06-.42 1.02-.57.94-.72.83-.83.72-.94.57-1.02.42-1.06.26-1.06.08h-132.47v-2h132.4l.8-.07.77-.18.73-.3.67-.4.6-.52.5-.6.4-.66.3-.73.2-.76.06-.82V796.04l-.07-.82-.18-.76-.3-.73-.4-.67-.52-.6-.6-.5-.66-.4-.73-.3-.76-.2-.82-.06h-91.46v-2h91.54z" stroke="#5e5e5e" stroke-width=".05" fill="#5e5e5e"/><path d="M1182.53 791h-1.1l.07-.96-.03-1.04h1.06z" fill="#5e5e5e"/><path d="M1182.55 791.02h-1.15l.08-1-.04-1.04h1.1zm-1.06-2l.03 1.02-.08.94h1.05V789z" stroke="#5e5e5e" stroke-width=".05" fill="#5e5e5e"/><path d="M864.98 922.73L843.48 910l21.5-12.73z" fill="#fff"/><path d="M865.98 924.48L841.5 910l24.48-14.48zM845.43 910l18.55 10.97v-21.94z" stroke="#5e5e5e" stroke-width=".05" fill="#5e5e5e"/><use xlink:href="#y" transform="matrix(1,0,0,1,986.9697639719532,1040.0694444444443) translate(0.0049999999999954525 16.09375)"/><use xlink:href="#z" transform="matrix(1,0,0,1,986.9697639719532,1040.0694444444443) translate(102.08833333333332 16.09375)"/><path d="M1281 784.04l-.08 1.06-.26 1.06-.42 1.02-.57.94-.72.83-.83.72-.94.57-1.02.42-1.06.26-1.06.08h-68.06v-2h67.98l.82-.07.76-.18.73-.3.67-.4.6-.52.5-.6.4-.66.3-.73.2-.76.06-.82v-226.8h2zm-5.9-474.96l1.06.26 1.02.42.94.57.83.72.72.83.57.94.42 1.02.26 1.06.08 1.06v221.32h-2V316.04l-.07-.82-.18-.76-.3-.73-.4-.67-.52-.6-.6-.5-.66-.4-.73-.3-.76-.2-.82-.06H1062.5v-2h211.54z" stroke="#5e5e5e" stroke-width=".05" fill="#5e5e5e"/><path d="M1062.53 311h-1.1l.07-.96-.03-1.04h1.06z" fill="#5e5e5e"/><path d="M1062.55 311.02h-1.15l.08-.98-.04-1.06h1.1zm-1.06-2l.03 1.02-.08.94h1.05v-1.96z" stroke="#5e5e5e" stroke-width=".05" fill="#5e5e5e"/><path d="M1204.98 802.73L1183.46 790l21.52-12.73z" fill="#fff"/><path d="M1205.98 804.48L1181.5 790l24.48-14.48zM1185.43 790l18.55 10.97v-21.94z" stroke="#5e5e5e" stroke-width=".05" fill="#5e5e5e"/><use xlink:href="#A" transform="matrix(1,0,0,1,1241.6753472222222,537.285250605012) translate(0.005000000000002558 16.09375)"/><g filter="url(#q)"><path d="M140 1030c0 16.57-13.43 30-30 30s-30-13.43-30-30 13.43-30 30-30 30 13.43 30 30z" stroke="#5e5e5e" stroke-width="3" fill="#99d2f2"/><use xlink:href="#x" transform="matrix(1,0,0,1,85,1005) translate(17.67578125 32.6171875)"/></g><g filter="url(#q)"><path d="M140 1120c0 16.57-13.43 30-30 30s-30-13.43-30-30 13.43-30 30-30 30 13.43 30 30z" stroke="#5e5e5e" stroke-width="3" fill="#a3d977"/><use xlink:href="#w" transform="matrix(1,0,0,1,85,1095) translate(16.590711805555557 32.6171875)"/></g><g filter="url(#q)"><path d="M140 1210c0 16.57-13.43 30-30 30s-30-13.43-30-30 13.43-30 30-30 30 13.43 30 30z" stroke="#5e5e5e" stroke-width="3" fill="#ff8f80"/><use xlink:href="#r" transform="matrix(1,0,0,1,85,1185) translate(17.94704861111111 32.6171875)"/></g><path d="M120 1006a6 6 0 0 1 6-6h228a6 6 0 0 1 6 6v48a6 6 0 0 1-6 6H126a6 6 0 0 1-6-6z" stroke="#000" stroke-opacity="0" stroke-width="3" fill="#fff" fill-opacity="0"/><use xlink:href="#B" transform="matrix(1,0,0,1,125,1005) translate(58.733723958333336 32.6171875)"/><path d="M120 1096a6 6 0 0 1 6-6h228a6 6 0 0 1 6 6v48a6 6 0 0 1-6 6H126a6 6 0 0 1-6-6z" stroke="#000" stroke-opacity="0" stroke-width="3" fill="#fff" fill-opacity="0"/><use xlink:href="#C" transform="matrix(1,0,0,1,125,1095) translate(75.55230034722223 32.6171875)"/><path d="M120 1186a6 6 0 0 1 6-6h228a6 6 0 0 1 6 6v48a6 6 0 0 1-6 6H126a6 6 0 0 1-6-6z" stroke="#000" stroke-opacity="0" stroke-width="3" fill="#fff" fill-opacity="0"/><use xlink:href="#D" transform="matrix(1,0,0,1,125,1185) translate(58.07725694444444 32.6171875)"/><path d="M780 605.72c0 27.62-22.4 50-50 50s-50-22.38-50-50c0-27.6 22.4-50 50-50s50 22.4 50 50z" stroke="#5e5e5e" stroke-width="3" fill="#c7e8ac"/><path d="M740 549.72l-10 6 10 7.2" stroke="#5e5e5e" stroke-width="3" fill="none"/><use xlink:href="#E" transform="matrix(1,0,0,1,640,655.7207703236654) translate(39.81011284722222 20.1171875)"/><use xlink:href="#F" transform="matrix(1,0,0,1,640,655.7207703236654) translate(51.794704861111114 44.943576388888886)"/><path d="M537.58 732.4h-33a6 6 0 0 1-6-6V596.05a6 6 0 0 1 6-6h174.55" stroke="#5e5e5e" stroke-width="2" fill="none"/><path d="M538.62 733.4h-1.06v-2h1z" stroke="#5e5e5e" stroke-width=".05" fill="#5e5e5e"/><path d="M661.77 600.23l17.22-10.2-17.23-10.17M906.76 688.66v-94.72a6 6 0 0 0-6-6H780.13" stroke="#5e5e5e" stroke-width="2" fill="none"/><path d="M907.76 690.76l-.8-.92-1.2-1.1v-.1h2z" stroke="#5e5e5e" stroke-width=".05" fill="#5e5e5e"/><path d="M797.5 577.76l-17.23 10.18 17.22 10.18" stroke="#5e5e5e" stroke-width="2" fill="none"/><path d="M730 551.97v-32a6 6 0 0 0-6-6h-78a6 6 0 0 1-6-6V243.42a6 6 0 0 1 6-6h78a6 6 0 0 1 6 6v30.36" stroke="#5e5e5e" stroke-width="4" fill="none"/><path d="M732 552.77l-2.44 1.47-1.56.05v-2.38h4z" stroke="#5e5e5e" stroke-width=".05" fill="#5e5e5e"/><path d="M719.82 256.27L730 273.5l10.18-17.23" stroke="#5e5e5e" stroke-width="4" fill="none"/><path d="M1120 1163.92a6 6 0 0 1 6-6h658a6 6 0 0 1 6 6v92.16a6 6 0 0 1-6 6h-658a6 6 0 0 1-6-6z" stroke="#000" stroke-opacity="0" stroke-width="3" fill="#fff" fill-opacity="0"/><g><use xlink:href="#G" transform="matrix(1,0,0,1,1125,1162.919921875) translate(0 26.50390625)"/><use xlink:href="#H" transform="matrix(1,0,0,1,1125,1162.919921875) translate(21.228732638888886 26.50390625)"/><use xlink:href="#I" transform="matrix(1,0,0,1,1125,1162.919921875) translate(106.66861979166667 26.50390625)"/><use xlink:href="#J" transform="matrix(1,0,0,1,1125,1162.919921875) translate(218.98372395833334 26.50390625)"/><use xlink:href="#K" transform="matrix(1,0,0,1,1125,1162.919921875) translate(282.08094618055554 26.50390625)"/><use xlink:href="#L" transform="matrix(1,0,0,1,1125,1162.919921875) translate(402.6032986111111 26.50390625)"/><use xlink:href="#M" transform="matrix(1,0,0,1,1125,1162.919921875) translate(452.7302517361111 26.50390625)"/><use xlink:href="#N" transform="matrix(1,0,0,1,1125,1162.919921875) translate(563.8546006944445 26.50390625)"/><use xlink:href="#O" transform="matrix(1,0,0,1,1125,1162.919921875) translate(598.5913628472223 26.50390625)"/><use xlink:href="#P" transform="matrix(1,0,0,1,1125,1162.919921875) translate(0 58.23177083333333)"/><use xlink:href="#Q" transform="matrix(1,0,0,1,1125,1162.919921875) translate(125.36219618055556 58.23177083333333)"/><use xlink:href="#R" transform="matrix(1,0,0,1,1125,1162.919921875) translate(196.19292534722223 58.23177083333333)"/><use xlink:href="#S" transform="matrix(1,0,0,1,1125,1162.919921875) translate(261.4924045138889 58.23177083333333)"/><use xlink:href="#T" transform="matrix(1,0,0,1,1125,1162.919921875) translate(290.56987847222223 58.23177083333333)"/><use xlink:href="#U" transform="matrix(1,0,0,1,1125,1162.919921875) translate(311.95225694444446 58.23177083333333)"/><use xlink:href="#V" transform="matrix(1,0,0,1,1125,1162.919921875) translate(382.1427951388889 58.23177083333333)"/><use xlink:href="#W" transform="matrix(1,0,0,1,1125,1162.919921875) translate(456.328125 58.23177083333333)"/><use xlink:href="#T" transform="matrix(1,0,0,1,1125,1162.919921875) translate(497.10828993055554 58.23177083333333)"/><use xlink:href="#X" transform="matrix(1,0,0,1,1125,1162.919921875) translate(518.4906684027777 58.23177083333333)"/></g><defs><path fill="#333" d="M1046-1569c196 0 387 91 552 288 33 39 39 82 39 115 0 87-82 197-245 331-77 63-199 77-336 77-143 0-407-18-792-53 4 248 9 496 14 744 0 38-32 77-96 77-41 0-69-26-86-77l5-77-10-643c0-37-14-71-43-101l-5-43c0-93 14-139 43-139-5-48-4-101-4-154-27-58-82-91-82-172 0-29 26-56 77-82 0-45 31-82 96-82 25 0 52 21 81 63 285-34 549-72 792-72zm-787 336v182c386 35 671 53 855 53 162 0 267-42 316-125 9-101-40-136-158-168-407-18-496-10-1013 58" id="Y"/><path fill="#333" d="M0-103c-2-13 43-88 115-182v-5c-17-23-28-52-33-86 31-110 75-153 182-144 365-536 547-819 547-850-18-74 24-122 111-163 77-37 120 25 158 130-1 34-10 60-14 91 198 483 308 744 331 782 145 25 179 132 91 235 23 91 51 165 86 221-5 76-44 115-100 115-67 0-105-45-116-134l-72-168c-313-10-635-3-945 5-16 1-58 80-154 216C129 43 20 9 5-103H0zm504-427v10h643l24-5v-10l-249-614h-10c-39 47-175 254-408 619" id="Z"/><path fill="#333" d="M312-618C163-599 30-756 29-935c0-219 157-400 470-543l96-19c109 0 231 56 341 187 72 86 37 160-62 216-56 32-106-10-116-86l15-43c-53-29-111-43-173-43-120 0-243 77-370 230-19 46-26 78-24 125 0 18 26 29 77 33l499-76c235-29 376 43 442 249l14 91c0 130-59 283-206 432-271 275-657 282-926-4C26-271 0-344 0-378c13-61 40-92 82-92 33 0 78 37 134 111 131 97 267 145 418 144 123 0 262-89 393-283 53-79 32-148-53-202-153-4-265 31-662 82" id="aa"/><path fill="#333" d="M1296-1521c57 9 86 34 86 77h5c-4 21-6 45-5 72l24 691c0 334-107 560-331 653C888 50 786 7 667-153h-5C577-51 494 0 413 0l-39 10C244 10 142-86 53-268c-23-48-43-277-43-696L0-1339c17-48 49-72 96-72 58 0 86 37 86 82h5l-5 24 10 753c0 141 51 240 154 298 133 12 208-51 211-216l9-514-14-388c28-45 60-68 96-68 57 13 86 36 86 68l5 873c13 27 22 67 29 120 41 83 77 120 134 120 117 0 216-85 288-259 22-52 29-113 29-178 0-256-19-504-19-744 0-47 32-74 96-81" id="ab"/><path fill="#333" d="M1037-1463c205 0 377 79 499 249 78 108 110 222 110 331 0 272-189 554-604 773C643 101 268 93 72-283c-175-336-55-591 216-868 135-138 326-229 557-288zM187-556c0 172 194 312 442 312 165 0 394-85 662-288 117-89 163-195 163-288 0-143-31-221-134-288-91-60-193-96-312-96-221 0-466 89-691 312-114 113-130 198-130 336" id="ac"/><path fill="#333" d="M1037-1519c186 0 353 66 489 211 52 56 72 129 72 206 0 183-139 313-417 389l-48 5-360-24v5l816 427c16 17 29 56 38 115-11 73-43 110-96 110-14 0-425-203-1233-609-5 1-17-4-15 5l5 667c0 35-27 67-82 67-49 0-83-21-100-62 8-252 3-517 0-773-64-19-96-67-96-144-17-79 11-126 96-139v-101c-35-19-59-53-72-101-58-86-47-156 81-173 0-19 26-36 77-53l77 34c370-41 626-62 768-62zm-754 480c-58 10 714 103 835 96 167-9 268-56 293-188-40-93-131-139-273-139-182 0-467 27-855 82v149" id="ad"/><path fill="#333" d="M192-1522c32 0 62 26 91 77 302-46 504-73 591-72 195 0 389 60 580 187 89 59 150 170 188 327l19 149c0 292-223 534-667 729-128 56-397 85-720 82-61 62-100 54-168-5-42-23-63-63-63-120 0-45 21-89 63-134l-5-879c-67-75-98-108-96-149H0c0-46 32-75 96-86 14-71 46-106 96-106zm86 365c-1 282 0 563 5 840 322 4 630-22 701-86 248-91 405-208 470-351 24-53 20-84 20-148 0-157-86-260-260-303-331-81-598-42-936 48" id="ae"/><g id="a"><use transform="matrix(0.010850694444444444,0,0,0.010850694444444444,0,0)" xlink:href="#Y"/><use transform="matrix(0.010850694444444444,0,0,0.010850694444444444,19.53125,0)" xlink:href="#Z"/><use transform="matrix(0.010850694444444444,0,0,0.010850694444444444,38.19444444444444,0)" xlink:href="#aa"/><use transform="matrix(0.010850694444444444,0,0,0.010850694444444444,53.385416666666664,0)" xlink:href="#aa"/><use transform="matrix(0.010850694444444444,0,0,0.010850694444444444,68.57638888888889,0)" xlink:href="#ab"/><use transform="matrix(0.010850694444444444,0,0,0.010850694444444444,85.9375,0)" xlink:href="#ac"/><use transform="matrix(0.010850694444444444,0,0,0.010850694444444444,104.38368055555556,0)" xlink:href="#ad"/><use transform="matrix(0.010850694444444444,0,0,0.010850694444444444,123.91493055555556,0)" xlink:href="#ae"/></g><path fill="#333" d="M173-1512c62-4 90 22 120 86l677-9c50 0 79 30 86 91h5c-8 23-4 56-5 86 0 77-45 115-134 116l-591 9-53 5v264h672c80 0 120 30 120 91h5c0 115-34 172-101 173l-643 14-48 5c1 155-3 305-5 456 14 75 3 125-86 125-48 0-82-28-82-86l-4-490C39-576 5-608 5-672c0-29 34-92 101-187-2-80-5-158-5-240 0-19-22-35-67-48-25-25-34-44-34-77 0-20 21-58 62-115 0-81 37-138 111-173" id="af"/><path fill="#333" d="M1507-1522c43 0 68 35 77 106 37 0 72 39 72 120 0 47-22 87-67 120l19 1099c0 35-30 60-91 77-89-13-86-70-87-158l-14-912c-2-4-7-6-14-5l-336 197c-19 102-60 153-125 153-31-11-58-24-91-33l-63 28c-36 0-90-51-163-153-224-116-328-174-346-173l20 974c0 51-32 82-96 82-51 0-81-32-82-96l-19-1056C34-1227 0-1291 0-1344c25-51 53-77 86-77 21-54 53-81 96-81 65 0 98 34 96 72l-4 100c269 142 453 235 552 279 77-35 272-136 585-303-17-89 6-168 96-168" id="ag"/><g id="b"><use transform="matrix(0.010850694444444444,0,0,0.010850694444444444,0,0)" xlink:href="#af"/><use transform="matrix(0.010850694444444444,0,0,0.010850694444444444,13.57421875,0)" xlink:href="#ac"/><use transform="matrix(0.010850694444444444,0,0,0.010850694444444444,32.02039930555556,0)" xlink:href="#ad"/><use transform="matrix(0.010850694444444444,0,0,0.010850694444444444,51.55164930555556,0)" xlink:href="#ag"/></g><path fill="#333" d="M926-1525c100 5 85 80 87 172l19 840c48 30 58 53 58 111 0 57-18 107-53 149 1 49 5 96 5 144 0 43-32 74-96 81-52 6-83-47-82-125h-10C637-26 540 25 408 25 233 25 120-61 67-234 32-351 14-434 14-484l-4-753-10-77c0-55 34-82 101-82 40 0 69 26 86 77l-5 34c2 232 5 462 5 696 0 197 45 318 139 355 21 8 49 5 77 5 31 0 183-72 456-216l-5-72c-6-545-24-853-24-927 0-44 32-71 96-81" id="ah"/><path fill="#333" d="M106-1504c88-41 67-36 163 0 299-1 595 5 888 5 45 0 100 79 115 177-17 58-60 86-130 87l-878 14c5 91 6 186 5 283h744c96-2 153 56 153 154 0 70-41 105-124 105H274v394c297 2 595 3 892 5 41 0 76 51 106 153 0 49-35 95-110 96L293-16c-21 61-54 91-101 91-52 0-87-43-106-130C32-137 5-185 5-199c0-43 32-73 96-91l-5-33v-375C32-756 0-807 0-851c0-46 30-75 91-87v-293c-80-78-159-245 15-273" id="ai"/><g id="c"><use transform="matrix(0.010850694444444444,0,0,0.010850694444444444,0,0)" xlink:href="#ah"/><use transform="matrix(0.010850694444444444,0,0,0.010850694444444444,13.346354166666666,0)" xlink:href="#aa"/><use transform="matrix(0.010850694444444444,0,0,0.010850694444444444,28.53732638888889,0)" xlink:href="#ai"/><use transform="matrix(0.010850694444444444,0,0,0.010850694444444444,43.9453125,0)" xlink:href="#ad"/></g><path fill="#333" d="M518-1521c51 0 80 30 87 91h297c88 0 173 55 173 173 0 36-29 60-86 72H610c4 749 9 1123 14 1123 0 40-33 68-96 77-92-19-101-67-82-149-6-349-2-708-14-1051H274c-151 0-226-10-226-29-63-78-83-216 58-216h326c9-61 38-91 86-91" id="aj"/><path fill="#333" d="M1142-1464c80 0 120 56 120 168 0 61-61 91-182 91-210 0-357 59-446 96-119 50-255 181-408 389-23 51-34 102-34 154 0 137 71 230 216 264 325 76 605 24 912-96l-5-216c-36 0-150 62-384 62-41 0-73-27-96-82 51-144 112-216 183-216 193 0 288-36 288-43 0-52 30-86 91-86 35 0 63 22 86 67 114-12 149 46 149 168 0 51-48 86-144 106 3 59 6 118 5 182 23-1 45-3 67-5 62-5 82 68 82 163 0 66-32 108-96 125-26 7-39 12-39 19 6 87-10 154-91 154-51 0-80-35-86-106L965-24C846-9 780-9 667-10c-275 0-439-63-513-177C58-335 0-493 0-672c0-245 175-489 547-686 162-86 368-106 595-106" id="ak"/><path fill="#333" d="M38-1511c-1-44 38-81 106-81 89 0 89 79 77 163l5 58 19 1089h648c150 0 225 13 225 39 16 2 26 50 29 144-9 51-43 76-101 76-266-1-536 3-796-4-52 90-140 80-183-15C22-71 0-118 0-181c0-42 24-77 72-106l-5-19-14-1109" id="al"/><g id="d"><use transform="matrix(0.017361111111111105,0,0,0.017361111111111105,0,0)" xlink:href="#aj"/><use transform="matrix(0.017361111111111105,0,0,0.017361111111111105,21.718749999999993,0)" xlink:href="#ac"/><use transform="matrix(0.017361111111111105,0,0,0.017361111111111105,51.23263888888887,0)" xlink:href="#ak"/><use transform="matrix(0.017361111111111105,0,0,0.017361111111111105,82.82986111111109,0)" xlink:href="#ak"/><use transform="matrix(0.017361111111111105,0,0,0.017361111111111105,114.42708333333329,0)" xlink:href="#al"/><use transform="matrix(0.017361111111111105,0,0,0.017361111111111105,135.26041666666663,0)" xlink:href="#ai"/></g><g id="e"><use transform="matrix(0.017361111111111105,0,0,0.017361111111111105,0,0)" xlink:href="#Y"/><use transform="matrix(0.017361111111111105,0,0,0.017361111111111105,31.24999999999999,0)" xlink:href="#Z"/><use transform="matrix(0.017361111111111105,0,0,0.017361111111111105,61.111111111111086,0)" xlink:href="#aa"/><use transform="matrix(0.017361111111111105,0,0,0.017361111111111105,85.41666666666664,0)" xlink:href="#aa"/><use transform="matrix(0.017361111111111105,0,0,0.017361111111111105,109.72222222222217,0)" xlink:href="#ab"/><use transform="matrix(0.017361111111111105,0,0,0.017361111111111105,137.49999999999994,0)" xlink:href="#ac"/><use transform="matrix(0.017361111111111105,0,0,0.017361111111111105,167.01388888888883,0)" xlink:href="#ad"/><use transform="matrix(0.017361111111111105,0,0,0.017361111111111105,198.26388888888883,0)" xlink:href="#ae"/></g><path fill="#333" d="M1440-1338c73 21 110 72 110 153 0 27-48 86-129 188L778-191v14c35 59 52 98 52 116 0 58-37 86-86 86-33 0-64-21-91-62-22 5-38 17-58 24-57 0-105-54-105-164 0-20 14-49 43-86-114-232-280-533-499-902-65-68-38-159 76-159 41 0 73 40 96 120 184 309 331 570 442 783h5c8 0 163-194 465-581 156-199 249-310 279-331" id="am"/><path fill="#333" d="M0-1411c19-46 47-72 91-67 64 7 101 40 96 86l-14 139c2 392 5 792 5 1176 0 41-29 66-87 77C34-7 5-35 5-82H0l5-81c-2-415 5-840-5-1248" id="an"/><path fill="#333" d="M911-1480c283 0 467 83 523 259 36 113-6 156-76 298-2 24 36 36 110 72 110 53 163 139 163 249l5 44c0 141-119 291-355 451-84 57-384 86-903 86H244c1 69-24 106-77 105-41 0-68-32-81-95-26 6-49-58-48-125 0-35 16-83 48-144-2-133-3-265-5-398-7 0-17-2-19 4-41-14-62-52-62-115 0-71 25-127 76-168-1-72-3-144-5-216-61-55-91-103-91-144 0-45 34-70 101-77 14-25 38-38 72-38l57 29c265-39 498-77 701-77zm-686 360v154h163c508 0 783-35 826-106 17 0 32-26 43-77 0-48-82-72-245-72-270 0-503 16-768 67-13 9-19 21-19 34zm5 432c5 134 0 277 9 408 541 0 851-16 903-48 221-73 331-153 331-240 0-137-147-206-442-206-472 0-738 65-801 86" id="ao"/><path fill="#333" d="M518-1521c51 0 80 30 87 91h297c88 0 173 55 173 173 0 36-29 60-86 72H610c4 749 9 1123 14 1123 0 40-33 68-96 77-92-19-101-67-82-149-6-349-2-708-14-1051H274c-151 0-226-10-226-29-63-78-83-216 58-216h326c9-61 38-91 86-91" id="ap"/><path fill="#333" d="M1402-1391c55-3 96 28 96 96 0 46-60 79-168 129-318 148-472 242-476 250 12 37-13 62-33 96l9 758c-19 55-49 82-91 82-61 0-91-36-91-86 0-250 1-501-5-744h-9c-43 29-74 43-92 43-51-20-76-54-76-101l19-62c-215-107-367-176-456-207-19-19-29-40-29-62 0-57 29-110 86-159 19-2 29-5 29-9 12 0 230 96 653 288h14" id="aq"/><g id="f"><use transform="matrix(0.017361111111111105,0,0,0.017361111111111105,0,0)" xlink:href="#am"/><use transform="matrix(0.017361111111111105,0,0,0.017361111111111105,30.03472222222221,0)" xlink:href="#an"/><use transform="matrix(0.017361111111111105,0,0,0.017361111111111105,37.499999999999986,0)" xlink:href="#aa"/><use transform="matrix(0.017361111111111105,0,0,0.017361111111111105,61.80555555555553,0)" xlink:href="#an"/><use transform="matrix(0.017361111111111105,0,0,0.017361111111111105,69.2708333333333,0)" xlink:href="#ao"/><use transform="matrix(0.017361111111111105,0,0,0.017361111111111105,101.04166666666663,0)" xlink:href="#an"/><use transform="matrix(0.017361111111111105,0,0,0.017361111111111105,108.5069444444444,0)" xlink:href="#al"/><use transform="matrix(0.017361111111111105,0,0,0.017361111111111105,129.34027777777771,0)" xlink:href="#an"/><use transform="matrix(0.017361111111111105,0,0,0.017361111111111105,136.8055555555555,0)" xlink:href="#ap"/><use transform="matrix(0.017361111111111105,0,0,0.017361111111111105,158.5243055555555,0)" xlink:href="#aq"/></g><path fill="#333" d="M101-1420c25-2 69 58 182 159l519 465 600-475c75-18 108 28 168 120 4 64-51 95-154 178L989-628c84 91 252 248 504 471 18 0 32 22 43 67-19 64-51 96-96 96-23 0-67-42-144-115-287-272-441-403-451-403L163 25C72 46 29 3 29-119c0-48 38-82 96-129l533-432v-10L5-1290c-18-75 13-122 96-130" id="ar"/><path fill="#333" d="M1162-1549c61 0 91 35 91 106v1181c0 10 11 29 33 57 3 29 10 53 10 87 0 70-34 105-101 105-33 0-72-56-149-139-255-276-538-531-816-792h-14l5 58c0 362 19 646 19 854 0 40-32 64-96 72C42 30 45-51 58-147l-5-43c-4-637-12-956-24-956-16 0-29-46-29-139 0-84 28-125 62-125 99 0 149 26 149 77 0 61 13 94 39 101 536 530 808 797 816 797h9v-922l-14-125c0-37 33-67 101-67" id="as"/><path fill="#333" d="M1046-1569c196 0 387 91 552 288 33 39 39 82 39 115 0 87-82 197-245 331-77 63-199 77-336 77-143 0-407-18-792-53 4 248 9 496 14 744 0 38-32 77-96 77-41 0-69-26-86-77l5-77-10-643c0-37-14-71-43-101l-5-43c0-93 14-139 43-139-5-48-4-101-4-154-27-58-82-91-82-172 0-29 26-56 77-82 0-45 31-82 96-82 25 0 52 21 81 63 285-34 549-72 792-72zm-787 336v182c386 35 671 53 855 53 162 0 267-42 316-125 9-101-40-136-158-168-407-18-496-10-1013 58" id="at"/><path fill="#333" d="M926-1525c100 5 85 80 87 172l19 840c48 30 58 53 58 111 0 57-18 107-53 149 1 49 5 96 5 144 0 43-32 74-96 81-52 6-83-47-82-125h-10C637-26 540 25 408 25 233 25 120-61 67-234 32-351 14-434 14-484l-4-753-10-77c0-55 34-82 101-82 40 0 69 26 86 77l-5 34c2 232 5 462 5 696 0 197 45 318 139 355 21 8 49 5 77 5 31 0 183-72 456-216l-5-72c-6-545-24-853-24-927 0-44 32-71 96-81" id="au"/><path fill="#333" d="M139-1202c61 0 104 35 130 106 7 85-27 123-115 139-80-17-120-53-120-110l-5-5c19-87 56-130 110-130zm-24 567c56 0 105 48 125 124-15 80-55 120-120 120C38-408-5-444 0-506c8-86 50-129 115-129" id="av"/><g id="g"><use transform="matrix(0.010850694444444444,0,0,0.010850694444444444,0,0)" xlink:href="#aj"/><use transform="matrix(0.010850694444444444,0,0,0.010850694444444444,13.57421875,0)" xlink:href="#ai"/><use transform="matrix(0.010850694444444444,0,0,0.010850694444444444,28.98220486111111,0)" xlink:href="#ar"/><use transform="matrix(0.010850694444444444,0,0,0.010850694444444444,46.88585069444444,0)" xlink:href="#ap"/><use transform="matrix(0.010850694444444444,0,0,0.010850694444444444,60.46006944444444,0)" xlink:href="#an"/><use transform="matrix(0.010850694444444444,0,0,0.010850694444444444,65.12586805555556,0)" xlink:href="#as"/><use transform="matrix(0.010850694444444444,0,0,0.010850694444444444,80.859375,0)" xlink:href="#at"/><use transform="matrix(0.010850694444444444,0,0,0.010850694444444444,100.390625,0)" xlink:href="#au"/><use transform="matrix(0.010850694444444444,0,0,0.010850694444444444,113.73697916666666,0)" xlink:href="#ap"/><use transform="matrix(0.010850694444444444,0,0,0.010850694444444444,127.31119791666666,0)" xlink:href="#av"/></g><g id="h"><use transform="matrix(0.010850694444444444,0,0,0.010850694444444444,0,0)" xlink:href="#ah"/><use transform="matrix(0.010850694444444444,0,0,0.010850694444444444,13.346354166666666,0)" xlink:href="#aa"/><use transform="matrix(0.010850694444444444,0,0,0.010850694444444444,28.53732638888889,0)" xlink:href="#ai"/><use transform="matrix(0.010850694444444444,0,0,0.010850694444444444,43.9453125,0)" xlink:href="#ad"/><use transform="matrix(0.010850694444444444,0,0,0.010850694444444444,63.4765625,0)" xlink:href="#as"/><use transform="matrix(0.010850694444444444,0,0,0.010850694444444444,79.21006944444444,0)" xlink:href="#Z"/><use transform="matrix(0.010850694444444444,0,0,0.010850694444444444,97.87326388888889,0)" xlink:href="#ag"/><use transform="matrix(0.010850694444444444,0,0,0.010850694444444444,117.62152777777777,0)" xlink:href="#ai"/></g><g id="i"><use transform="matrix(0.010850694444444444,0,0,0.010850694444444444,0,0)" xlink:href="#Y"/><use transform="matrix(0.010850694444444444,0,0,0.010850694444444444,19.53125,0)" xlink:href="#Z"/><use transform="matrix(0.010850694444444444,0,0,0.010850694444444444,38.19444444444444,0)" xlink:href="#aa"/><use transform="matrix(0.010850694444444444,0,0,0.010850694444444444,53.385416666666664,0)" xlink:href="#aa"/><use transform="matrix(0.010850694444444444,0,0,0.010850694444444444,68.57638888888889,0)" xlink:href="#ab"/><use transform="matrix(0.010850694444444444,0,0,0.010850694444444444,85.9375,0)" xlink:href="#ac"/><use transform="matrix(0.010850694444444444,0,0,0.010850694444444444,104.38368055555556,0)" xlink:href="#ad"/><use transform="matrix(0.010850694444444444,0,0,0.010850694444444444,123.91493055555556,0)" xlink:href="#ae"/></g><g id="j"><use transform="matrix(0.010850694444444444,0,0,0.010850694444444444,0,0)" xlink:href="#aj"/><use transform="matrix(0.010850694444444444,0,0,0.010850694444444444,13.57421875,0)" xlink:href="#ac"/><use transform="matrix(0.010850694444444444,0,0,0.010850694444444444,32.02039930555556,0)" xlink:href="#ak"/><use transform="matrix(0.010850694444444444,0,0,0.010850694444444444,51.76866319444444,0)" xlink:href="#ak"/><use transform="matrix(0.010850694444444444,0,0,0.010850694444444444,71.51692708333333,0)" xlink:href="#al"/><use transform="matrix(0.010850694444444444,0,0,0.010850694444444444,84.53776041666666,0)" xlink:href="#ai"/></g><path fill="#333" d="M374-1277c417-270 543-242 1028-72 22 21 33 50 33 87 0 73-34 118-101 134-463-122-800-83-1060 245-62 79-82 177-82 278-2 243 148 351 432 351 257 0 509-76 744-245 37-26 64-48 96-48 79 0 110 45 110 115 0 77-55 130-148 187-115 70-251 151-428 197C854-10 742 0 667 0 332 0 123-127 48-384 13-505 0-597 0-658c0-213 107-446 374-619" id="aw"/><path fill="#333" d="M1210-1486c99 13 86 72 86 163 0 211 5 420 5 633 48 31 72 59 72 82 0 97-34 144-72 144-1 143 3 282 5 422 0 46-31 74-92 81-89 10-81-88-81-172 0-98-6-199-5-302l-845 5-14 4v293l5 5c-11 67-39 100-96 96-55-4-82-32-82-77h-5c12-97-1-213 0-317-61-11-91-41-91-91 0-67 30-123 91-168-7-228-5-464-9-696 9-45 41-67 96-67 43 0 71 21 86 62l-5 63 5 629c286 2 570 5 859 4 3-239 0-486 0-724 0-39 29-63 87-72" id="ax"/><path fill="#333" d="M374-1277c417-270 543-242 1028-72 22 21 33 50 33 87 0 73-34 118-101 134-463-122-800-83-1060 245-62 79-82 177-82 278-2 243 148 351 432 351 257 0 509-76 744-245 37-26 64-48 96-48 79 0 110 45 110 115 0 77-55 130-148 187-115 70-251 151-428 197C854-10 742 0 667 0 332 0 123-127 48-384 13-505 0-597 0-658c0-213 107-446 374-619" id="ay"/><path fill="#333" d="M1334-1526c69-2 100 45 101 140h5c0 60-34 100-101 120L475-806v10c90 50 477 242 1162 576 16 15 24 39 24 72-21 102-59 153-115 153C1094-220 132-688 254-623c2 184 4 367 5 552 0 64-34 91-101 91-39 0-66-21-81-62 11-191 2-401 5-600-23-41-34-83-34-125C16-836 0-886 0-916c0-26 27-44 82-53-8-147-10-310-10-456 0-35 32-59 96-72 43 0 71 30 86 91l-4 20 4 393h10c697-355 1053-533 1070-533" id="az"/><g id="k"><use transform="matrix(0.010850694444444444,0,0,0.010850694444444444,0,0)" xlink:href="#aw"/><use transform="matrix(0.010850694444444444,0,0,0.010850694444444444,18.77170138888889,0)" xlink:href="#ax"/><use transform="matrix(0.010850694444444444,0,0,0.010850694444444444,35.48177083333333,0)" xlink:href="#ai"/><use transform="matrix(0.010850694444444444,0,0,0.010850694444444444,50.88975694444444,0)" xlink:href="#ay"/><use transform="matrix(0.010850694444444444,0,0,0.010850694444444444,69.66145833333333,0)" xlink:href="#az"/><use transform="matrix(0.010850694444444444,0,0,0.010850694444444444,89.51822916666666,0)" xlink:href="#ao"/><use transform="matrix(0.010850694444444444,0,0,0.010850694444444444,109.37499999999997,0)" xlink:href="#ac"/><use transform="matrix(0.010850694444444444,0,0,0.010850694444444444,127.82118055555556,0)" xlink:href="#ar"/></g><g id="l"><use transform="matrix(0.010850694444444444,0,0,0.010850694444444444,0,0)" xlink:href="#am"/><use transform="matrix(0.010850694444444444,0,0,0.010850694444444444,18.77170138888889,0)" xlink:href="#an"/><use transform="matrix(0.010850694444444444,0,0,0.010850694444444444,23.4375,0)" xlink:href="#aa"/><use transform="matrix(0.010850694444444444,0,0,0.010850694444444444,38.62847222222222,0)" xlink:href="#an"/><use transform="matrix(0.010850694444444444,0,0,0.010850694444444444,43.29427083333333,0)" xlink:href="#ao"/><use transform="matrix(0.010850694444444444,0,0,0.010850694444444444,63.15104166666666,0)" xlink:href="#an"/><use transform="matrix(0.010850694444444444,0,0,0.010850694444444444,67.81684027777777,0)" xlink:href="#al"/><use transform="matrix(0.010850694444444444,0,0,0.010850694444444444,80.8376736111111,0)" xlink:href="#an"/><use transform="matrix(0.010850694444444444,0,0,0.010850694444444444,85.50347222222221,0)" xlink:href="#ap"/><use transform="matrix(0.010850694444444444,0,0,0.010850694444444444,99.07769097222221,0)" xlink:href="#aq"/></g><path fill="#333" d="M1210-1486c99 13 86 72 86 163 0 211 5 420 5 633 48 31 72 59 72 82 0 97-34 144-72 144-1 143 3 282 5 422 0 46-31 74-92 81-89 10-81-88-81-172 0-98-6-199-5-302l-845 5-14 4v293l5 5c-11 67-39 100-96 96-55-4-82-32-82-77h-5c12-97-1-213 0-317-61-11-91-41-91-91 0-67 30-123 91-168-7-228-5-464-9-696 9-45 41-67 96-67 43 0 71 21 86 62l-5 63 5 629c286 2 570 5 859 4 3-239 0-486 0-724 0-39 29-63 87-72" id="aA"/><g id="m"><use transform="matrix(0.010850694444444444,0,0,0.010850694444444444,0,0)" xlink:href="#aA"/><use transform="matrix(0.010850694444444444,0,0,0.010850694444444444,16.710069444444443,0)" xlink:href="#an"/><use transform="matrix(0.010850694444444444,0,0,0.010850694444444444,21.375868055555554,0)" xlink:href="#ae"/><use transform="matrix(0.010850694444444444,0,0,0.010850694444444444,41.232638888888886,0)" xlink:href="#ai"/></g><path fill="#333" d="M192-1522c32 0 62 26 91 77 302-46 504-73 591-72 195 0 389 60 580 187 89 59 150 170 188 327l19 149c0 292-223 534-667 729-128 56-397 85-720 82-61 62-100 54-168-5-42-23-63-63-63-120 0-45 21-89 63-134l-5-879c-67-75-98-108-96-149H0c0-46 32-75 96-86 14-71 46-106 96-106zm86 365c-1 282 0 563 5 840 322 4 630-22 701-86 248-91 405-208 470-351 24-53 20-84 20-148 0-157-86-260-260-303-331-81-598-42-936 48" id="aB"/><g id="n"><use transform="matrix(0.010850694444444444,0,0,0.010850694444444444,0,0)" xlink:href="#aB"/><use transform="matrix(0.010850694444444444,0,0,0.010850694444444444,19.856770833333332,0)" xlink:href="#an"/><use transform="matrix(0.010850694444444444,0,0,0.010850694444444444,24.522569444444443,0)" xlink:href="#aa"/><use transform="matrix(0.010850694444444444,0,0,0.010850694444444444,39.713541666666664,0)" xlink:href="#at"/><use transform="matrix(0.010850694444444444,0,0,0.010850694444444444,59.244791666666664,0)" xlink:href="#al"/><use transform="matrix(0.010850694444444444,0,0,0.010850694444444444,72.265625,0)" xlink:href="#Z"/><use transform="matrix(0.010850694444444444,0,0,0.010850694444444444,90.92881944444444,0)" xlink:href="#aq"/></g><path fill="#0c7cba" d="M379-1380c436-302 628-287 1138-96 116 99 97 252-29 345-14 10-36 18-67 24-440-117-761-109-1013 212-52 66-62 149-62 230 0 149 66 242 201 264 48 8 93 10 144 10 275 0 536-95 783-284 96-34 170 2 235 82 11 14 24 43 24 86 0 114-67 192-183 264-137 85-286 164-465 207C931 2 821 21 754 21c-217 0-407-47-543-172C54-295 0-487 0-723c0-226 109-470 379-657" id="aC"/><path fill="#0c7cba" d="M1344 34c-134 47-238-82-206-249-8-67-4-147-5-221l-701 5-5 5c-1 79 2 156 5 230 4 84-64 159-168 168-77 7-151-59-168-148 9-86 1-179 0-269-64-40-96-88-96-144 0-94 37-154 67-183 16-8 24-21 24-38 1-210-3-416-5-624-2-3-5-4-4-10 0-65 35-120 110-148 94-35 185 4 221 91 2 19 5 29 9 29-8 202 1 417 0 624 235 1 469 4 706 4 9-213 0-442 0-657 0-49 30-99 101-130 99-43 180 4 221 106 22 55-4 142 9 206v504c109 94 83 224 0 327 2 121 5 241 5 364 0 78-40 131-120 158" id="aD"/><path fill="#0c7cba" d="M1258-435c72 0 163 120 172 240 5 70-69 161-172 163L427-17c-45 63-96 95-153 95-79 0-136-53-173-158 0-11-26-58-77-139-35-92-1-137 77-206v-298c0-7-25-41-67-105-17-26-26-59-34-96 0-57 32-108 96-154v-182c0-9-27-38-58-101-73-149-37-235 116-298l105-33 115 33h788c119 0 194 38 225 115 19 23 48 66 48 135 0 73-46 127-139 163 0 9-290 17-869 24v130h682c130 0 216 81 216 240 0 81-45 137-135 168-245 9-506 2-758 4v240c276 1 551 5 826 5" id="aE"/><path fill="#0c7cba" d="M379-1380c436-302 628-287 1138-96 116 99 97 252-29 345-14 10-36 18-67 24-440-117-761-109-1013 212-52 66-62 149-62 230 0 149 66 242 201 264 48 8 93 10 144 10 275 0 536-95 783-284 96-34 170 2 235 82 11 14 24 43 24 86 0 114-67 192-183 264-137 85-286 164-465 207C931 2 821 21 754 21c-217 0-407-47-543-172C54-295 0-487 0-723c0-226 109-470 379-657" id="aF"/><path fill="#0c7cba" d="M1378-1686c127-37 220 57 220 212 0 95-56 142-148 192L725-889c268 142 612 301 1017 504 60 30 82 85 82 139 0 104-53 183-158 236l-44 4c-26 0-98-46-230-110L418-586h-5c8 141 4 293 5 441 0 90-54 158-164 158-87 0-144-43-172-129 7-172 3-355 4-533 0-38-11-91-33-158 0-30-18-70-39-125-33-87-10-122 68-192 0-136 2-274-5-403 31-87 79-130 144-130 98-24 168 48 192 154-10 91 1 196 0 293h5" id="aG"/><path fill="#0c7cba" d="M110-1538c60-134 191-152 298-48 266-42 450-63 552-63 223 0 444 69 648 226 91 71 150 185 182 326 20 87 24 148 24 183 0 347-255 636-777 830-153 57-388 65-653 63-42 31-79 47-110 47-65 0-136-48-212-143-36-123-23-173 44-279l-5-801c-41-68-101-83-101-192 0-65 37-115 110-149zm322 384c0 237-1 474 5 705 323 0 529-28 605-86 133-45 234-102 307-168 83-75 125-135 125-182 0-141-20-235-125-274-297-109-585-76-917 5" id="aH"/><g id="o"><use transform="matrix(0.008680555555555556,0,0,0.008680555555555556,0,0)" xlink:href="#aC"/><use transform="matrix(0.008680555555555556,0,0,0.008680555555555556,15.45138888888889,0)" xlink:href="#aD"/><use transform="matrix(0.008680555555555556,0,0,0.008680555555555556,29.253472222222218,0)" xlink:href="#aE"/><use transform="matrix(0.008680555555555556,0,0,0.008680555555555556,42.013888888888886,0)" xlink:href="#aF"/><use transform="matrix(0.008680555555555556,0,0,0.008680555555555556,57.46527777777777,0)" xlink:href="#aG"/><use transform="matrix(0.008680555555555556,0,0,0.008680555555555556,73.78472222222221,0)" xlink:href="#aE"/><use transform="matrix(0.008680555555555556,0,0,0.008680555555555556,86.54513888888889,0)" xlink:href="#aH"/></g><path fill="#0c7cba" d="M1008-1677c150 22 187 109 163 259l5 48c5 505 13 758 24 758 85 86 57 208-5 322l5 120c0 65-46 115-139 149-79 5-119-19-173-82h-5L643 21c-3-2-3-6-9-5L504 36C277 36 127-80 62-314c-21-73-40-147-43-221-9-249-3-499-5-749 0-37-5-71-14-101 27-105 79-158 158-158l15-5c72 0 126 38 163 115 2 23 5 34 10 34l-5 43c2 227 5 453 5 682 0 173 30 272 91 297h33c36 0 166-62 389-187-6-555-24-883-24-960 0-65 46-114 139-149" id="aI"/><path fill="#0c7cba" d="M0-1383c0-104 39-174 134-192 122 4 183 20 183 48 22 0 40 48 53 144l696 677h9v-729c0-38-6-81-19-130 0-79 59-131 178-154 115 18 172 76 172 173v1176c32 45 48 96 48 154 0 132-73 197-177 197-62 0-118-65-207-164-235-262-476-474-686-667h-10c7 490 14 735 20 735 4 76-68 136-173 148-81 9-145-58-173-158l5-53-15-1008c-25-29-38-95-38-197" id="aJ"/><path fill="#0c7cba" d="M888-1009c89 0 160 43 187 130 0 62-48 112-144 149-64 9-325 28-782 57-3 2-4 5-10 5-73 0-119-54-139-163 23-105 67-160 130-158l134 4" id="aK"/><g id="p"><use transform="matrix(0.008680555555555556,0,0,0.008680555555555556,0,0)" xlink:href="#aI"/><use transform="matrix(0.008680555555555556,0,0,0.008680555555555556,11.024305555555555,0)" xlink:href="#aJ"/><use transform="matrix(0.008680555555555556,0,0,0.008680555555555556,24.04513888888889,0)" xlink:href="#aK"/><use transform="matrix(0.008680555555555556,0,0,0.008680555555555556,34.02777777777778,0)" xlink:href="#aF"/><use transform="matrix(0.008680555555555556,0,0,0.008680555555555556,49.47916666666667,0)" xlink:href="#aD"/><use transform="matrix(0.008680555555555556,0,0,0.008680555555555556,63.281250000000014,0)" xlink:href="#aE"/><use transform="matrix(0.008680555555555556,0,0,0.008680555555555556,76.04166666666667,0)" xlink:href="#aF"/><use transform="matrix(0.008680555555555556,0,0,0.008680555555555556,91.49305555555556,0)" xlink:href="#aG"/><use transform="matrix(0.008680555555555556,0,0,0.008680555555555556,107.8125,0)" xlink:href="#aE"/><use transform="matrix(0.008680555555555556,0,0,0.008680555555555556,120.57291666666667,0)" xlink:href="#aH"/></g><path fill="#333" d="M996-1246c-171-63-262 51-256 216h210l-40 188H700L450 427H171L421-842H262l34-188h159c6-313 245-512 580-393" id="aL"/><use transform="matrix(0.010850694444444444,0,0,0.010850694444444444,0,0)" xlink:href="#aL" id="r"/><filter id="q" filterUnits="objectBoundingBox" x="-.17" y="-.07" width="1.33" height="1.33"><feOffset result="offOut" in="SourceAlpha" dy="6"/><feGaussianBlur result="blurOut" in="offOut" stdDeviation="5"/><feColorMatrix result="colorOut" in="blurOut" values="0 0 0 0 0 0 0 0 0 0 0 0 0 0 0 0 0 0 0.5019607843137255 0"/><feBlend in="SourceGraphic" in2="colorOut"/></filter><path fill="#333" d="M312-618C163-599 30-756 29-935c0-219 157-400 470-543l96-19c109 0 231 56 341 187 72 86 37 160-62 216-56 32-106-10-116-86l15-43c-53-29-111-43-173-43-120 0-243 77-370 230-19 46-26 78-24 125 0 18 26 29 77 33l499-76c235-29 376 43 442 249l14 91c0 130-59 283-206 432-271 275-657 282-926-4C26-271 0-344 0-378c13-61 40-92 82-92 33 0 78 37 134 111 131 97 267 145 418 144 123 0 262-89 393-283 53-79 32-148-53-202-153-4-265 31-662 82" id="aM"/><g id="s"><use transform="matrix(0.010850694444444444,0,0,0.010850694444444444,0,0)" xlink:href="#aw"/><use transform="matrix(0.010850694444444444,0,0,0.010850694444444444,18.77170138888889,0)" xlink:href="#ax"/><use transform="matrix(0.010850694444444444,0,0,0.010850694444444444,35.48177083333333,0)" xlink:href="#ai"/><use transform="matrix(0.010850694444444444,0,0,0.010850694444444444,50.88975694444444,0)" xlink:href="#ay"/><use transform="matrix(0.010850694444444444,0,0,0.010850694444444444,69.66145833333333,0)" xlink:href="#az"/><use transform="matrix(0.010850694444444444,0,0,0.010850694444444444,89.51822916666666,0)" xlink:href="#ao"/><use transform="matrix(0.010850694444444444,0,0,0.010850694444444444,109.37499999999997,0)" xlink:href="#ac"/><use transform="matrix(0.010850694444444444,0,0,0.010850694444444444,127.82118055555556,0)" xlink:href="#ar"/><use transform="matrix(0.010850694444444444,0,0,0.010850694444444444,145.72482638888889,0)" xlink:href="#av"/><use transform="matrix(0.010850694444444444,0,0,0.010850694444444444,151.89887152777777,0)" xlink:href="#aM"/><use transform="matrix(0.010850694444444444,0,0,0.010850694444444444,167.08984375,0)" xlink:href="#ax"/><use transform="matrix(0.010850694444444444,0,0,0.010850694444444444,183.79991319444443,0)" xlink:href="#ac"/><use transform="matrix(0.010850694444444444,0,0,0.010850694444444444,202.24609375,0)" xlink:href="#ab"/></g><path fill="#333" d="M911-1480c283 0 467 83 523 259 36 113-6 156-76 298-2 24 36 36 110 72 110 53 163 139 163 249l5 44c0 141-119 291-355 451-84 57-384 86-903 86H244c1 69-24 106-77 105-41 0-68-32-81-95-26 6-49-58-48-125 0-35 16-83 48-144-2-133-3-265-5-398-7 0-17-2-19 4-41-14-62-52-62-115 0-71 25-127 76-168-1-72-3-144-5-216-61-55-91-103-91-144 0-45 34-70 101-77 14-25 38-38 72-38l57 29c265-39 498-77 701-77zm-686 360v154h163c508 0 783-35 826-106 17 0 32-26 43-77 0-48-82-72-245-72-270 0-503 16-768 67-13 9-19 21-19 34zm5 432c5 134 0 277 9 408 541 0 851-16 903-48 221-73 331-153 331-240 0-137-147-206-442-206-472 0-738 65-801 86" id="aN"/><g id="t"><use transform="matrix(0.010850694444444444,0,0,0.010850694444444444,0,0)" xlink:href="#aN"/><use transform="matrix(0.010850694444444444,0,0,0.010850694444444444,19.856770833333332,0)" xlink:href="#au"/><use transform="matrix(0.010850694444444444,0,0,0.010850694444444444,33.203125,0)" xlink:href="#ap"/><use transform="matrix(0.010850694444444444,0,0,0.010850694444444444,46.77734375,0)" xlink:href="#ap"/><use transform="matrix(0.010850694444444444,0,0,0.010850694444444444,60.3515625,0)" xlink:href="#ac"/><use transform="matrix(0.010850694444444444,0,0,0.010850694444444444,78.79774305555556,0)" xlink:href="#as"/><use transform="matrix(0.010850694444444444,0,0,0.010850694444444444,94.53125,0)" xlink:href="#av"/></g><path fill="#333" d="M38-1511c-1-44 38-81 106-81 89 0 89 79 77 163l5 58 19 1089h648c150 0 225 13 225 39 16 2 26 50 29 144-9 51-43 76-101 76-266-1-536 3-796-4-52 90-140 80-183-15C22-71 0-118 0-181c0-42 24-77 72-106l-5-19-14-1109" id="aO"/><g id="u"><use transform="matrix(0.010850694444444444,0,0,0.010850694444444444,0,0)" xlink:href="#aO"/><use transform="matrix(0.010850694444444444,0,0,0.010850694444444444,13.020833333333332,0)" xlink:href="#ac"/><use transform="matrix(0.010850694444444444,0,0,0.010850694444444444,31.46701388888889,0)" xlink:href="#ak"/></g><path fill="#333" d="M0-1411c19-46 47-72 91-67 64 7 101 40 96 86l-14 139c2 392 5 792 5 1176 0 41-29 66-87 77C34-7 5-35 5-82H0l5-81c-2-415 5-840-5-1248" id="aP"/><g id="v"><use transform="matrix(0.010850694444444444,0,0,0.010850694444444444,0,0)" xlink:href="#aP"/><use transform="matrix(0.010850694444444444,0,0,0.010850694444444444,4.665798611111111,0)" xlink:href="#as"/></g><path fill="#333" d="M600-1697c47 7 86 20 120 34h778c107 0 167 16 187 43 42 56 67 114 67 178 0 85-54 149-163 192 0 11-304 19-912 24-23 65-34 108-34 129h672c122-3 197 72 197 192 0 96-54 166-163 211l-82 10H547c-12 0-34 80-67 240 262 7 533 5 802 5 70 0 131 35 144 115l14 86c5 97-82 171-202 202L379-22C313 43 257 81 202 74 108 61 62 13 62-50c0-82-62-138-62-216 0-63 48-121 144-173l72-317c-87-160-74-254 91-336l43-206c-78-169-57-292 120-360" id="aQ"/><use transform="matrix(0.010850694444444444,0,0,0.010850694444444444,0,0)" xlink:href="#aQ" id="w"/><path fill="#333" d="M600-1753c103 15 154 63 154 144L470-452l5 14h547c173 0 260 11 260 34 41 30 62 67 62 110 0 136-42 202-67 202-35 45-80 67-135 67H394l-44-5C235 65 119 65 48-87c-17 0-33-32-48-96 0-59 24-123 72-192 48-30 72-72 72-125 167-661 250-1006 250-1037-3-112 77-199 206-216" id="aR"/><use transform="matrix(0.010850694444444444,0,0,0.010850694444444444,0,0)" xlink:href="#aR" id="x"/><path fill="#333" d="M67-1445c46-229 217-306 355-144 216 1 427-3 639-5 102 23 153 75 153 154 2 3 5 4 5 10 0 136-24 217-72 244-45 26-91 38-139 39l-571 9v116h595c126 0 202 56 202 172 0 108-27 182-82 221 0 26-237 39-710 39 3 153-11 306 0 451 4 63-66 121-164 139-109-23-162-71-163-144l-5-446C40-634 5-685 5-744c16-79 51-153 105-221-7-54-3-117-4-177-127-85-140-183-39-303" id="aS"/><path fill="#333" d="M1008-1677c150 22 187 109 163 259l5 48c5 505 13 758 24 758 85 86 57 208-5 322l5 120c0 65-46 115-139 149-79 5-119-19-173-82h-5L643 21c-3-2-3-6-9-5L504 36C277 36 127-80 62-314c-21-73-40-147-43-221-9-249-3-499-5-749 0-37-5-71-14-101 27-105 79-158 158-158l15-5c72 0 126 38 163 115 2 23 5 34 10 34l-5 43c2 227 5 453 5 682 0 173 30 272 91 297h33c36 0 166-62 389-187-6-555-24-883-24-960 0-65 46-114 139-149" id="aT"/><path fill="#333" d="M0-1383c0-104 39-174 134-192 122 4 183 20 183 48 22 0 40 48 53 144l696 677h9v-729c0-38-6-81-19-130 0-79 59-131 178-154 115 18 172 76 172 173v1176c32 45 48 96 48 154 0 132-73 197-177 197-62 0-118-65-207-164-235-262-476-474-686-667h-10c7 490 14 735 20 735 4 76-68 136-173 148-81 9-145-58-173-158l5-53-15-1008c-25-29-38-95-38-197" id="aU"/><path fill="#333" d="M379-1380c436-302 628-287 1138-96 116 99 97 252-29 345-14 10-36 18-67 24-440-117-761-109-1013 212-52 66-62 149-62 230 0 149 66 242 201 264 48 8 93 10 144 10 275 0 536-95 783-284 96-34 170 2 235 82 11 14 24 43 24 86 0 114-67 192-183 264-137 85-286 164-465 207C931 2 821 21 754 21c-217 0-407-47-543-172C54-295 0-487 0-723c0-226 109-470 379-657" id="aV"/><path fill="#333" d="M446-1603c106-128 202-128 308 0h254c107 0 183 80 230 240 0 85-57 139-172 163l-5-5H768c4 590 14 944 14 1061 0 51-37 102-120 134-95 36-164-15-211-110-16-33 0-75 0-115 0-311-5-637-9-955l-5-15h-63c-189 0-283-13-283-38-61-61-91-126-91-197 0-75 48-130 144-163h302" id="aW"/><path fill="#333" d="M173 0C92 2 33-56 5-149c11-372 2-762 5-1142 0-85-10-149-10-192 0-69 44-128 139-154 93-26 151 27 202 120 2 26 5 39 9 39-13 57-19 112-19 163 1 391 5 788 5 1171 0 46-34 89-101 130" id="aX"/><path fill="#333" d="M1118-1610c239 0 437 99 576 307 76 114 106 234 106 350 0 312-211 623-672 855C725 104 362 88 120-252 33-373 0-509 0-646c0-227 107-461 350-667 247-210 513-297 768-297zM442-900c-77 104-101 159-101 269 0 118 86 200 259 235 34 7 68 5 106 5 137 0 344-73 595-255 111-80 153-170 153-235v-77c0-113-101-191-302-235l-72-5c-201 0-414 99-638 298" id="aY"/><g id="y"><use transform="matrix(0.008680555555555556,0,0,0.008680555555555556,0,0)" xlink:href="#aS"/><use transform="matrix(0.008680555555555556,0,0,0.008680555555555556,11.284722222222223,0)" xlink:href="#aT"/><use transform="matrix(0.008680555555555556,0,0,0.008680555555555556,22.30902777777778,0)" xlink:href="#aU"/><use transform="matrix(0.008680555555555556,0,0,0.008680555555555556,35.329861111111114,0)" xlink:href="#aV"/><use transform="matrix(0.008680555555555556,0,0,0.008680555555555556,50.78125,0)" xlink:href="#aW"/><use transform="matrix(0.008680555555555556,0,0,0.008680555555555556,62.06597222222222,0)" xlink:href="#aX"/><use transform="matrix(0.008680555555555556,0,0,0.008680555555555556,65.79861111111111,0)" xlink:href="#aY"/><use transform="matrix(0.008680555555555556,0,0,0.008680555555555556,81.25,0)" xlink:href="#aU"/></g><path fill="#333" d="M998-1710c115-32 180 43 231 183 14 39 0 80-5 120l302 710c151 58 210 178 125 322 5 41 30 104 77 187 19 100-35 163-139 206l-43 9c-112-23-168-69-168-138l-68-168c-283-12-579 0-864 4C346-105 271-20 221-20 93-20 29-62 0-203c0-35 34-96 101-182-49-141 1-215 129-298 67-7 101-25 101-52 317-471 475-719 475-744 0-107 61-194 192-231zM725-707v15h413c-86-228-146-360-164-389-12 9-95 133-249 374" id="aZ"/><path fill="#333" d="M216-1752c109 19 163 71 163 158h5l-5 24 19 1133h668c119 0 193 37 220 110l20 139c0 66-39 117-116 154-12 6-29 10-52 10H379c-9 0-37 17-86 52C185 56 138 9 58-96 19-126 0-182 0-264c0-47 22-95 67-144-5-347-9-695-14-1042l-15-149c0-60 42-108 125-144" id="ba"/><g id="z"><use transform="matrix(0.008680555555555556,0,0,0.008680555555555556,0,0)" xlink:href="#aV"/><use transform="matrix(0.008680555555555556,0,0,0.008680555555555556,15.45138888888889,0)" xlink:href="#aZ"/><use transform="matrix(0.008680555555555556,0,0,0.008680555555555556,30.815972222222218,0)" xlink:href="#ba"/><use transform="matrix(0.008680555555555556,0,0,0.008680555555555556,41.66666666666666,0)" xlink:href="#ba"/></g><path fill="#333" d="M682-1657c135 0 273 78 412 235 66 124 33 200-67 298 0 6 10 9 29 9 89 18 169 57 230 125 77 88 111 190 111 298 0 174-84 372-293 542C821 81 473 85 192-160 55-280 0-391 0-462c0-114 77-168 168-168 55 0 117 45 187 134 109 80 229 120 360 120 97 0 209-85 336-254 4-14 6-29 5-48-16-26-26-29-58-29-56 0-253 82-604 82-165 0-280-91-346-274-4-47-15-87-14-139 0-233 171-432 513-595zm-312 614h24c291-43 436-68 436-77v-4c-45-37-67-82-67-135-7-6-33-14-77-14-91 0-190 59-297 177-13 23-19 41-19 53" id="bb"/><path fill="#333" d="M1258-435c72 0 163 120 172 240 5 70-69 161-172 163L427-17c-45 63-96 95-153 95-79 0-136-53-173-158 0-11-26-58-77-139-35-92-1-137 77-206v-298c0-7-25-41-67-105-17-26-26-59-34-96 0-57 32-108 96-154v-182c0-9-27-38-58-101-73-149-37-235 116-298l105-33 115 33h788c119 0 194 38 225 115 19 23 48 66 48 135 0 73-46 127-139 163 0 9-290 17-869 24v130h682c130 0 216 81 216 240 0 81-45 137-135 168-245 9-506 2-758 4v240c276 1 551 5 826 5" id="bc"/><g id="A"><use transform="matrix(0.008680555555555556,0,0,0.008680555555555556,0,0)" xlink:href="#ba"/><use transform="matrix(0.008680555555555556,0,0,0.008680555555555556,10.850694444444445,0)" xlink:href="#aX"/><use transform="matrix(0.008680555555555556,0,0,0.008680555555555556,14.583333333333334,0)" xlink:href="#bb"/><use transform="matrix(0.008680555555555556,0,0,0.008680555555555556,27.083333333333336,0)" xlink:href="#aW"/><use transform="matrix(0.008680555555555556,0,0,0.008680555555555556,38.36805555555556,0)" xlink:href="#bc"/><use transform="matrix(0.008680555555555556,0,0,0.008680555555555556,51.128472222222236,0)" xlink:href="#aU"/><use transform="matrix(0.008680555555555556,0,0,0.008680555555555556,64.14930555555556,0)" xlink:href="#bb"/></g><g id="B"><use transform="matrix(0.010850694444444444,0,0,0.010850694444444444,0,0)" xlink:href="#aO"/><use transform="matrix(0.010850694444444444,0,0,0.010850694444444444,13.020833333333332,0)" xlink:href="#an"/><use transform="matrix(0.010850694444444444,0,0,0.010850694444444444,17.686631944444443,0)" xlink:href="#aa"/><use transform="matrix(0.010850694444444444,0,0,0.010850694444444444,32.877604166666664,0)" xlink:href="#ap"/><use transform="matrix(0.010850694444444444,0,0,0.010850694444444444,46.451822916666664,0)" xlink:href="#ai"/><use transform="matrix(0.010850694444444444,0,0,0.010850694444444444,61.85980902777778,0)" xlink:href="#as"/><use transform="matrix(0.010850694444444444,0,0,0.010850694444444444,77.59331597222221,0)" xlink:href="#ai"/><use transform="matrix(0.010850694444444444,0,0,0.010850694444444444,93.00130208333333,0)" xlink:href="#ad"/></g><path fill="#333" d="M106-1504c88-41 67-36 163 0 299-1 595 5 888 5 45 0 100 79 115 177-17 58-60 86-130 87l-878 14c5 91 6 186 5 283h744c96-2 153 56 153 154 0 70-41 105-124 105H274v394c297 2 595 3 892 5 41 0 76 51 106 153 0 49-35 95-110 96L293-16c-21 61-54 91-101 91-52 0-87-43-106-130C32-137 5-185 5-199c0-43 32-73 96-91l-5-33v-375C32-756 0-807 0-851c0-46 30-75 91-87v-293c-80-78-159-245 15-273" id="bd"/><path fill="#333" d="M1440-1338c73 21 110 72 110 153 0 27-48 86-129 188L778-191v14c35 59 52 98 52 116 0 58-37 86-86 86-33 0-64-21-91-62-22 5-38 17-58 24-57 0-105-54-105-164 0-20 14-49 43-86-114-232-280-533-499-902-65-68-38-159 76-159 41 0 73 40 96 120 184 309 331 570 442 783h5c8 0 163-194 465-581 156-199 249-310 279-331" id="be"/><g id="C"><use transform="matrix(0.010850694444444444,0,0,0.010850694444444444,0,0)" xlink:href="#bd"/><use transform="matrix(0.010850694444444444,0,0,0.010850694444444444,15.40798611111111,0)" xlink:href="#be"/><use transform="matrix(0.010850694444444444,0,0,0.010850694444444444,34.1796875,0)" xlink:href="#ai"/><use transform="matrix(0.010850694444444444,0,0,0.010850694444444444,49.58767361111111,0)" xlink:href="#as"/><use transform="matrix(0.010850694444444444,0,0,0.010850694444444444,65.32118055555556,0)" xlink:href="#ap"/></g><g id="D"><use transform="matrix(0.010850694444444444,0,0,0.010850694444444444,0,0)" xlink:href="#af"/><use transform="matrix(0.010850694444444444,0,0,0.010850694444444444,13.57421875,0)" xlink:href="#au"/><use transform="matrix(0.010850694444444444,0,0,0.010850694444444444,26.920572916666664,0)" xlink:href="#as"/><use transform="matrix(0.010850694444444444,0,0,0.010850694444444444,42.65407986111111,0)" xlink:href="#ay"/><use transform="matrix(0.010850694444444444,0,0,0.010850694444444444,61.42578125,0)" xlink:href="#ap"/><use transform="matrix(0.010850694444444444,0,0,0.010850694444444444,75,0)" xlink:href="#an"/><use transform="matrix(0.010850694444444444,0,0,0.010850694444444444,79.66579861111111,0)" xlink:href="#ac"/><use transform="matrix(0.010850694444444444,0,0,0.010850694444444444,98.11197916666666,0)" xlink:href="#as"/></g><g id="E"><use transform="matrix(0.010850694444444444,0,0,0.010850694444444444,0,0)" xlink:href="#ah"/><use transform="matrix(0.010850694444444444,0,0,0.010850694444444444,13.346354166666666,0)" xlink:href="#at"/><use transform="matrix(0.010850694444444444,0,0,0.010850694444444444,32.877604166666664,0)" xlink:href="#ae"/><use transform="matrix(0.010850694444444444,0,0,0.010850694444444444,52.734375,0)" xlink:href="#Z"/><use transform="matrix(0.010850694444444444,0,0,0.010850694444444444,71.39756944444444,0)" xlink:href="#ap"/><use transform="matrix(0.010850694444444444,0,0,0.010850694444444444,84.97178819444444,0)" xlink:href="#ai"/></g><g id="F"><use transform="matrix(0.010850694444444444,0,0,0.010850694444444444,0,0)" xlink:href="#aM"/><use transform="matrix(0.010850694444444444,0,0,0.010850694444444444,15.190972222222221,0)" xlink:href="#ap"/><use transform="matrix(0.010850694444444444,0,0,0.010850694444444444,28.76519097222222,0)" xlink:href="#Z"/><use transform="matrix(0.010850694444444444,0,0,0.010850694444444444,47.428385416666664,0)" xlink:href="#ap"/><use transform="matrix(0.010850694444444444,0,0,0.010850694444444444,61.002604166666664,0)" xlink:href="#ai"/></g><path d="M920-744c0 218 15 427 27 645 5 89-139 139-182 58-3-3-13-32-31-85-53-161-192-263-415-306-18 75-30 243-58 360-12 50-50 72-97 72-56 0-99-53-99-108 1-367 194-896 360-1117 69-92 141-140 222-140 182 0 273 207 273 621zM720-476v-400c-19-103-12-145-34-225-11-40-25-60-41-60-32 0-83 65-153 195-56 103-99 215-130 336 137 27 256 79 358 154" id="bf"/><use transform="matrix(0.012803819444444444,0,0,0.012803819444444444,0,0)" xlink:href="#bf" id="G"/><path d="M196-1063c0-251 371-378 608-255 71 37 119 87 150 151 35 73-14 152-87 150-26 0-63-25-111-73s-102-72-162-72c-72 0-200 37-200 99 0 43 47 111 142 203 145 142 234 232 266 271 95 116 142 225 142 328C944-95 791 0 613 0 494 0 170-60 118-111c-29-29-48-55-48-87-1-69 67-120 140-92h-2c162 59 305 89 429 89 69 0 104-25 104-75 0-69-47-151-142-245-86-86-177-167-261-254-98-100-142-199-142-288" id="bg"/><path d="M270-1365c53 0 101 46 100 99-5 357-80 777-80 1073C290-64 254 0 183 0 132 0 82-50 82-101c0-298 47-662 55-976 2-76 19-138 34-189 19-66 52-99 99-99" id="bh"/><path d="M188 0C127 1 82-61 96-128c102-498 136-682 239-1056 16-58 29-97 39-118 39-81 152-87 186 3 8 21 18 60 27 118 29 181 79 412 149 693 44-195 133-594 228-824 15-37 48-53 86-53 50 0 89 31 100 97 19 117 18 225 53 381 45 201 158 605 162 785 1 54-41 102-95 102-46 0-83-20-96-65-38-130-44-258-87-432-40-161-61-264-70-309-35 138-86 345-147 622-13 58-23 96-30 117-29 83-132 87-176 19-11-18-25-49-39-97-63-219-122-453-173-703-35 145-85 365-140 660-11 60-19 101-29 123-20 43-51 65-95 65" id="bi"/><path d="M492-1365c272 0 549 114 549 360 0 140-81 265-244 374-130 87-276 146-439 180-7 56-15 301-32 372-12 53-46 79-94 79-53 0-99-48-99-101 0-201 55-864 50-1044-38-23-57-56-57-99 0-39 24-69 72-90s147-31 294-31zm348 355c0-132-280-161-454-151-1 136-2 303-2 501 100-31 192-72 276-122 120-70 180-146 180-228" id="bj"/><path d="M759-451c68-46 151 19 151 87 0 27-17 54-48 86C767-182 491 0 329 0 186 0 114-109 114-326c0-169 46-507 46-695 0-139-8-341 120-344 53-2 103 46 101 99-4-2-27 472-40 636-16 198-27 312-27 343 0 57 11 86 32 86 61 0 169-62 325-185 19-16 49-38 88-65" id="bk"/><path d="M369 0C201 0 119-119 119-294c0-119 26-272 77-457 80-290 99-377 125-524 7-13 27-26 60-41 71-33 211-49 419-49 129 0 193 36 193 107 0 50-48 105-99 101-142-10-258-9-397 20-11 59-34 158-69 297 146-57 246-85 301-85 53 0 100 43 100 96 0 43-23 80-73 99-127 49-178 54-389 129-29 119-44 224-44 314 0 58 10 87 30 87 66 0 151-30 256-90s173-91 205-91c50 0 101 49 101 99 0 30-19 57-51 87C794-129 500 0 369 0" id="bl"/><g id="H"><use transform="matrix(0.012803819444444444,0,0,0.012803819444444444,0,0)" xlink:href="#bg"/><use transform="matrix(0.012803819444444444,0,0,0.012803819444444444,13.674479166666666,0)" xlink:href="#bh"/><use transform="matrix(0.012803819444444444,0,0,0.012803819444444444,19.372178819444443,0)" xlink:href="#bi"/><use transform="matrix(0.012803819444444444,0,0,0.012803819444444444,38.142578125,0)" xlink:href="#bj"/><use transform="matrix(0.012803819444444444,0,0,0.012803819444444444,51.75303819444444,0)" xlink:href="#bk"/><use transform="matrix(0.012803819444444444,0,0,0.012803819444444444,63.48133680555556,0)" xlink:href="#bl"/></g><path d="M108-101c0-144 39-657 39-763 0-78 7-179 29-235 46-116 122-195 235-232 69-23 183-34 342-34 78 0 117 33 117 99 0 83-48 100-162 100-195-1-308 48-343 145-25 70-17 205-22 302 195-81 317-121 367-121 54 0 101 56 101 110 0 37-23 69-72 88-119 47-231 77-408 144-1 97 0 317-24 397C287-35 257 0 208 0c-50 0-100-50-100-101" id="bm"/><path d="M807-1260c0-54 40-105 96-105 43 0 76 24 99 73 18 39 27 131 27 277 0 274-20 485-61 631C895-128 757 0 555 0 385 0 262-90 189-270c-51-126-76-289-76-488 0-289 18-467 53-534 26-49 59-73 99-73 52 0 105 52 99 104-14 128-48 300-48 513 0 128 14 239 41 332 41 144 108 216 201 216 105 0 179-98 225-293 29-124 45-265 45-422 0-66-21-279-21-345" id="bn"/><path d="M829-1263c0-55 42-106 96-102 141 10 133 224 150 372 25 219 36 341 36 365 0 117-18 227-55 328C983-97 875 5 732 5 532 5 402-187 343-570c-16 123-24 243-24 360C319-70 282 0 207 0c-53 0-99-44-99-97 0-315 85-1025 186-1197 27-46 56-71 93-71 53 0 88 33 105 99 5 21 8 92 8 213 0 153 26 313 55 481 43 253 101 379 172 379 116 0 183-303 183-438 0-120-81-513-81-632" id="bo"/><path d="M773-362c52-3 103 50 103 101 0 27-17 56-48 89C762-102 548 0 418 0 210 0 81-204 84-422c3-221 73-486 152-640 103-201 220-303 358-303 167 0 251 128 251 385 0 123-35 185-106 185-48 0-101-46-99-94 2-77 27-278-39-278-46 0-94 47-150 138-89 144-168 415-168 602 0 146 56 219 169 219 46 0 106-26 180-77s122-77 141-77" id="bp"/><path d="M46-1227c0-128 188-119 328-120 79-1 391-35 488-35 99 0 148 35 148 105 0 65-48 98-145 98-76 0-153 3-232 8 1 179-14 796-13 976C622-79 604-4 510 0c-53 2-99-44-99-97v-270c21-312 24-505 22-785-143 13-240 20-291 20-64 0-96-32-96-95" id="bq"/><path d="M609-1364c323 0 519 229 519 557 0 183-51 357-152 522C860-95 716 0 544 0 271 0 97-283 97-570c0-191 38-362 113-512 95-188 228-282 399-282zm319 550c0-231-116-347-349-347-81 0-151 81-210 243-48 132-72 248-72 348 0 161 47 272 142 333 35 23 69 34 100 34 113 0 208-76 287-229 68-131 102-258 102-382" id="br"/><g id="I"><use transform="matrix(0.012803819444444444,0,0,0.012803819444444444,0,0)" xlink:href="#bm"/><use transform="matrix(0.012803819444444444,0,0,0.012803819444444444,11.408203125,0)" xlink:href="#bn"/><use transform="matrix(0.012803819444444444,0,0,0.012803819444444444,26.004557291666664,0)" xlink:href="#bo"/><use transform="matrix(0.012803819444444444,0,0,0.012803819444444444,41.676432291666664,0)" xlink:href="#bp"/><use transform="matrix(0.012803819444444444,0,0,0.012803819444444444,54.070529513888886,0)" xlink:href="#bq"/><use transform="matrix(0.012803819444444444,0,0,0.012803819444444444,67.61697048611111,0)" xlink:href="#bh"/><use transform="matrix(0.012803819444444444,0,0,0.012803819444444444,73.31467013888889,0)" xlink:href="#br"/><use transform="matrix(0.012803819444444444,0,0,0.012803819444444444,88.93532986111111,0)" xlink:href="#bo"/></g><path d="M925-1365c50 0 101 48 101 99 0 165-53 833-94 1164C923-33 882 0 831 0c-53 0-101-49-101-102 0-145 29-345 45-490-111 9-252 35-425 78-6 58-9 145-9 260 0 35-10 86-22 153C307-33 270 0 220 0c-53 0-103-48-102-101 6-372 65-764 56-1090-3-108 18-171 108-174 55-2 99 41 99 97v544c167-44 304-66 413-66 7-75 10-182 10-321 8-35 11-88 22-155s48-99 99-99" id="bs"/><path d="M922-654c-9 182 20 369 29 555 5 90-140 139-183 58-2-3-13-31-31-85-54-160-191-263-414-306-19 75-30 243-58 360-12 50-51 72-98 72-55 0-99-53-99-108 1-366 195-896 360-1117 69-92 141-140 222-140 182 0 273 207 273 621 0 19 1 49-1 90zM724-476v-400c-20-103-13-145-35-225-11-40-25-60-40-60-32 0-83 65-154 195-56 103-99 215-130 336 137 27 256 79 359 154" id="bt"/><g id="J"><use transform="matrix(0.012803819444444444,0,0,0.012803819444444444,0,0)" xlink:href="#bq"/><use transform="matrix(0.012803819444444444,0,0,0.012803819444444444,13.546440972222221,0)" xlink:href="#bs"/><use transform="matrix(0.012803819444444444,0,0,0.012803819444444444,28.16840277777778,0)" xlink:href="#bt"/><use transform="matrix(0.012803819444444444,0,0,0.012803819444444444,41.84288194444444,0)" xlink:href="#bq"/></g><path d="M432-1365c342 0 623 232 623 568 0 219-132 374-395 466 145 90 217 167 217 230 0 52-52 98-104 96-17 0-39-10-66-29-90-65-203-166-304-203v78C403-53 368 0 299 0c-53 0-99-44-99-97v-374c17-145 25-361 25-650-2 5-10 7-24 7-53 2-99-46-99-99 0-112 194-152 330-152zm257 786c221-128 209-317 21-469-89-71-178-111-268-119-1 97-2 329-2 698 90-27 172-66 249-110" id="bu"/><path d="M196-1063c0-251 371-378 608-255 71 37 119 87 150 151 35 73-14 152-87 150-26 0-63-25-111-73s-102-72-162-72c-72 0-200 37-200 99 0 43 47 111 142 203 145 142 234 232 266 271 95 116 142 225 142 328C944-95 791 0 613 0 494 0 170-60 118-111c-29-29-48-55-48-87-1-69 67-120 140-92h-2c162 59 305 89 429 89 69 0 104-25 104-75 0-69-47-151-142-245-86-86-177-167-261-254-98-100-142-199-142-288" id="bv"/><g id="K"><use transform="matrix(0.012803819444444444,0,0,0.012803819444444444,0,0)" xlink:href="#bp"/><use transform="matrix(0.012803819444444444,0,0,0.012803819444444444,12.394097222222221,0)" xlink:href="#br"/><use transform="matrix(0.012803819444444444,0,0,0.012803819444444444,28.014756944444443,0)" xlink:href="#bo"/><use transform="matrix(0.012803819444444444,0,0,0.012803819444444444,43.68663194444444,0)" xlink:href="#bq"/><use transform="matrix(0.012803819444444444,0,0,0.012803819444444444,57.233072916666664,0)" xlink:href="#bu"/><use transform="matrix(0.012803819444444444,0,0,0.012803819444444444,71.76540798611111,0)" xlink:href="#br"/><use transform="matrix(0.012803819444444444,0,0,0.012803819444444444,87.38606770833334,0)" xlink:href="#bk"/><use transform="matrix(0.012803819444444444,0,0,0.012803819444444444,99.11436631944446,0)" xlink:href="#bv"/></g><g id="L"><use transform="matrix(0.012803819444444444,0,0,0.012803819444444444,0,0)" xlink:href="#bq"/><use transform="matrix(0.012803819444444444,0,0,0.012803819444444444,13.546440972222221,0)" xlink:href="#bs"/><use transform="matrix(0.012803819444444444,0,0,0.012803819444444444,28.16840277777778,0)" xlink:href="#bl"/></g><path d="M925-1365c52 0 103 46 101 97 0 23-38 113-113 270-125 261-227 519-304 774-21 71-38 117-49 139-29 57-63 85-104 85-109-1-156-321-181-456-30-165-184-659-203-805-7-52 44-104 97-104 40 0 72 25 99 73 46 84 66 250 92 370 23 106 68 262 121 471 71-167 173-418 306-754 20-51 35-86 46-104 25-37 55-56 92-56" id="bw"/><path d="M111-254c0-80 75-479 73-483 3-23 17-167 40-434-41-20-62-51-62-94 0-67 48-100 145-100 431 0 647 127 647 380 0 161-86 280-258 359 120 81 180 177 180 290 0 173-116 256-272 302C530-12 459 0 391 0 204 0 111-85 111-254zm642-722c0-105-210-177-326-186-9 140-24 282-43 426 246-59 369-139 369-240zm-77 638c-27-89-136-153-326-193-27 162-48 229-34 323 82 18 157 3 237-24 75-26 116-61 123-106" id="bx"/><path d="M534 0c-54 1-104-40-104-96 0-45 18-79 58-93 38-13 78-19 114-33 139-52 207-229 207-522-71 158-178 237-321 237-171 0-289-87-355-261-43-114-65-273-65-478 0-79 34-119 101-119 58 0 96 44 106 134 10 91 12 183 22 275 13 113 52 188 113 226 57 35 92 27 153-4 115-60 203-251 231-413 5-26 9-65 25-113s51-71 94-71c48 0 84 32 102 97 48 177 15 638-17 760-49 186-136 325-271 414C667-20 603 0 534 0" id="by"/><g id="M"><use transform="matrix(0.012803819444444444,0,0,0.012803819444444444,0,0)" xlink:href="#bw"/><use transform="matrix(0.012803819444444444,0,0,0.012803819444444444,13.700086805555555,0)" xlink:href="#bh"/><use transform="matrix(0.012803819444444444,0,0,0.012803819444444444,19.397786458333332,0)" xlink:href="#bv"/><use transform="matrix(0.012803819444444444,0,0,0.012803819444444444,33.097873263888886,0)" xlink:href="#bh"/><use transform="matrix(0.012803819444444444,0,0,0.012803819444444444,38.795572916666664,0)" xlink:href="#bx"/><use transform="matrix(0.012803819444444444,0,0,0.012803819444444444,52.0859375,0)" xlink:href="#bh"/><use transform="matrix(0.012803819444444444,0,0,0.012803819444444444,57.78363715277778,0)" xlink:href="#bk"/><use transform="matrix(0.012803819444444444,0,0,0.012803819444444444,69.51193576388889,0)" xlink:href="#bh"/><use transform="matrix(0.012803819444444444,0,0,0.012803819444444444,75.20963541666666,0)" xlink:href="#bq"/><use transform="matrix(0.012803819444444444,0,0,0.012803819444444444,88.75607638888889,0)" xlink:href="#by"/></g><g id="N"><use transform="matrix(0.012803819444444444,0,0,0.012803819444444444,0,0)" xlink:href="#br"/><use transform="matrix(0.012803819444444444,0,0,0.012803819444444444,15.620659722222221,0)" xlink:href="#bm"/></g><use transform="matrix(0.012803819444444444,0,0,0.012803819444444444,0,0)" xlink:href="#bt" id="O"/><path d="M1319-1365c51 0 104 50 101 100-10 151-188 568-251 746-42 119-107 332-145 435-41 112-162 111-205 2-9-23-20-69-34-138-17-86-44-213-77-384-29 121-72 278-128 471-24 85-42 143-123 143-41 0-71-22-90-66-8-19-18-59-29-120-39-219-218-896-246-1087-8-52 44-102 97-102 45 0 77 25 99 73 7 15 12 53 23 113 33 173 101 434 160 701 72-277 121-491 147-642 10-57 21-94 27-114 29-93 161-81 184 7 6 22 11 66 11 133 0 150 43 362 100 635l239-724c8-25 20-62 43-109 25-50 60-73 97-73" id="bz"/><path d="M387-1365c369 0 678 217 678 573 0 172-83 346-249 522C647-90 478 0 307 0 194 0 137-80 137-239c0-257 30-558 68-915-53-11-80-43-80-95 0-56 32-93 97-108 26-6 81-8 165-8zm21 204c-15 76-47 491-72 917 0 13 1 27 2 41 116-22 231-92 346-210 120-123 180-241 180-355-1-196-67-277-209-343-74-35-157-50-247-50" id="bA"/><g id="P"><use transform="matrix(0.012803819444444444,0,0,0.012803819444444444,0,0)" xlink:href="#bj"/><use transform="matrix(0.012803819444444444,0,0,0.012803819444444444,13.610460069444445,0)" xlink:href="#bt"/><use transform="matrix(0.012803819444444444,0,0,0.012803819444444444,27.28493923611111,0)" xlink:href="#bv"/><use transform="matrix(0.012803819444444444,0,0,0.012803819444444444,40.985026041666664,0)" xlink:href="#bv"/><use transform="matrix(0.012803819444444444,0,0,0.012803819444444444,54.68511284722222,0)" xlink:href="#bz"/><use transform="matrix(0.012803819444444444,0,0,0.012803819444444444,72.99457465277777,0)" xlink:href="#br"/><use transform="matrix(0.012803819444444444,0,0,0.012803819444444444,88.615234375,0)" xlink:href="#bu"/><use transform="matrix(0.012803819444444444,0,0,0.012803819444444444,103.14756944444444,0)" xlink:href="#bA"/></g><g id="Q"><use transform="matrix(0.012803819444444444,0,0,0.012803819444444444,0,0)" xlink:href="#bh"/><use transform="matrix(0.012803819444444444,0,0,0.012803819444444444,5.697699652777778,0)" xlink:href="#bo"/><use transform="matrix(0.012803819444444444,0,0,0.012803819444444444,21.36957465277778,0)" xlink:href="#bj"/><use transform="matrix(0.012803819444444444,0,0,0.012803819444444444,34.98003472222222,0)" xlink:href="#bn"/><use transform="matrix(0.012803819444444444,0,0,0.012803819444444444,49.576388888888886,0)" xlink:href="#bq"/></g><g id="R"><use transform="matrix(0.012803819444444444,0,0,0.012803819444444444,0,0)" xlink:href="#bm"/><use transform="matrix(0.012803819444444444,0,0,0.012803819444444444,11.408203125,0)" xlink:href="#bh"/><use transform="matrix(0.012803819444444444,0,0,0.012803819444444444,17.10590277777778,0)" xlink:href="#bl"/><use transform="matrix(0.012803819444444444,0,0,0.012803819444444444,31.356553819444443,0)" xlink:href="#bk"/><use transform="matrix(0.012803819444444444,0,0,0.012803819444444444,43.08485243055556,0)" xlink:href="#bA"/></g><g id="S"><use transform="matrix(0.012803819444444444,0,0,0.012803819444444444,0,0)" xlink:href="#bh"/><use transform="matrix(0.012803819444444444,0,0,0.012803819444444444,5.697699652777778,0)" xlink:href="#bo"/></g><use transform="matrix(0.012803819444444444,0,0,0.012803819444444444,0,0)" xlink:href="#bt" id="T"/><path d="M621-594c163 0 326 124 326 282S736 5 573 0C387-6 235-158 176-307c-32-81-50-172-50-277 0-291 84-515 251-672 123-114 255-148 401-60 53 32 90 76 121 123 44 67-17 153-85 152-24 0-53-21-88-61s-68-60-100-60c-180 0-298 367-298 568 0 189 80 393 249 393 76 0 150-57 167-118-25-60-81-80-164-74-50 4-95-50-95-100 0-67 45-101 136-101" id="bB"/><g id="U"><use transform="matrix(0.012803819444444444,0,0,0.012803819444444444,0,0)" xlink:href="#bk"/><use transform="matrix(0.012803819444444444,0,0,0.012803819444444444,11.72829861111111,0)" xlink:href="#br"/><use transform="matrix(0.012803819444444444,0,0,0.012803819444444444,27.348958333333332,0)" xlink:href="#bB"/><use transform="matrix(0.012803819444444444,0,0,0.012803819444444444,41.11306423611111,0)" xlink:href="#bh"/><use transform="matrix(0.012803819444444444,0,0,0.012803819444444444,46.810763888888886,0)" xlink:href="#bo"/></g><path d="M297-227c58 0 102 43 102 101 0 114-87 338-191 338-55 0-104-53-102-108 1-36 40-91 56-123 6-11 14-47 27-107 14-68 51-101 108-101" id="bC"/><g id="V"><use transform="matrix(0.012803819444444444,0,0,0.012803819444444444,0,0)" xlink:href="#bm"/><use transform="matrix(0.012803819444444444,0,0,0.012803819444444444,11.408203125,0)" xlink:href="#br"/><use transform="matrix(0.012803819444444444,0,0,0.012803819444444444,27.02886284722222,0)" xlink:href="#bu"/><use transform="matrix(0.012803819444444444,0,0,0.012803819444444444,40.908203125,0)" xlink:href="#bi"/><use transform="matrix(0.012803819444444444,0,0,0.012803819444444444,59.67860243055556,0)" xlink:href="#bC"/></g><g id="W"><use transform="matrix(0.012803819444444444,0,0,0.012803819444444444,0,0)" xlink:href="#bw"/><use transform="matrix(0.012803819444444444,0,0,0.012803819444444444,13.700086805555555,0)" xlink:href="#bh"/><use transform="matrix(0.012803819444444444,0,0,0.012803819444444444,19.397786458333332,0)" xlink:href="#bt"/></g><path d="M819-1377c51-2 99 48 99 100 0 45-37 111-112 198-69 79-142 155-210 234-77 90-113 163-113 215 0 67 40 139 121 214 9 8 85 66 227 174 81 61 121 110 121 146 0 52-54 107-105 105-17 0-40-10-67-29-196-143-322-233-435-405-11 59-17 288-43 364-14 42-49 61-95 61-56 0-96-49-96-104 0-132 56-634 60-717 3-65 6-162 6-293 7-35 10-86 21-152 11-67 48-99 99-99 53 0 101 46 101 99 0 47-7 172-21 377 82-84 176-223 268-326 95-107 151-162 174-162" id="bD"/><path d="M172-1273c0-51 55-92 106-92 37 0 64 24 92 68 37 59 126 327 147 375 45-73 86-148 133-220 69-105 130-155 174-155 52 0 105 52 103 104-20 75-241 385-311 490 18 36 85 160 200 372 65 118 97 196 97 234 1 55-42 97-97 97-43 0-105-70-183-212-15-28-60-122-136-281-43 69-136 292-221 411-25 35-56 50-87 50-84 0-113-73-88-151 12-39 108-216 290-529-146-314-219-501-219-561" id="bE"/><path d="M137-119c0-58 89-135 145-135 71 0 107 42 107 126C389-63 336 0 270 0c-63 0-133-55-133-119" id="bF"/><g id="X"><use transform="matrix(0.012803819444444444,0,0,0.012803819444444444,0,0)" xlink:href="#bp"/><use transform="matrix(0.012803819444444444,0,0,0.012803819444444444,12.394097222222221,0)" xlink:href="#bs"/><use transform="matrix(0.012803819444444444,0,0,0.012803819444444444,27.01605902777778,0)" xlink:href="#bl"/><use transform="matrix(0.012803819444444444,0,0,0.012803819444444444,41.26671006944444,0)" xlink:href="#bp"/><use transform="matrix(0.012803819444444444,0,0,0.012803819444444444,53.660807291666664,0)" xlink:href="#bD"/><use transform="matrix(0.012803819444444444,0,0,0.012803819444444444,67.33528645833333,0)" xlink:href="#bx"/><use transform="matrix(0.012803819444444444,0,0,0.012803819444444444,80.62565104166666,0)" xlink:href="#br"/><use transform="matrix(0.012803819444444444,0,0,0.012803819444444444,95.72135416666666,0)" xlink:href="#bE"/><use transform="matrix(0.012803819444444444,0,0,0.012803819444444444,108.80685763888889,0)" xlink:href="#bF"/></g></defs></g></svg>